G04 EAGLE Gerber RS-274X export*
G75*
%MOMM*%
%FSLAX34Y34*%
%LPD*%
%INTop Copper*%
%IPPOS*%
%AMOC8*
5,1,8,0,0,1.08239X$1,22.5*%
G01*
G04 Define Apertures*
%ADD10C,1.524000*%
%ADD11C,1.879600*%
%ADD12C,1.600000*%
%ADD13C,0.152400*%
D10*
X317500Y246380D02*
X317500Y261620D01*
X342900Y261620D02*
X342900Y246380D01*
X368300Y246380D02*
X368300Y261620D01*
X393700Y261620D02*
X393700Y246380D01*
X419100Y246380D02*
X419100Y261620D01*
D11*
X25400Y355600D03*
X50800Y355600D03*
X76200Y355600D03*
X101600Y355600D03*
X127000Y355600D03*
X152400Y355600D03*
X177800Y355600D03*
X203200Y355600D03*
X228600Y355600D03*
X254000Y355600D03*
X279400Y355600D03*
X304800Y355600D03*
X330200Y355600D03*
X355600Y355600D03*
X381000Y355600D03*
X406400Y355600D03*
X431800Y355600D03*
X457200Y355600D03*
X482600Y355600D03*
X508000Y355600D03*
X533400Y355600D03*
X558800Y355600D03*
X584200Y355600D03*
X609600Y355600D03*
X635000Y355600D03*
X635000Y254000D03*
X635000Y279400D03*
X635000Y304800D03*
D12*
X331950Y425450D03*
X351950Y425450D03*
X371950Y425450D03*
X391950Y425450D03*
X82550Y142400D03*
X82550Y162400D03*
X82550Y47150D03*
X82550Y67150D03*
X298450Y142400D03*
X298450Y162400D03*
X190500Y142400D03*
X190500Y162400D03*
X190500Y47150D03*
X190500Y67150D03*
X463550Y132400D03*
X463550Y152400D03*
X463550Y172400D03*
X463550Y30800D03*
X463550Y50800D03*
X463550Y70800D03*
X577850Y30800D03*
X577850Y50800D03*
X577850Y70800D03*
X583250Y425450D03*
X603250Y425450D03*
X623250Y425450D03*
X78900Y400050D03*
X98900Y400050D03*
D11*
X254000Y279400D03*
X254000Y254000D03*
X533400Y165100D03*
X533400Y139700D03*
X565150Y165100D03*
X565150Y139700D03*
X533400Y215900D03*
X533400Y190500D03*
X565150Y215900D03*
X565150Y190500D03*
D13*
X85250Y165100D02*
X82550Y162400D01*
X85250Y165100D02*
X127000Y165100D01*
X127000Y355600D01*
X152400Y355600D02*
X152400Y69850D01*
X149700Y67150D01*
X82550Y67150D01*
X298450Y162400D02*
X298450Y215900D01*
X203200Y215900D01*
X203200Y355600D01*
X351950Y425450D02*
X351950Y435450D01*
X349250Y438150D01*
X228600Y438150D01*
X228600Y355600D01*
X393700Y279400D02*
X393700Y254000D01*
X393700Y279400D02*
X457200Y279400D01*
X457200Y355600D01*
X482600Y279400D02*
X457200Y254000D01*
X482600Y279400D02*
X482600Y355600D01*
X457200Y254000D02*
X419100Y254000D01*
X333850Y67150D02*
X190500Y67150D01*
X333850Y67150D02*
X387350Y120650D01*
X387350Y196850D01*
X419100Y228600D01*
X419100Y254000D01*
X463550Y70800D02*
X488000Y70800D01*
X488950Y71750D01*
X488950Y234950D02*
X533400Y279400D01*
X533400Y355600D01*
X488950Y234950D02*
X488950Y71750D01*
X533400Y254000D02*
X584200Y304800D01*
X584200Y355600D01*
X533400Y254000D02*
X533400Y215900D01*
X78900Y358300D02*
X78900Y400050D01*
X78900Y358300D02*
X76200Y355600D01*
X371950Y425450D02*
X371950Y440850D01*
X368300Y444500D01*
X177800Y444500D01*
X177800Y355600D01*
X279400Y254000D02*
X317500Y254000D01*
X279400Y254000D02*
X279400Y355600D01*
X193200Y165100D02*
X190500Y162400D01*
X193200Y165100D02*
X228600Y165100D01*
X228600Y114300D01*
X317500Y114300D01*
X317500Y254000D01*
X342900Y254000D02*
X342900Y279400D01*
X304800Y279400D01*
X304800Y355600D01*
X577850Y70800D02*
X576900Y69850D01*
X501650Y69850D01*
X501650Y234950D02*
X558800Y292100D01*
X558800Y355600D01*
X501650Y234950D02*
X501650Y69850D01*
X565150Y260350D02*
X609600Y304800D01*
X609600Y355600D01*
X565150Y260350D02*
X565150Y215900D01*
X635000Y355600D02*
X635000Y393700D01*
X583250Y393700D02*
X583250Y425450D01*
X583250Y393700D02*
X635000Y393700D01*
X254000Y355600D02*
X254000Y279400D01*
X463550Y234950D02*
X508000Y279400D01*
X508000Y355600D01*
X463550Y234950D02*
X463550Y172400D01*
X463550Y50800D02*
X577850Y50800D01*
X463550Y50800D02*
X444500Y50800D01*
X444500Y152400D01*
X463550Y152400D01*
X635000Y304800D02*
X654050Y304800D01*
X654050Y400050D01*
X603250Y400050D01*
X603250Y425450D01*
X603250Y438150D01*
X539750Y438150D01*
X539750Y393700D01*
X330200Y393700D02*
X330200Y423700D01*
X331950Y425450D01*
X330200Y393700D02*
X539750Y393700D01*
X615950Y304800D02*
X635000Y304800D01*
X615950Y304800D02*
X615950Y50800D01*
X577850Y50800D01*
X533400Y165100D02*
X533400Y190500D01*
X565150Y190500D02*
X565150Y165100D01*
M02*
