G04 EAGLE Gerber RS-274X export*
G75*
%MOMM*%
%FSLAX34Y34*%
%LPD*%
%INSoldermask Bottom*%
%IPPOS*%
%AMOC8*
5,1,8,0,0,1.08239X$1,22.5*%
G01*
G04 Define Apertures*
%ADD10C,1.727200*%
%ADD11C,2.082800*%
%ADD12C,1.803200*%
D10*
X317500Y246380D02*
X317500Y261620D01*
X342900Y261620D02*
X342900Y246380D01*
X368300Y246380D02*
X368300Y261620D01*
X393700Y261620D02*
X393700Y246380D01*
X419100Y246380D02*
X419100Y261620D01*
D11*
X25400Y355600D03*
X50800Y355600D03*
X76200Y355600D03*
X101600Y355600D03*
X127000Y355600D03*
X152400Y355600D03*
X177800Y355600D03*
X203200Y355600D03*
X228600Y355600D03*
X254000Y355600D03*
X279400Y355600D03*
X304800Y355600D03*
X330200Y355600D03*
X355600Y355600D03*
X381000Y355600D03*
X406400Y355600D03*
X431800Y355600D03*
X457200Y355600D03*
X482600Y355600D03*
X508000Y355600D03*
X533400Y355600D03*
X558800Y355600D03*
X584200Y355600D03*
X609600Y355600D03*
X635000Y355600D03*
X635000Y254000D03*
X635000Y279400D03*
X635000Y304800D03*
D12*
X331950Y425450D03*
X351950Y425450D03*
X371950Y425450D03*
X391950Y425450D03*
X82550Y142400D03*
X82550Y162400D03*
X82550Y47150D03*
X82550Y67150D03*
X298450Y142400D03*
X298450Y162400D03*
X190500Y142400D03*
X190500Y162400D03*
X190500Y47150D03*
X190500Y67150D03*
X463550Y132400D03*
X463550Y152400D03*
X463550Y172400D03*
X463550Y30800D03*
X463550Y50800D03*
X463550Y70800D03*
X577850Y30800D03*
X577850Y50800D03*
X577850Y70800D03*
X583250Y425450D03*
X603250Y425450D03*
X623250Y425450D03*
X78900Y400050D03*
X98900Y400050D03*
D11*
X254000Y279400D03*
X254000Y254000D03*
X533400Y165100D03*
X533400Y139700D03*
X565150Y165100D03*
X565150Y139700D03*
X533400Y215900D03*
X533400Y190500D03*
X565150Y215900D03*
X565150Y190500D03*
M02*
