  0
SECTION
  2
HEADER
  9
$ACADVER
  1
AC1009
  9
$EXTMIN
 10
0.0
 20
0.0
 30
0.0
  9
$EXTMAX
 10
1000.0
 20
1000.0
 30
0.0
  9
$FILLMODE
 70
 0
  9
$SPLFRAME
 70
 1
  0
ENDSEC
  0
SECTION
  2
TABLES
  0
TABLE
  2
LAYER
 70
1
  0
LAYER
  2
0
 70
     0
 62
     7
  6
CONTINUOUS
  0
ENDTAB
  0
ENDSEC
  0
SECTION
  2
ENTITIES
  0
POLYLINE
  8
0
 62
     0
 66
     1
 10
0
 20
0
 30
0.0
 70
     1
 40
24
 41
24
  0
VERTEX
  8
0
 10
461.354
 20
285.94
 30
0.0
 40
0.333333
 41
0.333333
  0
VERTEX
  8
0
 10
461.354
 20
285.901
 30
0.0
 40
0.333333
 41
0.333333
  0
VERTEX
  8
0
 10
461.346
 20
285.786
 30
0.0
 40
0.333333
 41
0.333333
  0
VERTEX
  8
0
 10
461.324
 20
285.638
 30
0.0
 40
0.333333
 41
0.333333
  0
VERTEX
  8
0
 10
461.286
 20
285.494
 30
0.0
 40
0.333333
 41
0.333333
  0
VERTEX
  8
0
 10
461.236
 20
285.356
 30
0.0
 40
0.333333
 41
0.333333
  0
VERTEX
  8
0
 10
461.172
 20
285.225
 30
0.0
 40
0.333333
 41
0.333333
  0
VERTEX
  8
0
 10
461.097
 20
285.101
 30
0.0
 40
0.333333
 41
0.333333
  0
VERTEX
  8
0
 10
461.011
 20
284.986
 30
0.0
 40
0.333333
 41
0.333333
  0
VERTEX
  8
0
 10
460.914
 20
284.879
 30
0.0
 40
0.333333
 41
0.333333
  0
VERTEX
  8
0
 10
460.808
 20
284.782
 30
0.0
 40
0.333333
 41
0.333333
  0
VERTEX
  8
0
 10
460.692
 20
284.696
 30
0.0
 40
0.333333
 41
0.333333
  0
VERTEX
  8
0
 10
460.568
 20
284.621
 30
0.0
 40
0.333333
 41
0.333333
  0
VERTEX
  8
0
 10
460.438
 20
284.558
 30
0.0
 40
0.333333
 41
0.333333
  0
VERTEX
  8
0
 10
460.3
 20
284.507
 30
0.0
 40
0.333333
 41
0.333333
  0
VERTEX
  8
0
 10
460.156
 20
284.471
 30
0.0
 40
0.333333
 41
0.333333
  0
VERTEX
  8
0
 10
460.007
 20
284.447
 30
0.0
 40
0.333333
 41
0.333333
  0
VERTEX
  8
0
 10
459.892
 20
284.44
 30
0.0
 40
0.333333
 41
0.333333
  0
VERTEX
  8
0
 10
459.854
 20
284.44
 30
0.0
 40
0.333333
 41
0.333333
  0
VERTEX
  8
0
 10
459.815
 20
284.44
 30
0.0
 40
0.333333
 41
0.333333
  0
VERTEX
  8
0
 10
459.7
 20
284.447
 30
0.0
 40
0.333333
 41
0.333333
  0
VERTEX
  8
0
 10
459.551
 20
284.471
 30
0.0
 40
0.333333
 41
0.333333
  0
VERTEX
  8
0
 10
459.407
 20
284.507
 30
0.0
 40
0.333333
 41
0.333333
  0
VERTEX
  8
0
 10
459.269
 20
284.558
 30
0.0
 40
0.333333
 41
0.333333
  0
VERTEX
  8
0
 10
459.139
 20
284.621
 30
0.0
 40
0.333333
 41
0.333333
  0
VERTEX
  8
0
 10
459.015
 20
284.696
 30
0.0
 40
0.333333
 41
0.333333
  0
VERTEX
  8
0
 10
458.9
 20
284.782
 30
0.0
 40
0.333333
 41
0.333333
  0
VERTEX
  8
0
 10
458.793
 20
284.879
 30
0.0
 40
0.333333
 41
0.333333
  0
VERTEX
  8
0
 10
458.696
 20
284.986
 30
0.0
 40
0.333333
 41
0.333333
  0
VERTEX
  8
0
 10
458.61
 20
285.101
 30
0.0
 40
0.333333
 41
0.333333
  0
VERTEX
  8
0
 10
458.535
 20
285.225
 30
0.0
 40
0.333333
 41
0.333333
  0
VERTEX
  8
0
 10
458.471
 20
285.356
 30
0.0
 40
0.333333
 41
0.333333
  0
VERTEX
  8
0
 10
458.421
 20
285.494
 30
0.0
 40
0.333333
 41
0.333333
  0
VERTEX
  8
0
 10
458.383
 20
285.638
 30
0.0
 40
0.333333
 41
0.333333
  0
VERTEX
  8
0
 10
458.361
 20
285.786
 30
0.0
 40
0.333333
 41
0.333333
  0
VERTEX
  8
0
 10
458.354
 20
285.901
 30
0.0
 40
0.333333
 41
0.333333
  0
VERTEX
  8
0
 10
458.354
 20
285.94
 30
0.0
 40
0.333333
 41
0.333333
  0
VERTEX
  8
0
 10
458.354
 20
285.978
 30
0.0
 40
0.333333
 41
0.333333
  0
VERTEX
  8
0
 10
458.361
 20
286.093
 30
0.0
 40
0.333333
 41
0.333333
  0
VERTEX
  8
0
 10
458.383
 20
286.242
 30
0.0
 40
0.333333
 41
0.333333
  0
VERTEX
  8
0
 10
458.421
 20
286.386
 30
0.0
 40
0.333333
 41
0.333333
  0
VERTEX
  8
0
 10
458.471
 20
286.524
 30
0.0
 40
0.333333
 41
0.333333
  0
VERTEX
  8
0
 10
458.535
 20
286.654
 30
0.0
 40
0.333333
 41
0.333333
  0
VERTEX
  8
0
 10
458.61
 20
286.779
 30
0.0
 40
0.333333
 41
0.333333
  0
VERTEX
  8
0
 10
458.696
 20
286.894
 30
0.0
 40
0.333333
 41
0.333333
  0
VERTEX
  8
0
 10
458.793
 20
287
 30
0.0
 40
0.333333
 41
0.333333
  0
VERTEX
  8
0
 10
458.9
 20
287.097
 30
0.0
 40
0.333333
 41
0.333333
  0
VERTEX
  8
0
 10
459.015
 20
287.183
 30
0.0
 40
0.333333
 41
0.333333
  0
VERTEX
  8
0
 10
459.139
 20
287.258
 30
0.0
 40
0.333333
 41
0.333333
  0
VERTEX
  8
0
 10
459.269
 20
287.322
 30
0.0
 40
0.333333
 41
0.333333
  0
VERTEX
  8
0
 10
459.407
 20
287.372
 30
0.0
 40
0.333333
 41
0.333333
  0
VERTEX
  8
0
 10
459.551
 20
287.41
 30
0.0
 40
0.333333
 41
0.333333
  0
VERTEX
  8
0
 10
459.7
 20
287.432
 30
0.0
 40
0.333333
 41
0.333333
  0
VERTEX
  8
0
 10
459.815
 20
287.44
 30
0.0
 40
0.333333
 41
0.333333
  0
VERTEX
  8
0
 10
459.854
 20
287.44
 30
0.0
 40
0.333333
 41
0.333333
  0
VERTEX
  8
0
 10
459.892
 20
287.44
 30
0.0
 40
0.333333
 41
0.333333
  0
VERTEX
  8
0
 10
460.007
 20
287.432
 30
0.0
 40
0.333333
 41
0.333333
  0
VERTEX
  8
0
 10
460.156
 20
287.41
 30
0.0
 40
0.333333
 41
0.333333
  0
VERTEX
  8
0
 10
460.3
 20
287.372
 30
0.0
 40
0.333333
 41
0.333333
  0
VERTEX
  8
0
 10
460.438
 20
287.322
 30
0.0
 40
0.333333
 41
0.333333
  0
VERTEX
  8
0
 10
460.568
 20
287.258
 30
0.0
 40
0.333333
 41
0.333333
  0
VERTEX
  8
0
 10
460.692
 20
287.183
 30
0.0
 40
0.333333
 41
0.333333
  0
VERTEX
  8
0
 10
460.808
 20
287.097
 30
0.0
 40
0.333333
 41
0.333333
  0
VERTEX
  8
0
 10
460.914
 20
287
 30
0.0
 40
0.333333
 41
0.333333
  0
VERTEX
  8
0
 10
461.011
 20
286.894
 30
0.0
 40
0.333333
 41
0.333333
  0
VERTEX
  8
0
 10
461.097
 20
286.779
 30
0.0
 40
0.333333
 41
0.333333
  0
VERTEX
  8
0
 10
461.172
 20
286.654
 30
0.0
 40
0.333333
 41
0.333333
  0
VERTEX
  8
0
 10
461.236
 20
286.524
 30
0.0
 40
0.333333
 41
0.333333
  0
VERTEX
  8
0
 10
461.286
 20
286.386
 30
0.0
 40
0.333333
 41
0.333333
  0
VERTEX
  8
0
 10
461.324
 20
286.242
 30
0.0
 40
0.333333
 41
0.333333
  0
VERTEX
  8
0
 10
461.346
 20
286.093
 30
0.0
 40
0.333333
 41
0.333333
  0
VERTEX
  8
0
 10
461.354
 20
285.978
 30
0.0
 40
0.333333
 41
0.333333
  0
VERTEX
  8
0
 10
461.354
 20
285.94
 30
0.0
 40
0.333333
 41
0.333333
  0
SEQEND
 8
0
  0
POLYLINE
  8
0
 62
     0
 66
     1
 10
0
 20
0
 30
0.0
 70
     1
 40
24
 41
24
  0
VERTEX
  8
0
 10
12.7889
 20
285.94
 30
0.0
 40
0.333333
 41
0.333333
  0
VERTEX
  8
0
 10
12.7889
 20
285.901
 30
0.0
 40
0.333333
 41
0.333333
  0
VERTEX
  8
0
 10
12.7811
 20
285.786
 30
0.0
 40
0.333333
 41
0.333333
  0
VERTEX
  8
0
 10
12.7584
 20
285.638
 30
0.0
 40
0.333333
 41
0.333333
  0
VERTEX
  8
0
 10
12.7215
 20
285.494
 30
0.0
 40
0.333333
 41
0.333333
  0
VERTEX
  8
0
 10
12.671
 20
285.356
 30
0.0
 40
0.333333
 41
0.333333
  0
VERTEX
  8
0
 10
12.6079
 20
285.225
 30
0.0
 40
0.333333
 41
0.333333
  0
VERTEX
  8
0
 10
12.5327
 20
285.101
 30
0.0
 40
0.333333
 41
0.333333
  0
VERTEX
  8
0
 10
12.4463
 20
284.986
 30
0.0
 40
0.333333
 41
0.333333
  0
VERTEX
  8
0
 10
12.3496
 20
284.879
 30
0.0
 40
0.333333
 41
0.333333
  0
VERTEX
  8
0
 10
12.243
 20
284.782
 30
0.0
 40
0.333333
 41
0.333333
  0
VERTEX
  8
0
 10
12.1276
 20
284.696
 30
0.0
 40
0.333333
 41
0.333333
  0
VERTEX
  8
0
 10
12.0038
 20
284.621
 30
0.0
 40
0.333333
 41
0.333333
  0
VERTEX
  8
0
 10
11.8728
 20
284.558
 30
0.0
 40
0.333333
 41
0.333333
  0
VERTEX
  8
0
 10
11.7349
 20
284.507
 30
0.0
 40
0.333333
 41
0.333333
  0
VERTEX
  8
0
 10
11.5912
 20
284.471
 30
0.0
 40
0.333333
 41
0.333333
  0
VERTEX
  8
0
 10
11.4422
 20
284.447
 30
0.0
 40
0.333333
 41
0.333333
  0
VERTEX
  8
0
 10
11.3272
 20
284.44
 30
0.0
 40
0.333333
 41
0.333333
  0
VERTEX
  8
0
 10
11.2889
 20
284.44
 30
0.0
 40
0.333333
 41
0.333333
  0
VERTEX
  8
0
 10
11.2505
 20
284.44
 30
0.0
 40
0.333333
 41
0.333333
  0
VERTEX
  8
0
 10
11.1355
 20
284.447
 30
0.0
 40
0.333333
 41
0.333333
  0
VERTEX
  8
0
 10
10.9866
 20
284.471
 30
0.0
 40
0.333333
 41
0.333333
  0
VERTEX
  8
0
 10
10.8428
 20
284.507
 30
0.0
 40
0.333333
 41
0.333333
  0
VERTEX
  8
0
 10
10.705
 20
284.558
 30
0.0
 40
0.333333
 41
0.333333
  0
VERTEX
  8
0
 10
10.5739
 20
284.621
 30
0.0
 40
0.333333
 41
0.333333
  0
VERTEX
  8
0
 10
10.4502
 20
284.696
 30
0.0
 40
0.333333
 41
0.333333
  0
VERTEX
  8
0
 10
10.3347
 20
284.782
 30
0.0
 40
0.333333
 41
0.333333
  0
VERTEX
  8
0
 10
10.2283
 20
284.879
 30
0.0
 40
0.333333
 41
0.333333
  0
VERTEX
  8
0
 10
10.1314
 20
284.986
 30
0.0
 40
0.333333
 41
0.333333
  0
VERTEX
  8
0
 10
10.045
 20
285.101
 30
0.0
 40
0.333333
 41
0.333333
  0
VERTEX
  8
0
 10
9.96994
 20
285.225
 30
0.0
 40
0.333333
 41
0.333333
  0
VERTEX
  8
0
 10
9.90674
 20
285.356
 30
0.0
 40
0.333333
 41
0.333333
  0
VERTEX
  8
0
 10
9.85633
 20
285.494
 30
0.0
 40
0.333333
 41
0.333333
  0
VERTEX
  8
0
 10
9.81933
 20
285.638
 30
0.0
 40
0.333333
 41
0.333333
  0
VERTEX
  8
0
 10
9.7966
 20
285.786
 30
0.0
 40
0.333333
 41
0.333333
  0
VERTEX
  8
0
 10
9.7889
 20
285.901
 30
0.0
 40
0.333333
 41
0.333333
  0
VERTEX
  8
0
 10
9.7889
 20
285.94
 30
0.0
 40
0.333333
 41
0.333333
  0
VERTEX
  8
0
 10
9.7889
 20
285.978
 30
0.0
 40
0.333333
 41
0.333333
  0
VERTEX
  8
0
 10
9.7966
 20
286.093
 30
0.0
 40
0.333333
 41
0.333333
  0
VERTEX
  8
0
 10
9.81933
 20
286.242
 30
0.0
 40
0.333333
 41
0.333333
  0
VERTEX
  8
0
 10
9.85633
 20
286.386
 30
0.0
 40
0.333333
 41
0.333333
  0
VERTEX
  8
0
 10
9.90674
 20
286.524
 30
0.0
 40
0.333333
 41
0.333333
  0
VERTEX
  8
0
 10
9.96994
 20
286.654
 30
0.0
 40
0.333333
 41
0.333333
  0
VERTEX
  8
0
 10
10.045
 20
286.779
 30
0.0
 40
0.333333
 41
0.333333
  0
VERTEX
  8
0
 10
10.1314
 20
286.894
 30
0.0
 40
0.333333
 41
0.333333
  0
VERTEX
  8
0
 10
10.2283
 20
287
 30
0.0
 40
0.333333
 41
0.333333
  0
VERTEX
  8
0
 10
10.3347
 20
287.097
 30
0.0
 40
0.333333
 41
0.333333
  0
VERTEX
  8
0
 10
10.4502
 20
287.183
 30
0.0
 40
0.333333
 41
0.333333
  0
VERTEX
  8
0
 10
10.5739
 20
287.258
 30
0.0
 40
0.333333
 41
0.333333
  0
VERTEX
  8
0
 10
10.705
 20
287.322
 30
0.0
 40
0.333333
 41
0.333333
  0
VERTEX
  8
0
 10
10.8428
 20
287.372
 30
0.0
 40
0.333333
 41
0.333333
  0
VERTEX
  8
0
 10
10.9866
 20
287.41
 30
0.0
 40
0.333333
 41
0.333333
  0
VERTEX
  8
0
 10
11.1355
 20
287.432
 30
0.0
 40
0.333333
 41
0.333333
  0
VERTEX
  8
0
 10
11.2505
 20
287.44
 30
0.0
 40
0.333333
 41
0.333333
  0
VERTEX
  8
0
 10
11.2889
 20
287.44
 30
0.0
 40
0.333333
 41
0.333333
  0
VERTEX
  8
0
 10
11.3272
 20
287.44
 30
0.0
 40
0.333333
 41
0.333333
  0
VERTEX
  8
0
 10
11.4422
 20
287.432
 30
0.0
 40
0.333333
 41
0.333333
  0
VERTEX
  8
0
 10
11.5912
 20
287.41
 30
0.0
 40
0.333333
 41
0.333333
  0
VERTEX
  8
0
 10
11.7349
 20
287.372
 30
0.0
 40
0.333333
 41
0.333333
  0
VERTEX
  8
0
 10
11.8728
 20
287.322
 30
0.0
 40
0.333333
 41
0.333333
  0
VERTEX
  8
0
 10
12.0038
 20
287.258
 30
0.0
 40
0.333333
 41
0.333333
  0
VERTEX
  8
0
 10
12.1276
 20
287.183
 30
0.0
 40
0.333333
 41
0.333333
  0
VERTEX
  8
0
 10
12.243
 20
287.097
 30
0.0
 40
0.333333
 41
0.333333
  0
VERTEX
  8
0
 10
12.3496
 20
287
 30
0.0
 40
0.333333
 41
0.333333
  0
VERTEX
  8
0
 10
12.4463
 20
286.894
 30
0.0
 40
0.333333
 41
0.333333
  0
VERTEX
  8
0
 10
12.5327
 20
286.779
 30
0.0
 40
0.333333
 41
0.333333
  0
VERTEX
  8
0
 10
12.6079
 20
286.654
 30
0.0
 40
0.333333
 41
0.333333
  0
VERTEX
  8
0
 10
12.671
 20
286.524
 30
0.0
 40
0.333333
 41
0.333333
  0
VERTEX
  8
0
 10
12.7215
 20
286.386
 30
0.0
 40
0.333333
 41
0.333333
  0
VERTEX
  8
0
 10
12.7584
 20
286.242
 30
0.0
 40
0.333333
 41
0.333333
  0
VERTEX
  8
0
 10
12.7811
 20
286.093
 30
0.0
 40
0.333333
 41
0.333333
  0
VERTEX
  8
0
 10
12.7889
 20
285.978
 30
0.0
 40
0.333333
 41
0.333333
  0
VERTEX
  8
0
 10
12.7889
 20
285.94
 30
0.0
 40
0.333333
 41
0.333333
  0
SEQEND
 8
0
  0
POLYLINE
  8
0
 62
     0
 66
     1
 10
0
 20
0
 30
0.0
 70
     1
 40
24
 41
24
  0
VERTEX
  8
0
 10
15.9639
 20
399.097
 30
0.0
 40
0.333333
 41
0.333333
  0
VERTEX
  8
0
 10
15.9639
 20
399.058
 30
0.0
 40
0.333333
 41
0.333333
  0
VERTEX
  8
0
 10
15.9561
 20
398.943
 30
0.0
 40
0.333333
 41
0.333333
  0
VERTEX
  8
0
 10
15.9335
 20
398.794
 30
0.0
 40
0.333333
 41
0.333333
  0
VERTEX
  8
0
 10
15.8964
 20
398.651
 30
0.0
 40
0.333333
 41
0.333333
  0
VERTEX
  8
0
 10
15.846
 20
398.513
 30
0.0
 40
0.333333
 41
0.333333
  0
VERTEX
  8
0
 10
15.7828
 20
398.382
 30
0.0
 40
0.333333
 41
0.333333
  0
VERTEX
  8
0
 10
15.7078
 20
398.258
 30
0.0
 40
0.333333
 41
0.333333
  0
VERTEX
  8
0
 10
15.6214
 20
398.143
 30
0.0
 40
0.333333
 41
0.333333
  0
VERTEX
  8
0
 10
15.5246
 20
398.036
 30
0.0
 40
0.333333
 41
0.333333
  0
VERTEX
  8
0
 10
15.4181
 20
397.939
 30
0.0
 40
0.333333
 41
0.333333
  0
VERTEX
  8
0
 10
15.3026
 20
397.853
 30
0.0
 40
0.333333
 41
0.333333
  0
VERTEX
  8
0
 10
15.1789
 20
397.778
 30
0.0
 40
0.333333
 41
0.333333
  0
VERTEX
  8
0
 10
15.0478
 20
397.715
 30
0.0
 40
0.333333
 41
0.333333
  0
VERTEX
  8
0
 10
14.91
 20
397.664
 30
0.0
 40
0.333333
 41
0.333333
  0
VERTEX
  8
0
 10
14.7661
 20
397.628
 30
0.0
 40
0.333333
 41
0.333333
  0
VERTEX
  8
0
 10
14.6172
 20
397.604
 30
0.0
 40
0.333333
 41
0.333333
  0
VERTEX
  8
0
 10
14.5022
 20
397.597
 30
0.0
 40
0.333333
 41
0.333333
  0
VERTEX
  8
0
 10
14.4639
 20
397.597
 30
0.0
 40
0.333333
 41
0.333333
  0
VERTEX
  8
0
 10
14.4256
 20
397.597
 30
0.0
 40
0.333333
 41
0.333333
  0
VERTEX
  8
0
 10
14.3106
 20
397.604
 30
0.0
 40
0.333333
 41
0.333333
  0
VERTEX
  8
0
 10
14.1615
 20
397.628
 30
0.0
 40
0.333333
 41
0.333333
  0
VERTEX
  8
0
 10
14.0179
 20
397.664
 30
0.0
 40
0.333333
 41
0.333333
  0
VERTEX
  8
0
 10
13.88
 20
397.715
 30
0.0
 40
0.333333
 41
0.333333
  0
VERTEX
  8
0
 10
13.7489
 20
397.778
 30
0.0
 40
0.333333
 41
0.333333
  0
VERTEX
  8
0
 10
13.6252
 20
397.853
 30
0.0
 40
0.333333
 41
0.333333
  0
VERTEX
  8
0
 10
13.5098
 20
397.939
 30
0.0
 40
0.333333
 41
0.333333
  0
VERTEX
  8
0
 10
13.4032
 20
398.036
 30
0.0
 40
0.333333
 41
0.333333
  0
VERTEX
  8
0
 10
13.3064
 20
398.143
 30
0.0
 40
0.333333
 41
0.333333
  0
VERTEX
  8
0
 10
13.2201
 20
398.258
 30
0.0
 40
0.333333
 41
0.333333
  0
VERTEX
  8
0
 10
13.1449
 20
398.382
 30
0.0
 40
0.333333
 41
0.333333
  0
VERTEX
  8
0
 10
13.0818
 20
398.513
 30
0.0
 40
0.333333
 41
0.333333
  0
VERTEX
  8
0
 10
13.0313
 20
398.651
 30
0.0
 40
0.333333
 41
0.333333
  0
VERTEX
  8
0
 10
12.9944
 20
398.794
 30
0.0
 40
0.333333
 41
0.333333
  0
VERTEX
  8
0
 10
12.9716
 20
398.943
 30
0.0
 40
0.333333
 41
0.333333
  0
VERTEX
  8
0
 10
12.9639
 20
399.058
 30
0.0
 40
0.333333
 41
0.333333
  0
VERTEX
  8
0
 10
12.9639
 20
399.097
 30
0.0
 40
0.333333
 41
0.333333
  0
VERTEX
  8
0
 10
12.9639
 20
399.136
 30
0.0
 40
0.333333
 41
0.333333
  0
VERTEX
  8
0
 10
12.9716
 20
399.25
 30
0.0
 40
0.333333
 41
0.333333
  0
VERTEX
  8
0
 10
12.9944
 20
399.4
 30
0.0
 40
0.333333
 41
0.333333
  0
VERTEX
  8
0
 10
13.0313
 20
399.543
 30
0.0
 40
0.333333
 41
0.333333
  0
VERTEX
  8
0
 10
13.0818
 20
399.681
 30
0.0
 40
0.333333
 41
0.333333
  0
VERTEX
  8
0
 10
13.1449
 20
399.813
 30
0.0
 40
0.333333
 41
0.333333
  0
VERTEX
  8
0
 10
13.2201
 20
399.936
 30
0.0
 40
0.333333
 41
0.333333
  0
VERTEX
  8
0
 10
13.3064
 20
400.051
 30
0.0
 40
0.333333
 41
0.333333
  0
VERTEX
  8
0
 10
13.4032
 20
400.158
 30
0.0
 40
0.333333
 41
0.333333
  0
VERTEX
  8
0
 10
13.5098
 20
400.254
 30
0.0
 40
0.333333
 41
0.333333
  0
VERTEX
  8
0
 10
13.6252
 20
400.34
 30
0.0
 40
0.333333
 41
0.333333
  0
VERTEX
  8
0
 10
13.7489
 20
400.417
 30
0.0
 40
0.333333
 41
0.333333
  0
VERTEX
  8
0
 10
13.88
 20
400.479
 30
0.0
 40
0.333333
 41
0.333333
  0
VERTEX
  8
0
 10
14.0179
 20
400.529
 30
0.0
 40
0.333333
 41
0.333333
  0
VERTEX
  8
0
 10
14.1615
 20
400.567
 30
0.0
 40
0.333333
 41
0.333333
  0
VERTEX
  8
0
 10
14.3106
 20
400.589
 30
0.0
 40
0.333333
 41
0.333333
  0
VERTEX
  8
0
 10
14.4256
 20
400.597
 30
0.0
 40
0.333333
 41
0.333333
  0
VERTEX
  8
0
 10
14.4639
 20
400.597
 30
0.0
 40
0.333333
 41
0.333333
  0
VERTEX
  8
0
 10
14.5022
 20
400.597
 30
0.0
 40
0.333333
 41
0.333333
  0
VERTEX
  8
0
 10
14.6172
 20
400.589
 30
0.0
 40
0.333333
 41
0.333333
  0
VERTEX
  8
0
 10
14.7661
 20
400.567
 30
0.0
 40
0.333333
 41
0.333333
  0
VERTEX
  8
0
 10
14.91
 20
400.529
 30
0.0
 40
0.333333
 41
0.333333
  0
VERTEX
  8
0
 10
15.0478
 20
400.479
 30
0.0
 40
0.333333
 41
0.333333
  0
VERTEX
  8
0
 10
15.1789
 20
400.417
 30
0.0
 40
0.333333
 41
0.333333
  0
VERTEX
  8
0
 10
15.3026
 20
400.34
 30
0.0
 40
0.333333
 41
0.333333
  0
VERTEX
  8
0
 10
15.4181
 20
400.254
 30
0.0
 40
0.333333
 41
0.333333
  0
VERTEX
  8
0
 10
15.5246
 20
400.158
 30
0.0
 40
0.333333
 41
0.333333
  0
VERTEX
  8
0
 10
15.6214
 20
400.051
 30
0.0
 40
0.333333
 41
0.333333
  0
VERTEX
  8
0
 10
15.7078
 20
399.936
 30
0.0
 40
0.333333
 41
0.333333
  0
VERTEX
  8
0
 10
15.7828
 20
399.813
 30
0.0
 40
0.333333
 41
0.333333
  0
VERTEX
  8
0
 10
15.846
 20
399.681
 30
0.0
 40
0.333333
 41
0.333333
  0
VERTEX
  8
0
 10
15.8964
 20
399.543
 30
0.0
 40
0.333333
 41
0.333333
  0
VERTEX
  8
0
 10
15.9335
 20
399.4
 30
0.0
 40
0.333333
 41
0.333333
  0
VERTEX
  8
0
 10
15.9561
 20
399.25
 30
0.0
 40
0.333333
 41
0.333333
  0
VERTEX
  8
0
 10
15.9639
 20
399.136
 30
0.0
 40
0.333333
 41
0.333333
  0
VERTEX
  8
0
 10
15.9639
 20
399.097
 30
0.0
 40
0.333333
 41
0.333333
  0
SEQEND
 8
0
  0
POLYLINE
  8
0
 62
     0
 66
     1
 10
0
 20
0
 30
0.0
 70
     1
 40
24
 41
24
  0
VERTEX
  8
0
 10
458.179
 20
399.097
 30
0.0
 40
0.333333
 41
0.333333
  0
VERTEX
  8
0
 10
458.179
 20
399.058
 30
0.0
 40
0.333333
 41
0.333333
  0
VERTEX
  8
0
 10
458.171
 20
398.943
 30
0.0
 40
0.333333
 41
0.333333
  0
VERTEX
  8
0
 10
458.149
 20
398.794
 30
0.0
 40
0.333333
 41
0.333333
  0
VERTEX
  8
0
 10
458.111
 20
398.651
 30
0.0
 40
0.333333
 41
0.333333
  0
VERTEX
  8
0
 10
458.061
 20
398.513
 30
0.0
 40
0.333333
 41
0.333333
  0
VERTEX
  8
0
 10
457.997
 20
398.382
 30
0.0
 40
0.333333
 41
0.333333
  0
VERTEX
  8
0
 10
457.922
 20
398.258
 30
0.0
 40
0.333333
 41
0.333333
  0
VERTEX
  8
0
 10
457.836
 20
398.143
 30
0.0
 40
0.333333
 41
0.333333
  0
VERTEX
  8
0
 10
457.739
 20
398.036
 30
0.0
 40
0.333333
 41
0.333333
  0
VERTEX
  8
0
 10
457.633
 20
397.939
 30
0.0
 40
0.333333
 41
0.333333
  0
VERTEX
  8
0
 10
457.517
 20
397.853
 30
0.0
 40
0.333333
 41
0.333333
  0
VERTEX
  8
0
 10
457.393
 20
397.778
 30
0.0
 40
0.333333
 41
0.333333
  0
VERTEX
  8
0
 10
457.262
 20
397.715
 30
0.0
 40
0.333333
 41
0.333333
  0
VERTEX
  8
0
 10
457.125
 20
397.664
 30
0.0
 40
0.333333
 41
0.333333
  0
VERTEX
  8
0
 10
456.981
 20
397.628
 30
0.0
 40
0.333333
 41
0.333333
  0
VERTEX
  8
0
 10
456.832
 20
397.604
 30
0.0
 40
0.333333
 41
0.333333
  0
VERTEX
  8
0
 10
456.717
 20
397.597
 30
0.0
 40
0.333333
 41
0.333333
  0
VERTEX
  8
0
 10
456.679
 20
397.597
 30
0.0
 40
0.333333
 41
0.333333
  0
VERTEX
  8
0
 10
456.64
 20
397.597
 30
0.0
 40
0.333333
 41
0.333333
  0
VERTEX
  8
0
 10
456.525
 20
397.604
 30
0.0
 40
0.333333
 41
0.333333
  0
VERTEX
  8
0
 10
456.376
 20
397.628
 30
0.0
 40
0.333333
 41
0.333333
  0
VERTEX
  8
0
 10
456.232
 20
397.664
 30
0.0
 40
0.333333
 41
0.333333
  0
VERTEX
  8
0
 10
456.094
 20
397.715
 30
0.0
 40
0.333333
 41
0.333333
  0
VERTEX
  8
0
 10
455.964
 20
397.778
 30
0.0
 40
0.333333
 41
0.333333
  0
VERTEX
  8
0
 10
455.84
 20
397.853
 30
0.0
 40
0.333333
 41
0.333333
  0
VERTEX
  8
0
 10
455.725
 20
397.939
 30
0.0
 40
0.333333
 41
0.333333
  0
VERTEX
  8
0
 10
455.618
 20
398.036
 30
0.0
 40
0.333333
 41
0.333333
  0
VERTEX
  8
0
 10
455.521
 20
398.143
 30
0.0
 40
0.333333
 41
0.333333
  0
VERTEX
  8
0
 10
455.435
 20
398.258
 30
0.0
 40
0.333333
 41
0.333333
  0
VERTEX
  8
0
 10
455.36
 20
398.382
 30
0.0
 40
0.333333
 41
0.333333
  0
VERTEX
  8
0
 10
455.296
 20
398.513
 30
0.0
 40
0.333333
 41
0.333333
  0
VERTEX
  8
0
 10
455.246
 20
398.651
 30
0.0
 40
0.333333
 41
0.333333
  0
VERTEX
  8
0
 10
455.21
 20
398.794
 30
0.0
 40
0.333333
 41
0.333333
  0
VERTEX
  8
0
 10
455.186
 20
398.943
 30
0.0
 40
0.333333
 41
0.333333
  0
VERTEX
  8
0
 10
455.179
 20
399.058
 30
0.0
 40
0.333333
 41
0.333333
  0
VERTEX
  8
0
 10
455.179
 20
399.097
 30
0.0
 40
0.333333
 41
0.333333
  0
VERTEX
  8
0
 10
455.179
 20
399.136
 30
0.0
 40
0.333333
 41
0.333333
  0
VERTEX
  8
0
 10
455.186
 20
399.25
 30
0.0
 40
0.333333
 41
0.333333
  0
VERTEX
  8
0
 10
455.21
 20
399.4
 30
0.0
 40
0.333333
 41
0.333333
  0
VERTEX
  8
0
 10
455.246
 20
399.543
 30
0.0
 40
0.333333
 41
0.333333
  0
VERTEX
  8
0
 10
455.296
 20
399.681
 30
0.0
 40
0.333333
 41
0.333333
  0
VERTEX
  8
0
 10
455.36
 20
399.813
 30
0.0
 40
0.333333
 41
0.333333
  0
VERTEX
  8
0
 10
455.435
 20
399.936
 30
0.0
 40
0.333333
 41
0.333333
  0
VERTEX
  8
0
 10
455.521
 20
400.051
 30
0.0
 40
0.333333
 41
0.333333
  0
VERTEX
  8
0
 10
455.618
 20
400.158
 30
0.0
 40
0.333333
 41
0.333333
  0
VERTEX
  8
0
 10
455.725
 20
400.254
 30
0.0
 40
0.333333
 41
0.333333
  0
VERTEX
  8
0
 10
455.84
 20
400.34
 30
0.0
 40
0.333333
 41
0.333333
  0
VERTEX
  8
0
 10
455.964
 20
400.417
 30
0.0
 40
0.333333
 41
0.333333
  0
VERTEX
  8
0
 10
456.094
 20
400.479
 30
0.0
 40
0.333333
 41
0.333333
  0
VERTEX
  8
0
 10
456.232
 20
400.529
 30
0.0
 40
0.333333
 41
0.333333
  0
VERTEX
  8
0
 10
456.376
 20
400.567
 30
0.0
 40
0.333333
 41
0.333333
  0
VERTEX
  8
0
 10
456.525
 20
400.589
 30
0.0
 40
0.333333
 41
0.333333
  0
VERTEX
  8
0
 10
456.64
 20
400.597
 30
0.0
 40
0.333333
 41
0.333333
  0
VERTEX
  8
0
 10
456.679
 20
400.597
 30
0.0
 40
0.333333
 41
0.333333
  0
VERTEX
  8
0
 10
456.717
 20
400.597
 30
0.0
 40
0.333333
 41
0.333333
  0
VERTEX
  8
0
 10
456.832
 20
400.589
 30
0.0
 40
0.333333
 41
0.333333
  0
VERTEX
  8
0
 10
456.981
 20
400.567
 30
0.0
 40
0.333333
 41
0.333333
  0
VERTEX
  8
0
 10
457.125
 20
400.529
 30
0.0
 40
0.333333
 41
0.333333
  0
VERTEX
  8
0
 10
457.262
 20
400.479
 30
0.0
 40
0.333333
 41
0.333333
  0
VERTEX
  8
0
 10
457.393
 20
400.417
 30
0.0
 40
0.333333
 41
0.333333
  0
VERTEX
  8
0
 10
457.517
 20
400.34
 30
0.0
 40
0.333333
 41
0.333333
  0
VERTEX
  8
0
 10
457.633
 20
400.254
 30
0.0
 40
0.333333
 41
0.333333
  0
VERTEX
  8
0
 10
457.739
 20
400.158
 30
0.0
 40
0.333333
 41
0.333333
  0
VERTEX
  8
0
 10
457.836
 20
400.051
 30
0.0
 40
0.333333
 41
0.333333
  0
VERTEX
  8
0
 10
457.922
 20
399.936
 30
0.0
 40
0.333333
 41
0.333333
  0
VERTEX
  8
0
 10
457.997
 20
399.813
 30
0.0
 40
0.333333
 41
0.333333
  0
VERTEX
  8
0
 10
458.061
 20
399.681
 30
0.0
 40
0.333333
 41
0.333333
  0
VERTEX
  8
0
 10
458.111
 20
399.543
 30
0.0
 40
0.333333
 41
0.333333
  0
VERTEX
  8
0
 10
458.149
 20
399.4
 30
0.0
 40
0.333333
 41
0.333333
  0
VERTEX
  8
0
 10
458.171
 20
399.25
 30
0.0
 40
0.333333
 41
0.333333
  0
VERTEX
  8
0
 10
458.179
 20
399.136
 30
0.0
 40
0.333333
 41
0.333333
  0
VERTEX
  8
0
 10
458.179
 20
399.097
 30
0.0
 40
0.333333
 41
0.333333
  0
SEQEND
 8
0
  0
POLYLINE
  8
0
 62
     0
 66
     1
 10
0
 20
0
 30
0.0
 70
     1
 40
24
 41
24
  0
VERTEX
  8
0
 10
458.179
 20
414.844
 30
0.0
 40
0.333333
 41
0.333333
  0
VERTEX
  8
0
 10
458.179
 20
414.807
 30
0.0
 40
0.333333
 41
0.333333
  0
VERTEX
  8
0
 10
458.171
 20
414.692
 30
0.0
 40
0.333333
 41
0.333333
  0
VERTEX
  8
0
 10
458.149
 20
414.543
 30
0.0
 40
0.333333
 41
0.333333
  0
VERTEX
  8
0
 10
458.111
 20
414.399
 30
0.0
 40
0.333333
 41
0.333333
  0
VERTEX
  8
0
 10
458.061
 20
414.261
 30
0.0
 40
0.333333
 41
0.333333
  0
VERTEX
  8
0
 10
457.997
 20
414.131
 30
0.0
 40
0.333333
 41
0.333333
  0
VERTEX
  8
0
 10
457.922
 20
414.007
 30
0.0
 40
0.333333
 41
0.333333
  0
VERTEX
  8
0
 10
457.836
 20
413.89
 30
0.0
 40
0.333333
 41
0.333333
  0
VERTEX
  8
0
 10
457.739
 20
413.785
 30
0.0
 40
0.333333
 41
0.333333
  0
VERTEX
  8
0
 10
457.633
 20
413.688
 30
0.0
 40
0.333333
 41
0.333333
  0
VERTEX
  8
0
 10
457.517
 20
413.601
 30
0.0
 40
0.333333
 41
0.333333
  0
VERTEX
  8
0
 10
457.393
 20
413.526
 30
0.0
 40
0.333333
 41
0.333333
  0
VERTEX
  8
0
 10
457.262
 20
413.463
 30
0.0
 40
0.333333
 41
0.333333
  0
VERTEX
  8
0
 10
457.125
 20
413.412
 30
0.0
 40
0.333333
 41
0.333333
  0
VERTEX
  8
0
 10
456.981
 20
413.375
 30
0.0
 40
0.333333
 41
0.333333
  0
VERTEX
  8
0
 10
456.832
 20
413.353
 30
0.0
 40
0.333333
 41
0.333333
  0
VERTEX
  8
0
 10
456.717
 20
413.344
 30
0.0
 40
0.333333
 41
0.333333
  0
VERTEX
  8
0
 10
456.679
 20
413.344
 30
0.0
 40
0.333333
 41
0.333333
  0
VERTEX
  8
0
 10
456.64
 20
413.344
 30
0.0
 40
0.333333
 41
0.333333
  0
VERTEX
  8
0
 10
456.525
 20
413.353
 30
0.0
 40
0.333333
 41
0.333333
  0
VERTEX
  8
0
 10
456.376
 20
413.375
 30
0.0
 40
0.333333
 41
0.333333
  0
VERTEX
  8
0
 10
456.232
 20
413.412
 30
0.0
 40
0.333333
 41
0.333333
  0
VERTEX
  8
0
 10
456.094
 20
413.463
 30
0.0
 40
0.333333
 41
0.333333
  0
VERTEX
  8
0
 10
455.964
 20
413.526
 30
0.0
 40
0.333333
 41
0.333333
  0
VERTEX
  8
0
 10
455.84
 20
413.601
 30
0.0
 40
0.333333
 41
0.333333
  0
VERTEX
  8
0
 10
455.725
 20
413.688
 30
0.0
 40
0.333333
 41
0.333333
  0
VERTEX
  8
0
 10
455.618
 20
413.785
 30
0.0
 40
0.333333
 41
0.333333
  0
VERTEX
  8
0
 10
455.521
 20
413.89
 30
0.0
 40
0.333333
 41
0.333333
  0
VERTEX
  8
0
 10
455.435
 20
414.007
 30
0.0
 40
0.333333
 41
0.333333
  0
VERTEX
  8
0
 10
455.36
 20
414.131
 30
0.0
 40
0.333333
 41
0.333333
  0
VERTEX
  8
0
 10
455.296
 20
414.261
 30
0.0
 40
0.333333
 41
0.333333
  0
VERTEX
  8
0
 10
455.246
 20
414.399
 30
0.0
 40
0.333333
 41
0.333333
  0
VERTEX
  8
0
 10
455.21
 20
414.543
 30
0.0
 40
0.333333
 41
0.333333
  0
VERTEX
  8
0
 10
455.186
 20
414.692
 30
0.0
 40
0.333333
 41
0.333333
  0
VERTEX
  8
0
 10
455.179
 20
414.807
 30
0.0
 40
0.333333
 41
0.333333
  0
VERTEX
  8
0
 10
455.179
 20
414.844
 30
0.0
 40
0.333333
 41
0.333333
  0
VERTEX
  8
0
 10
455.179
 20
414.883
 30
0.0
 40
0.333333
 41
0.333333
  0
VERTEX
  8
0
 10
455.186
 20
414.999
 30
0.0
 40
0.333333
 41
0.333333
  0
VERTEX
  8
0
 10
455.21
 20
415.147
 30
0.0
 40
0.333333
 41
0.333333
  0
VERTEX
  8
0
 10
455.246
 20
415.292
 30
0.0
 40
0.333333
 41
0.333333
  0
VERTEX
  8
0
 10
455.296
 20
415.429
 30
0.0
 40
0.333333
 41
0.333333
  0
VERTEX
  8
0
 10
455.36
 20
415.56
 30
0.0
 40
0.333333
 41
0.333333
  0
VERTEX
  8
0
 10
455.435
 20
415.683
 30
0.0
 40
0.333333
 41
0.333333
  0
VERTEX
  8
0
 10
455.521
 20
415.799
 30
0.0
 40
0.333333
 41
0.333333
  0
VERTEX
  8
0
 10
455.618
 20
415.906
 30
0.0
 40
0.333333
 41
0.333333
  0
VERTEX
  8
0
 10
455.725
 20
416.003
 30
0.0
 40
0.333333
 41
0.333333
  0
VERTEX
  8
0
 10
455.84
 20
416.089
 30
0.0
 40
0.333333
 41
0.333333
  0
VERTEX
  8
0
 10
455.964
 20
416.164
 30
0.0
 40
0.333333
 41
0.333333
  0
VERTEX
  8
0
 10
456.094
 20
416.228
 30
0.0
 40
0.333333
 41
0.333333
  0
VERTEX
  8
0
 10
456.232
 20
416.278
 30
0.0
 40
0.333333
 41
0.333333
  0
VERTEX
  8
0
 10
456.376
 20
416.315
 30
0.0
 40
0.333333
 41
0.333333
  0
VERTEX
  8
0
 10
456.525
 20
416.338
 30
0.0
 40
0.333333
 41
0.333333
  0
VERTEX
  8
0
 10
456.64
 20
416.344
 30
0.0
 40
0.333333
 41
0.333333
  0
VERTEX
  8
0
 10
456.679
 20
416.344
 30
0.0
 40
0.333333
 41
0.333333
  0
VERTEX
  8
0
 10
456.717
 20
416.344
 30
0.0
 40
0.333333
 41
0.333333
  0
VERTEX
  8
0
 10
456.832
 20
416.338
 30
0.0
 40
0.333333
 41
0.333333
  0
VERTEX
  8
0
 10
456.981
 20
416.315
 30
0.0
 40
0.333333
 41
0.333333
  0
VERTEX
  8
0
 10
457.125
 20
416.278
 30
0.0
 40
0.333333
 41
0.333333
  0
VERTEX
  8
0
 10
457.262
 20
416.228
 30
0.0
 40
0.333333
 41
0.333333
  0
VERTEX
  8
0
 10
457.393
 20
416.164
 30
0.0
 40
0.333333
 41
0.333333
  0
VERTEX
  8
0
 10
457.517
 20
416.089
 30
0.0
 40
0.333333
 41
0.333333
  0
VERTEX
  8
0
 10
457.633
 20
416.003
 30
0.0
 40
0.333333
 41
0.333333
  0
VERTEX
  8
0
 10
457.739
 20
415.906
 30
0.0
 40
0.333333
 41
0.333333
  0
VERTEX
  8
0
 10
457.836
 20
415.799
 30
0.0
 40
0.333333
 41
0.333333
  0
VERTEX
  8
0
 10
457.922
 20
415.683
 30
0.0
 40
0.333333
 41
0.333333
  0
VERTEX
  8
0
 10
457.997
 20
415.56
 30
0.0
 40
0.333333
 41
0.333333
  0
VERTEX
  8
0
 10
458.061
 20
415.429
 30
0.0
 40
0.333333
 41
0.333333
  0
VERTEX
  8
0
 10
458.111
 20
415.292
 30
0.0
 40
0.333333
 41
0.333333
  0
VERTEX
  8
0
 10
458.149
 20
415.147
 30
0.0
 40
0.333333
 41
0.333333
  0
VERTEX
  8
0
 10
458.171
 20
414.999
 30
0.0
 40
0.333333
 41
0.333333
  0
VERTEX
  8
0
 10
458.179
 20
414.883
 30
0.0
 40
0.333333
 41
0.333333
  0
VERTEX
  8
0
 10
458.179
 20
414.844
 30
0.0
 40
0.333333
 41
0.333333
  0
SEQEND
 8
0
  0
POLYLINE
  8
0
 62
     0
 66
     1
 10
0
 20
0
 30
0.0
 70
     1
 40
24
 41
24
  0
VERTEX
  8
0
 10
15.9639
 20
414.844
 30
0.0
 40
0.333333
 41
0.333333
  0
VERTEX
  8
0
 10
15.9639
 20
414.807
 30
0.0
 40
0.333333
 41
0.333333
  0
VERTEX
  8
0
 10
15.9561
 20
414.692
 30
0.0
 40
0.333333
 41
0.333333
  0
VERTEX
  8
0
 10
15.9335
 20
414.543
 30
0.0
 40
0.333333
 41
0.333333
  0
VERTEX
  8
0
 10
15.8964
 20
414.399
 30
0.0
 40
0.333333
 41
0.333333
  0
VERTEX
  8
0
 10
15.846
 20
414.261
 30
0.0
 40
0.333333
 41
0.333333
  0
VERTEX
  8
0
 10
15.7828
 20
414.131
 30
0.0
 40
0.333333
 41
0.333333
  0
VERTEX
  8
0
 10
15.7078
 20
414.007
 30
0.0
 40
0.333333
 41
0.333333
  0
VERTEX
  8
0
 10
15.6214
 20
413.89
 30
0.0
 40
0.333333
 41
0.333333
  0
VERTEX
  8
0
 10
15.5246
 20
413.785
 30
0.0
 40
0.333333
 41
0.333333
  0
VERTEX
  8
0
 10
15.4181
 20
413.688
 30
0.0
 40
0.333333
 41
0.333333
  0
VERTEX
  8
0
 10
15.3026
 20
413.601
 30
0.0
 40
0.333333
 41
0.333333
  0
VERTEX
  8
0
 10
15.1789
 20
413.526
 30
0.0
 40
0.333333
 41
0.333333
  0
VERTEX
  8
0
 10
15.0478
 20
413.463
 30
0.0
 40
0.333333
 41
0.333333
  0
VERTEX
  8
0
 10
14.91
 20
413.412
 30
0.0
 40
0.333333
 41
0.333333
  0
VERTEX
  8
0
 10
14.7661
 20
413.375
 30
0.0
 40
0.333333
 41
0.333333
  0
VERTEX
  8
0
 10
14.6172
 20
413.353
 30
0.0
 40
0.333333
 41
0.333333
  0
VERTEX
  8
0
 10
14.5022
 20
413.344
 30
0.0
 40
0.333333
 41
0.333333
  0
VERTEX
  8
0
 10
14.4639
 20
413.344
 30
0.0
 40
0.333333
 41
0.333333
  0
VERTEX
  8
0
 10
14.4256
 20
413.344
 30
0.0
 40
0.333333
 41
0.333333
  0
VERTEX
  8
0
 10
14.3106
 20
413.353
 30
0.0
 40
0.333333
 41
0.333333
  0
VERTEX
  8
0
 10
14.1615
 20
413.375
 30
0.0
 40
0.333333
 41
0.333333
  0
VERTEX
  8
0
 10
14.0179
 20
413.412
 30
0.0
 40
0.333333
 41
0.333333
  0
VERTEX
  8
0
 10
13.88
 20
413.463
 30
0.0
 40
0.333333
 41
0.333333
  0
VERTEX
  8
0
 10
13.7489
 20
413.526
 30
0.0
 40
0.333333
 41
0.333333
  0
VERTEX
  8
0
 10
13.6252
 20
413.601
 30
0.0
 40
0.333333
 41
0.333333
  0
VERTEX
  8
0
 10
13.5098
 20
413.688
 30
0.0
 40
0.333333
 41
0.333333
  0
VERTEX
  8
0
 10
13.4032
 20
413.785
 30
0.0
 40
0.333333
 41
0.333333
  0
VERTEX
  8
0
 10
13.3064
 20
413.89
 30
0.0
 40
0.333333
 41
0.333333
  0
VERTEX
  8
0
 10
13.2201
 20
414.007
 30
0.0
 40
0.333333
 41
0.333333
  0
VERTEX
  8
0
 10
13.1449
 20
414.131
 30
0.0
 40
0.333333
 41
0.333333
  0
VERTEX
  8
0
 10
13.0818
 20
414.261
 30
0.0
 40
0.333333
 41
0.333333
  0
VERTEX
  8
0
 10
13.0313
 20
414.399
 30
0.0
 40
0.333333
 41
0.333333
  0
VERTEX
  8
0
 10
12.9944
 20
414.543
 30
0.0
 40
0.333333
 41
0.333333
  0
VERTEX
  8
0
 10
12.9716
 20
414.692
 30
0.0
 40
0.333333
 41
0.333333
  0
VERTEX
  8
0
 10
12.9639
 20
414.807
 30
0.0
 40
0.333333
 41
0.333333
  0
VERTEX
  8
0
 10
12.9639
 20
414.844
 30
0.0
 40
0.333333
 41
0.333333
  0
VERTEX
  8
0
 10
12.9639
 20
414.883
 30
0.0
 40
0.333333
 41
0.333333
  0
VERTEX
  8
0
 10
12.9716
 20
414.999
 30
0.0
 40
0.333333
 41
0.333333
  0
VERTEX
  8
0
 10
12.9944
 20
415.147
 30
0.0
 40
0.333333
 41
0.333333
  0
VERTEX
  8
0
 10
13.0313
 20
415.292
 30
0.0
 40
0.333333
 41
0.333333
  0
VERTEX
  8
0
 10
13.0818
 20
415.429
 30
0.0
 40
0.333333
 41
0.333333
  0
VERTEX
  8
0
 10
13.1449
 20
415.56
 30
0.0
 40
0.333333
 41
0.333333
  0
VERTEX
  8
0
 10
13.2201
 20
415.683
 30
0.0
 40
0.333333
 41
0.333333
  0
VERTEX
  8
0
 10
13.3064
 20
415.799
 30
0.0
 40
0.333333
 41
0.333333
  0
VERTEX
  8
0
 10
13.4032
 20
415.906
 30
0.0
 40
0.333333
 41
0.333333
  0
VERTEX
  8
0
 10
13.5098
 20
416.003
 30
0.0
 40
0.333333
 41
0.333333
  0
VERTEX
  8
0
 10
13.6252
 20
416.089
 30
0.0
 40
0.333333
 41
0.333333
  0
VERTEX
  8
0
 10
13.7489
 20
416.164
 30
0.0
 40
0.333333
 41
0.333333
  0
VERTEX
  8
0
 10
13.88
 20
416.228
 30
0.0
 40
0.333333
 41
0.333333
  0
VERTEX
  8
0
 10
14.0179
 20
416.278
 30
0.0
 40
0.333333
 41
0.333333
  0
VERTEX
  8
0
 10
14.1615
 20
416.315
 30
0.0
 40
0.333333
 41
0.333333
  0
VERTEX
  8
0
 10
14.3106
 20
416.338
 30
0.0
 40
0.333333
 41
0.333333
  0
VERTEX
  8
0
 10
14.4256
 20
416.344
 30
0.0
 40
0.333333
 41
0.333333
  0
VERTEX
  8
0
 10
14.4639
 20
416.344
 30
0.0
 40
0.333333
 41
0.333333
  0
VERTEX
  8
0
 10
14.5022
 20
416.344
 30
0.0
 40
0.333333
 41
0.333333
  0
VERTEX
  8
0
 10
14.6172
 20
416.338
 30
0.0
 40
0.333333
 41
0.333333
  0
VERTEX
  8
0
 10
14.7661
 20
416.315
 30
0.0
 40
0.333333
 41
0.333333
  0
VERTEX
  8
0
 10
14.91
 20
416.278
 30
0.0
 40
0.333333
 41
0.333333
  0
VERTEX
  8
0
 10
15.0478
 20
416.228
 30
0.0
 40
0.333333
 41
0.333333
  0
VERTEX
  8
0
 10
15.1789
 20
416.164
 30
0.0
 40
0.333333
 41
0.333333
  0
VERTEX
  8
0
 10
15.3026
 20
416.089
 30
0.0
 40
0.333333
 41
0.333333
  0
VERTEX
  8
0
 10
15.4181
 20
416.003
 30
0.0
 40
0.333333
 41
0.333333
  0
VERTEX
  8
0
 10
15.5246
 20
415.906
 30
0.0
 40
0.333333
 41
0.333333
  0
VERTEX
  8
0
 10
15.6214
 20
415.799
 30
0.0
 40
0.333333
 41
0.333333
  0
VERTEX
  8
0
 10
15.7078
 20
415.683
 30
0.0
 40
0.333333
 41
0.333333
  0
VERTEX
  8
0
 10
15.7828
 20
415.56
 30
0.0
 40
0.333333
 41
0.333333
  0
VERTEX
  8
0
 10
15.846
 20
415.429
 30
0.0
 40
0.333333
 41
0.333333
  0
VERTEX
  8
0
 10
15.8964
 20
415.292
 30
0.0
 40
0.333333
 41
0.333333
  0
VERTEX
  8
0
 10
15.9335
 20
415.147
 30
0.0
 40
0.333333
 41
0.333333
  0
VERTEX
  8
0
 10
15.9561
 20
414.999
 30
0.0
 40
0.333333
 41
0.333333
  0
VERTEX
  8
0
 10
15.9639
 20
414.883
 30
0.0
 40
0.333333
 41
0.333333
  0
VERTEX
  8
0
 10
15.9639
 20
414.844
 30
0.0
 40
0.333333
 41
0.333333
  0
SEQEND
 8
0
  0
POLYLINE
  8
0
 62
     0
 66
     1
 10
0
 20
0
 30
0.0
 70
     1
 40
24
 41
24
  0
VERTEX
  8
0
 10
12.7889
 20
273.24
 30
0.0
 40
0.333333
 41
0.333333
  0
VERTEX
  8
0
 10
12.7889
 20
273.201
 30
0.0
 40
0.333333
 41
0.333333
  0
VERTEX
  8
0
 10
12.7811
 20
273.086
 30
0.0
 40
0.333333
 41
0.333333
  0
VERTEX
  8
0
 10
12.7584
 20
272.938
 30
0.0
 40
0.333333
 41
0.333333
  0
VERTEX
  8
0
 10
12.7215
 20
272.794
 30
0.0
 40
0.333333
 41
0.333333
  0
VERTEX
  8
0
 10
12.671
 20
272.656
 30
0.0
 40
0.333333
 41
0.333333
  0
VERTEX
  8
0
 10
12.6079
 20
272.525
 30
0.0
 40
0.333333
 41
0.333333
  0
VERTEX
  8
0
 10
12.5327
 20
272.401
 30
0.0
 40
0.333333
 41
0.333333
  0
VERTEX
  8
0
 10
12.4463
 20
272.286
 30
0.0
 40
0.333333
 41
0.333333
  0
VERTEX
  8
0
 10
12.3496
 20
272.179
 30
0.0
 40
0.333333
 41
0.333333
  0
VERTEX
  8
0
 10
12.243
 20
272.082
 30
0.0
 40
0.333333
 41
0.333333
  0
VERTEX
  8
0
 10
12.1276
 20
271.996
 30
0.0
 40
0.333333
 41
0.333333
  0
VERTEX
  8
0
 10
12.0038
 20
271.921
 30
0.0
 40
0.333333
 41
0.333333
  0
VERTEX
  8
0
 10
11.8728
 20
271.858
 30
0.0
 40
0.333333
 41
0.333333
  0
VERTEX
  8
0
 10
11.7349
 20
271.807
 30
0.0
 40
0.333333
 41
0.333333
  0
VERTEX
  8
0
 10
11.5912
 20
271.771
 30
0.0
 40
0.333333
 41
0.333333
  0
VERTEX
  8
0
 10
11.4422
 20
271.747
 30
0.0
 40
0.333333
 41
0.333333
  0
VERTEX
  8
0
 10
11.3272
 20
271.74
 30
0.0
 40
0.333333
 41
0.333333
  0
VERTEX
  8
0
 10
11.2889
 20
271.74
 30
0.0
 40
0.333333
 41
0.333333
  0
VERTEX
  8
0
 10
11.2505
 20
271.74
 30
0.0
 40
0.333333
 41
0.333333
  0
VERTEX
  8
0
 10
11.1355
 20
271.747
 30
0.0
 40
0.333333
 41
0.333333
  0
VERTEX
  8
0
 10
10.9866
 20
271.771
 30
0.0
 40
0.333333
 41
0.333333
  0
VERTEX
  8
0
 10
10.8428
 20
271.807
 30
0.0
 40
0.333333
 41
0.333333
  0
VERTEX
  8
0
 10
10.705
 20
271.858
 30
0.0
 40
0.333333
 41
0.333333
  0
VERTEX
  8
0
 10
10.5739
 20
271.921
 30
0.0
 40
0.333333
 41
0.333333
  0
VERTEX
  8
0
 10
10.4502
 20
271.996
 30
0.0
 40
0.333333
 41
0.333333
  0
VERTEX
  8
0
 10
10.3347
 20
272.082
 30
0.0
 40
0.333333
 41
0.333333
  0
VERTEX
  8
0
 10
10.2283
 20
272.179
 30
0.0
 40
0.333333
 41
0.333333
  0
VERTEX
  8
0
 10
10.1314
 20
272.286
 30
0.0
 40
0.333333
 41
0.333333
  0
VERTEX
  8
0
 10
10.045
 20
272.401
 30
0.0
 40
0.333333
 41
0.333333
  0
VERTEX
  8
0
 10
9.96994
 20
272.525
 30
0.0
 40
0.333333
 41
0.333333
  0
VERTEX
  8
0
 10
9.90674
 20
272.656
 30
0.0
 40
0.333333
 41
0.333333
  0
VERTEX
  8
0
 10
9.85633
 20
272.794
 30
0.0
 40
0.333333
 41
0.333333
  0
VERTEX
  8
0
 10
9.81933
 20
272.938
 30
0.0
 40
0.333333
 41
0.333333
  0
VERTEX
  8
0
 10
9.7966
 20
273.086
 30
0.0
 40
0.333333
 41
0.333333
  0
VERTEX
  8
0
 10
9.7889
 20
273.201
 30
0.0
 40
0.333333
 41
0.333333
  0
VERTEX
  8
0
 10
9.7889
 20
273.24
 30
0.0
 40
0.333333
 41
0.333333
  0
VERTEX
  8
0
 10
9.7889
 20
273.278
 30
0.0
 40
0.333333
 41
0.333333
  0
VERTEX
  8
0
 10
9.7966
 20
273.393
 30
0.0
 40
0.333333
 41
0.333333
  0
VERTEX
  8
0
 10
9.81933
 20
273.542
 30
0.0
 40
0.333333
 41
0.333333
  0
VERTEX
  8
0
 10
9.85633
 20
273.686
 30
0.0
 40
0.333333
 41
0.333333
  0
VERTEX
  8
0
 10
9.90674
 20
273.824
 30
0.0
 40
0.333333
 41
0.333333
  0
VERTEX
  8
0
 10
9.96994
 20
273.956
 30
0.0
 40
0.333333
 41
0.333333
  0
VERTEX
  8
0
 10
10.045
 20
274.079
 30
0.0
 40
0.333333
 41
0.333333
  0
VERTEX
  8
0
 10
10.1314
 20
274.194
 30
0.0
 40
0.333333
 41
0.333333
  0
VERTEX
  8
0
 10
10.2283
 20
274.3
 30
0.0
 40
0.333333
 41
0.333333
  0
VERTEX
  8
0
 10
10.3347
 20
274.397
 30
0.0
 40
0.333333
 41
0.333333
  0
VERTEX
  8
0
 10
10.4502
 20
274.483
 30
0.0
 40
0.333333
 41
0.333333
  0
VERTEX
  8
0
 10
10.5739
 20
274.558
 30
0.0
 40
0.333333
 41
0.333333
  0
VERTEX
  8
0
 10
10.705
 20
274.622
 30
0.0
 40
0.333333
 41
0.333333
  0
VERTEX
  8
0
 10
10.8428
 20
274.672
 30
0.0
 40
0.333333
 41
0.333333
  0
VERTEX
  8
0
 10
10.9866
 20
274.71
 30
0.0
 40
0.333333
 41
0.333333
  0
VERTEX
  8
0
 10
11.1355
 20
274.732
 30
0.0
 40
0.333333
 41
0.333333
  0
VERTEX
  8
0
 10
11.2505
 20
274.74
 30
0.0
 40
0.333333
 41
0.333333
  0
VERTEX
  8
0
 10
11.2889
 20
274.74
 30
0.0
 40
0.333333
 41
0.333333
  0
VERTEX
  8
0
 10
11.3272
 20
274.74
 30
0.0
 40
0.333333
 41
0.333333
  0
VERTEX
  8
0
 10
11.4422
 20
274.732
 30
0.0
 40
0.333333
 41
0.333333
  0
VERTEX
  8
0
 10
11.5912
 20
274.71
 30
0.0
 40
0.333333
 41
0.333333
  0
VERTEX
  8
0
 10
11.7349
 20
274.672
 30
0.0
 40
0.333333
 41
0.333333
  0
VERTEX
  8
0
 10
11.8728
 20
274.622
 30
0.0
 40
0.333333
 41
0.333333
  0
VERTEX
  8
0
 10
12.0038
 20
274.558
 30
0.0
 40
0.333333
 41
0.333333
  0
VERTEX
  8
0
 10
12.1276
 20
274.483
 30
0.0
 40
0.333333
 41
0.333333
  0
VERTEX
  8
0
 10
12.243
 20
274.397
 30
0.0
 40
0.333333
 41
0.333333
  0
VERTEX
  8
0
 10
12.3496
 20
274.3
 30
0.0
 40
0.333333
 41
0.333333
  0
VERTEX
  8
0
 10
12.4463
 20
274.194
 30
0.0
 40
0.333333
 41
0.333333
  0
VERTEX
  8
0
 10
12.5327
 20
274.079
 30
0.0
 40
0.333333
 41
0.333333
  0
VERTEX
  8
0
 10
12.6079
 20
273.956
 30
0.0
 40
0.333333
 41
0.333333
  0
VERTEX
  8
0
 10
12.671
 20
273.824
 30
0.0
 40
0.333333
 41
0.333333
  0
VERTEX
  8
0
 10
12.7215
 20
273.686
 30
0.0
 40
0.333333
 41
0.333333
  0
VERTEX
  8
0
 10
12.7584
 20
273.542
 30
0.0
 40
0.333333
 41
0.333333
  0
VERTEX
  8
0
 10
12.7811
 20
273.393
 30
0.0
 40
0.333333
 41
0.333333
  0
VERTEX
  8
0
 10
12.7889
 20
273.278
 30
0.0
 40
0.333333
 41
0.333333
  0
VERTEX
  8
0
 10
12.7889
 20
273.24
 30
0.0
 40
0.333333
 41
0.333333
  0
SEQEND
 8
0
  0
POLYLINE
  8
0
 62
     0
 66
     1
 10
0
 20
0
 30
0.0
 70
     1
 40
24
 41
24
  0
VERTEX
  8
0
 10
461.354
 20
273.24
 30
0.0
 40
0.333333
 41
0.333333
  0
VERTEX
  8
0
 10
461.354
 20
273.201
 30
0.0
 40
0.333333
 41
0.333333
  0
VERTEX
  8
0
 10
461.346
 20
273.086
 30
0.0
 40
0.333333
 41
0.333333
  0
VERTEX
  8
0
 10
461.324
 20
272.938
 30
0.0
 40
0.333333
 41
0.333333
  0
VERTEX
  8
0
 10
461.286
 20
272.794
 30
0.0
 40
0.333333
 41
0.333333
  0
VERTEX
  8
0
 10
461.236
 20
272.656
 30
0.0
 40
0.333333
 41
0.333333
  0
VERTEX
  8
0
 10
461.172
 20
272.525
 30
0.0
 40
0.333333
 41
0.333333
  0
VERTEX
  8
0
 10
461.097
 20
272.401
 30
0.0
 40
0.333333
 41
0.333333
  0
VERTEX
  8
0
 10
461.011
 20
272.286
 30
0.0
 40
0.333333
 41
0.333333
  0
VERTEX
  8
0
 10
460.914
 20
272.179
 30
0.0
 40
0.333333
 41
0.333333
  0
VERTEX
  8
0
 10
460.808
 20
272.082
 30
0.0
 40
0.333333
 41
0.333333
  0
VERTEX
  8
0
 10
460.692
 20
271.996
 30
0.0
 40
0.333333
 41
0.333333
  0
VERTEX
  8
0
 10
460.568
 20
271.921
 30
0.0
 40
0.333333
 41
0.333333
  0
VERTEX
  8
0
 10
460.438
 20
271.858
 30
0.0
 40
0.333333
 41
0.333333
  0
VERTEX
  8
0
 10
460.3
 20
271.807
 30
0.0
 40
0.333333
 41
0.333333
  0
VERTEX
  8
0
 10
460.156
 20
271.771
 30
0.0
 40
0.333333
 41
0.333333
  0
VERTEX
  8
0
 10
460.007
 20
271.747
 30
0.0
 40
0.333333
 41
0.333333
  0
VERTEX
  8
0
 10
459.892
 20
271.74
 30
0.0
 40
0.333333
 41
0.333333
  0
VERTEX
  8
0
 10
459.854
 20
271.74
 30
0.0
 40
0.333333
 41
0.333333
  0
VERTEX
  8
0
 10
459.815
 20
271.74
 30
0.0
 40
0.333333
 41
0.333333
  0
VERTEX
  8
0
 10
459.7
 20
271.747
 30
0.0
 40
0.333333
 41
0.333333
  0
VERTEX
  8
0
 10
459.551
 20
271.771
 30
0.0
 40
0.333333
 41
0.333333
  0
VERTEX
  8
0
 10
459.407
 20
271.807
 30
0.0
 40
0.333333
 41
0.333333
  0
VERTEX
  8
0
 10
459.269
 20
271.858
 30
0.0
 40
0.333333
 41
0.333333
  0
VERTEX
  8
0
 10
459.139
 20
271.921
 30
0.0
 40
0.333333
 41
0.333333
  0
VERTEX
  8
0
 10
459.015
 20
271.996
 30
0.0
 40
0.333333
 41
0.333333
  0
VERTEX
  8
0
 10
458.9
 20
272.082
 30
0.0
 40
0.333333
 41
0.333333
  0
VERTEX
  8
0
 10
458.793
 20
272.179
 30
0.0
 40
0.333333
 41
0.333333
  0
VERTEX
  8
0
 10
458.696
 20
272.286
 30
0.0
 40
0.333333
 41
0.333333
  0
VERTEX
  8
0
 10
458.61
 20
272.401
 30
0.0
 40
0.333333
 41
0.333333
  0
VERTEX
  8
0
 10
458.535
 20
272.525
 30
0.0
 40
0.333333
 41
0.333333
  0
VERTEX
  8
0
 10
458.471
 20
272.656
 30
0.0
 40
0.333333
 41
0.333333
  0
VERTEX
  8
0
 10
458.421
 20
272.794
 30
0.0
 40
0.333333
 41
0.333333
  0
VERTEX
  8
0
 10
458.383
 20
272.938
 30
0.0
 40
0.333333
 41
0.333333
  0
VERTEX
  8
0
 10
458.361
 20
273.086
 30
0.0
 40
0.333333
 41
0.333333
  0
VERTEX
  8
0
 10
458.354
 20
273.201
 30
0.0
 40
0.333333
 41
0.333333
  0
VERTEX
  8
0
 10
458.354
 20
273.24
 30
0.0
 40
0.333333
 41
0.333333
  0
VERTEX
  8
0
 10
458.354
 20
273.278
 30
0.0
 40
0.333333
 41
0.333333
  0
VERTEX
  8
0
 10
458.361
 20
273.393
 30
0.0
 40
0.333333
 41
0.333333
  0
VERTEX
  8
0
 10
458.383
 20
273.542
 30
0.0
 40
0.333333
 41
0.333333
  0
VERTEX
  8
0
 10
458.421
 20
273.686
 30
0.0
 40
0.333333
 41
0.333333
  0
VERTEX
  8
0
 10
458.471
 20
273.824
 30
0.0
 40
0.333333
 41
0.333333
  0
VERTEX
  8
0
 10
458.535
 20
273.956
 30
0.0
 40
0.333333
 41
0.333333
  0
VERTEX
  8
0
 10
458.61
 20
274.079
 30
0.0
 40
0.333333
 41
0.333333
  0
VERTEX
  8
0
 10
458.696
 20
274.194
 30
0.0
 40
0.333333
 41
0.333333
  0
VERTEX
  8
0
 10
458.793
 20
274.3
 30
0.0
 40
0.333333
 41
0.333333
  0
VERTEX
  8
0
 10
458.9
 20
274.397
 30
0.0
 40
0.333333
 41
0.333333
  0
VERTEX
  8
0
 10
459.015
 20
274.483
 30
0.0
 40
0.333333
 41
0.333333
  0
VERTEX
  8
0
 10
459.139
 20
274.558
 30
0.0
 40
0.333333
 41
0.333333
  0
VERTEX
  8
0
 10
459.269
 20
274.622
 30
0.0
 40
0.333333
 41
0.333333
  0
VERTEX
  8
0
 10
459.407
 20
274.672
 30
0.0
 40
0.333333
 41
0.333333
  0
VERTEX
  8
0
 10
459.551
 20
274.71
 30
0.0
 40
0.333333
 41
0.333333
  0
VERTEX
  8
0
 10
459.7
 20
274.732
 30
0.0
 40
0.333333
 41
0.333333
  0
VERTEX
  8
0
 10
459.815
 20
274.74
 30
0.0
 40
0.333333
 41
0.333333
  0
VERTEX
  8
0
 10
459.854
 20
274.74
 30
0.0
 40
0.333333
 41
0.333333
  0
VERTEX
  8
0
 10
459.892
 20
274.74
 30
0.0
 40
0.333333
 41
0.333333
  0
VERTEX
  8
0
 10
460.007
 20
274.732
 30
0.0
 40
0.333333
 41
0.333333
  0
VERTEX
  8
0
 10
460.156
 20
274.71
 30
0.0
 40
0.333333
 41
0.333333
  0
VERTEX
  8
0
 10
460.3
 20
274.672
 30
0.0
 40
0.333333
 41
0.333333
  0
VERTEX
  8
0
 10
460.438
 20
274.622
 30
0.0
 40
0.333333
 41
0.333333
  0
VERTEX
  8
0
 10
460.568
 20
274.558
 30
0.0
 40
0.333333
 41
0.333333
  0
VERTEX
  8
0
 10
460.692
 20
274.483
 30
0.0
 40
0.333333
 41
0.333333
  0
VERTEX
  8
0
 10
460.808
 20
274.397
 30
0.0
 40
0.333333
 41
0.333333
  0
VERTEX
  8
0
 10
460.914
 20
274.3
 30
0.0
 40
0.333333
 41
0.333333
  0
VERTEX
  8
0
 10
461.011
 20
274.194
 30
0.0
 40
0.333333
 41
0.333333
  0
VERTEX
  8
0
 10
461.097
 20
274.079
 30
0.0
 40
0.333333
 41
0.333333
  0
VERTEX
  8
0
 10
461.172
 20
273.956
 30
0.0
 40
0.333333
 41
0.333333
  0
VERTEX
  8
0
 10
461.236
 20
273.824
 30
0.0
 40
0.333333
 41
0.333333
  0
VERTEX
  8
0
 10
461.286
 20
273.686
 30
0.0
 40
0.333333
 41
0.333333
  0
VERTEX
  8
0
 10
461.324
 20
273.542
 30
0.0
 40
0.333333
 41
0.333333
  0
VERTEX
  8
0
 10
461.346
 20
273.393
 30
0.0
 40
0.333333
 41
0.333333
  0
VERTEX
  8
0
 10
461.354
 20
273.278
 30
0.0
 40
0.333333
 41
0.333333
  0
VERTEX
  8
0
 10
461.354
 20
273.24
 30
0.0
 40
0.333333
 41
0.333333
  0
SEQEND
 8
0
  0
POLYLINE
  8
0
 62
     0
 66
     1
 10
0
 20
0
 30
0.0
 70
     1
 40
24
 41
24
  0
VERTEX
  8
0
 10
458.179
 20
160.083
 30
0.0
 40
0.333333
 41
0.333333
  0
VERTEX
  8
0
 10
458.179
 20
160.044
 30
0.0
 40
0.333333
 41
0.333333
  0
VERTEX
  8
0
 10
458.171
 20
159.929
 30
0.0
 40
0.333333
 41
0.333333
  0
VERTEX
  8
0
 10
458.149
 20
159.781
 30
0.0
 40
0.333333
 41
0.333333
  0
VERTEX
  8
0
 10
458.111
 20
159.636
 30
0.0
 40
0.333333
 41
0.333333
  0
VERTEX
  8
0
 10
458.061
 20
159.499
 30
0.0
 40
0.333333
 41
0.333333
  0
VERTEX
  8
0
 10
457.997
 20
159.368
 30
0.0
 40
0.333333
 41
0.333333
  0
VERTEX
  8
0
 10
457.922
 20
159.244
 30
0.0
 40
0.333333
 41
0.333333
  0
VERTEX
  8
0
 10
457.836
 20
159.129
 30
0.0
 40
0.333333
 41
0.333333
  0
VERTEX
  8
0
 10
457.739
 20
159.022
 30
0.0
 40
0.333333
 41
0.333333
  0
VERTEX
  8
0
 10
457.633
 20
158.925
 30
0.0
 40
0.333333
 41
0.333333
  0
VERTEX
  8
0
 10
457.517
 20
158.839
 30
0.0
 40
0.333333
 41
0.333333
  0
VERTEX
  8
0
 10
457.393
 20
158.764
 30
0.0
 40
0.333333
 41
0.333333
  0
VERTEX
  8
0
 10
457.262
 20
158.7
 30
0.0
 40
0.333333
 41
0.333333
  0
VERTEX
  8
0
 10
457.125
 20
158.65
 30
0.0
 40
0.333333
 41
0.333333
  0
VERTEX
  8
0
 10
456.981
 20
158.612
 30
0.0
 40
0.333333
 41
0.333333
  0
VERTEX
  8
0
 10
456.832
 20
158.59
 30
0.0
 40
0.333333
 41
0.333333
  0
VERTEX
  8
0
 10
456.717
 20
158.583
 30
0.0
 40
0.333333
 41
0.333333
  0
VERTEX
  8
0
 10
456.679
 20
158.583
 30
0.0
 40
0.333333
 41
0.333333
  0
VERTEX
  8
0
 10
456.64
 20
158.583
 30
0.0
 40
0.333333
 41
0.333333
  0
VERTEX
  8
0
 10
456.525
 20
158.59
 30
0.0
 40
0.333333
 41
0.333333
  0
VERTEX
  8
0
 10
456.376
 20
158.612
 30
0.0
 40
0.333333
 41
0.333333
  0
VERTEX
  8
0
 10
456.232
 20
158.65
 30
0.0
 40
0.333333
 41
0.333333
  0
VERTEX
  8
0
 10
456.094
 20
158.7
 30
0.0
 40
0.333333
 41
0.333333
  0
VERTEX
  8
0
 10
455.964
 20
158.764
 30
0.0
 40
0.333333
 41
0.333333
  0
VERTEX
  8
0
 10
455.84
 20
158.839
 30
0.0
 40
0.333333
 41
0.333333
  0
VERTEX
  8
0
 10
455.725
 20
158.925
 30
0.0
 40
0.333333
 41
0.333333
  0
VERTEX
  8
0
 10
455.618
 20
159.022
 30
0.0
 40
0.333333
 41
0.333333
  0
VERTEX
  8
0
 10
455.521
 20
159.129
 30
0.0
 40
0.333333
 41
0.333333
  0
VERTEX
  8
0
 10
455.435
 20
159.244
 30
0.0
 40
0.333333
 41
0.333333
  0
VERTEX
  8
0
 10
455.36
 20
159.368
 30
0.0
 40
0.333333
 41
0.333333
  0
VERTEX
  8
0
 10
455.296
 20
159.499
 30
0.0
 40
0.333333
 41
0.333333
  0
VERTEX
  8
0
 10
455.246
 20
159.636
 30
0.0
 40
0.333333
 41
0.333333
  0
VERTEX
  8
0
 10
455.21
 20
159.781
 30
0.0
 40
0.333333
 41
0.333333
  0
VERTEX
  8
0
 10
455.186
 20
159.929
 30
0.0
 40
0.333333
 41
0.333333
  0
VERTEX
  8
0
 10
455.179
 20
160.044
 30
0.0
 40
0.333333
 41
0.333333
  0
VERTEX
  8
0
 10
455.179
 20
160.083
 30
0.0
 40
0.333333
 41
0.333333
  0
VERTEX
  8
0
 10
455.179
 20
160.121
 30
0.0
 40
0.333333
 41
0.333333
  0
VERTEX
  8
0
 10
455.186
 20
160.236
 30
0.0
 40
0.333333
 41
0.333333
  0
VERTEX
  8
0
 10
455.21
 20
160.385
 30
0.0
 40
0.333333
 41
0.333333
  0
VERTEX
  8
0
 10
455.246
 20
160.529
 30
0.0
 40
0.333333
 41
0.333333
  0
VERTEX
  8
0
 10
455.296
 20
160.667
 30
0.0
 40
0.333333
 41
0.333333
  0
VERTEX
  8
0
 10
455.36
 20
160.797
 30
0.0
 40
0.333333
 41
0.333333
  0
VERTEX
  8
0
 10
455.435
 20
160.921
 30
0.0
 40
0.333333
 41
0.333333
  0
VERTEX
  8
0
 10
455.521
 20
161.038
 30
0.0
 40
0.333333
 41
0.333333
  0
VERTEX
  8
0
 10
455.618
 20
161.143
 30
0.0
 40
0.333333
 41
0.333333
  0
VERTEX
  8
0
 10
455.725
 20
161.24
 30
0.0
 40
0.333333
 41
0.333333
  0
VERTEX
  8
0
 10
455.84
 20
161.326
 30
0.0
 40
0.333333
 41
0.333333
  0
VERTEX
  8
0
 10
455.964
 20
161.401
 30
0.0
 40
0.333333
 41
0.333333
  0
VERTEX
  8
0
 10
456.094
 20
161.465
 30
0.0
 40
0.333333
 41
0.333333
  0
VERTEX
  8
0
 10
456.232
 20
161.515
 30
0.0
 40
0.333333
 41
0.333333
  0
VERTEX
  8
0
 10
456.376
 20
161.553
 30
0.0
 40
0.333333
 41
0.333333
  0
VERTEX
  8
0
 10
456.525
 20
161.575
 30
0.0
 40
0.333333
 41
0.333333
  0
VERTEX
  8
0
 10
456.64
 20
161.583
 30
0.0
 40
0.333333
 41
0.333333
  0
VERTEX
  8
0
 10
456.679
 20
161.583
 30
0.0
 40
0.333333
 41
0.333333
  0
VERTEX
  8
0
 10
456.717
 20
161.583
 30
0.0
 40
0.333333
 41
0.333333
  0
VERTEX
  8
0
 10
456.832
 20
161.575
 30
0.0
 40
0.333333
 41
0.333333
  0
VERTEX
  8
0
 10
456.981
 20
161.553
 30
0.0
 40
0.333333
 41
0.333333
  0
VERTEX
  8
0
 10
457.125
 20
161.515
 30
0.0
 40
0.333333
 41
0.333333
  0
VERTEX
  8
0
 10
457.262
 20
161.465
 30
0.0
 40
0.333333
 41
0.333333
  0
VERTEX
  8
0
 10
457.393
 20
161.401
 30
0.0
 40
0.333333
 41
0.333333
  0
VERTEX
  8
0
 10
457.517
 20
161.326
 30
0.0
 40
0.333333
 41
0.333333
  0
VERTEX
  8
0
 10
457.633
 20
161.24
 30
0.0
 40
0.333333
 41
0.333333
  0
VERTEX
  8
0
 10
457.739
 20
161.143
 30
0.0
 40
0.333333
 41
0.333333
  0
VERTEX
  8
0
 10
457.836
 20
161.038
 30
0.0
 40
0.333333
 41
0.333333
  0
VERTEX
  8
0
 10
457.922
 20
160.921
 30
0.0
 40
0.333333
 41
0.333333
  0
VERTEX
  8
0
 10
457.997
 20
160.797
 30
0.0
 40
0.333333
 41
0.333333
  0
VERTEX
  8
0
 10
458.061
 20
160.667
 30
0.0
 40
0.333333
 41
0.333333
  0
VERTEX
  8
0
 10
458.111
 20
160.529
 30
0.0
 40
0.333333
 41
0.333333
  0
VERTEX
  8
0
 10
458.149
 20
160.385
 30
0.0
 40
0.333333
 41
0.333333
  0
VERTEX
  8
0
 10
458.171
 20
160.236
 30
0.0
 40
0.333333
 41
0.333333
  0
VERTEX
  8
0
 10
458.179
 20
160.121
 30
0.0
 40
0.333333
 41
0.333333
  0
VERTEX
  8
0
 10
458.179
 20
160.083
 30
0.0
 40
0.333333
 41
0.333333
  0
SEQEND
 8
0
  0
POLYLINE
  8
0
 62
     0
 66
     1
 10
0
 20
0
 30
0.0
 70
     1
 40
24
 41
24
  0
VERTEX
  8
0
 10
15.9639
 20
160.083
 30
0.0
 40
0.333333
 41
0.333333
  0
VERTEX
  8
0
 10
15.9639
 20
160.044
 30
0.0
 40
0.333333
 41
0.333333
  0
VERTEX
  8
0
 10
15.9561
 20
159.929
 30
0.0
 40
0.333333
 41
0.333333
  0
VERTEX
  8
0
 10
15.9335
 20
159.781
 30
0.0
 40
0.333333
 41
0.333333
  0
VERTEX
  8
0
 10
15.8964
 20
159.636
 30
0.0
 40
0.333333
 41
0.333333
  0
VERTEX
  8
0
 10
15.846
 20
159.499
 30
0.0
 40
0.333333
 41
0.333333
  0
VERTEX
  8
0
 10
15.7828
 20
159.368
 30
0.0
 40
0.333333
 41
0.333333
  0
VERTEX
  8
0
 10
15.7078
 20
159.244
 30
0.0
 40
0.333333
 41
0.333333
  0
VERTEX
  8
0
 10
15.6214
 20
159.129
 30
0.0
 40
0.333333
 41
0.333333
  0
VERTEX
  8
0
 10
15.5246
 20
159.022
 30
0.0
 40
0.333333
 41
0.333333
  0
VERTEX
  8
0
 10
15.4181
 20
158.925
 30
0.0
 40
0.333333
 41
0.333333
  0
VERTEX
  8
0
 10
15.3026
 20
158.839
 30
0.0
 40
0.333333
 41
0.333333
  0
VERTEX
  8
0
 10
15.1789
 20
158.764
 30
0.0
 40
0.333333
 41
0.333333
  0
VERTEX
  8
0
 10
15.0478
 20
158.7
 30
0.0
 40
0.333333
 41
0.333333
  0
VERTEX
  8
0
 10
14.91
 20
158.65
 30
0.0
 40
0.333333
 41
0.333333
  0
VERTEX
  8
0
 10
14.7661
 20
158.612
 30
0.0
 40
0.333333
 41
0.333333
  0
VERTEX
  8
0
 10
14.6172
 20
158.59
 30
0.0
 40
0.333333
 41
0.333333
  0
VERTEX
  8
0
 10
14.5022
 20
158.583
 30
0.0
 40
0.333333
 41
0.333333
  0
VERTEX
  8
0
 10
14.4639
 20
158.583
 30
0.0
 40
0.333333
 41
0.333333
  0
VERTEX
  8
0
 10
14.4256
 20
158.583
 30
0.0
 40
0.333333
 41
0.333333
  0
VERTEX
  8
0
 10
14.3106
 20
158.59
 30
0.0
 40
0.333333
 41
0.333333
  0
VERTEX
  8
0
 10
14.1615
 20
158.612
 30
0.0
 40
0.333333
 41
0.333333
  0
VERTEX
  8
0
 10
14.0179
 20
158.65
 30
0.0
 40
0.333333
 41
0.333333
  0
VERTEX
  8
0
 10
13.88
 20
158.7
 30
0.0
 40
0.333333
 41
0.333333
  0
VERTEX
  8
0
 10
13.7489
 20
158.764
 30
0.0
 40
0.333333
 41
0.333333
  0
VERTEX
  8
0
 10
13.6252
 20
158.839
 30
0.0
 40
0.333333
 41
0.333333
  0
VERTEX
  8
0
 10
13.5098
 20
158.925
 30
0.0
 40
0.333333
 41
0.333333
  0
VERTEX
  8
0
 10
13.4032
 20
159.022
 30
0.0
 40
0.333333
 41
0.333333
  0
VERTEX
  8
0
 10
13.3064
 20
159.129
 30
0.0
 40
0.333333
 41
0.333333
  0
VERTEX
  8
0
 10
13.2201
 20
159.244
 30
0.0
 40
0.333333
 41
0.333333
  0
VERTEX
  8
0
 10
13.1449
 20
159.368
 30
0.0
 40
0.333333
 41
0.333333
  0
VERTEX
  8
0
 10
13.0818
 20
159.499
 30
0.0
 40
0.333333
 41
0.333333
  0
VERTEX
  8
0
 10
13.0313
 20
159.636
 30
0.0
 40
0.333333
 41
0.333333
  0
VERTEX
  8
0
 10
12.9944
 20
159.781
 30
0.0
 40
0.333333
 41
0.333333
  0
VERTEX
  8
0
 10
12.9716
 20
159.929
 30
0.0
 40
0.333333
 41
0.333333
  0
VERTEX
  8
0
 10
12.9639
 20
160.044
 30
0.0
 40
0.333333
 41
0.333333
  0
VERTEX
  8
0
 10
12.9639
 20
160.083
 30
0.0
 40
0.333333
 41
0.333333
  0
VERTEX
  8
0
 10
12.9639
 20
160.121
 30
0.0
 40
0.333333
 41
0.333333
  0
VERTEX
  8
0
 10
12.9716
 20
160.236
 30
0.0
 40
0.333333
 41
0.333333
  0
VERTEX
  8
0
 10
12.9944
 20
160.385
 30
0.0
 40
0.333333
 41
0.333333
  0
VERTEX
  8
0
 10
13.0313
 20
160.529
 30
0.0
 40
0.333333
 41
0.333333
  0
VERTEX
  8
0
 10
13.0818
 20
160.667
 30
0.0
 40
0.333333
 41
0.333333
  0
VERTEX
  8
0
 10
13.1449
 20
160.797
 30
0.0
 40
0.333333
 41
0.333333
  0
VERTEX
  8
0
 10
13.2201
 20
160.921
 30
0.0
 40
0.333333
 41
0.333333
  0
VERTEX
  8
0
 10
13.3064
 20
161.038
 30
0.0
 40
0.333333
 41
0.333333
  0
VERTEX
  8
0
 10
13.4032
 20
161.143
 30
0.0
 40
0.333333
 41
0.333333
  0
VERTEX
  8
0
 10
13.5098
 20
161.24
 30
0.0
 40
0.333333
 41
0.333333
  0
VERTEX
  8
0
 10
13.6252
 20
161.326
 30
0.0
 40
0.333333
 41
0.333333
  0
VERTEX
  8
0
 10
13.7489
 20
161.401
 30
0.0
 40
0.333333
 41
0.333333
  0
VERTEX
  8
0
 10
13.88
 20
161.465
 30
0.0
 40
0.333333
 41
0.333333
  0
VERTEX
  8
0
 10
14.0179
 20
161.515
 30
0.0
 40
0.333333
 41
0.333333
  0
VERTEX
  8
0
 10
14.1615
 20
161.553
 30
0.0
 40
0.333333
 41
0.333333
  0
VERTEX
  8
0
 10
14.3106
 20
161.575
 30
0.0
 40
0.333333
 41
0.333333
  0
VERTEX
  8
0
 10
14.4256
 20
161.583
 30
0.0
 40
0.333333
 41
0.333333
  0
VERTEX
  8
0
 10
14.4639
 20
161.583
 30
0.0
 40
0.333333
 41
0.333333
  0
VERTEX
  8
0
 10
14.5022
 20
161.583
 30
0.0
 40
0.333333
 41
0.333333
  0
VERTEX
  8
0
 10
14.6172
 20
161.575
 30
0.0
 40
0.333333
 41
0.333333
  0
VERTEX
  8
0
 10
14.7661
 20
161.553
 30
0.0
 40
0.333333
 41
0.333333
  0
VERTEX
  8
0
 10
14.91
 20
161.515
 30
0.0
 40
0.333333
 41
0.333333
  0
VERTEX
  8
0
 10
15.0478
 20
161.465
 30
0.0
 40
0.333333
 41
0.333333
  0
VERTEX
  8
0
 10
15.1789
 20
161.401
 30
0.0
 40
0.333333
 41
0.333333
  0
VERTEX
  8
0
 10
15.3026
 20
161.326
 30
0.0
 40
0.333333
 41
0.333333
  0
VERTEX
  8
0
 10
15.4181
 20
161.24
 30
0.0
 40
0.333333
 41
0.333333
  0
VERTEX
  8
0
 10
15.5246
 20
161.143
 30
0.0
 40
0.333333
 41
0.333333
  0
VERTEX
  8
0
 10
15.6214
 20
161.038
 30
0.0
 40
0.333333
 41
0.333333
  0
VERTEX
  8
0
 10
15.7078
 20
160.921
 30
0.0
 40
0.333333
 41
0.333333
  0
VERTEX
  8
0
 10
15.7828
 20
160.797
 30
0.0
 40
0.333333
 41
0.333333
  0
VERTEX
  8
0
 10
15.846
 20
160.667
 30
0.0
 40
0.333333
 41
0.333333
  0
VERTEX
  8
0
 10
15.8964
 20
160.529
 30
0.0
 40
0.333333
 41
0.333333
  0
VERTEX
  8
0
 10
15.9335
 20
160.385
 30
0.0
 40
0.333333
 41
0.333333
  0
VERTEX
  8
0
 10
15.9561
 20
160.236
 30
0.0
 40
0.333333
 41
0.333333
  0
VERTEX
  8
0
 10
15.9639
 20
160.121
 30
0.0
 40
0.333333
 41
0.333333
  0
VERTEX
  8
0
 10
15.9639
 20
160.083
 30
0.0
 40
0.333333
 41
0.333333
  0
SEQEND
 8
0
  0
POLYLINE
  8
0
 62
     0
 66
     1
 10
0
 20
0
 30
0.0
 70
     1
 40
24
 41
24
  0
VERTEX
  8
0
 10
15.9639
 20
144.335
 30
0.0
 40
0.333333
 41
0.333333
  0
VERTEX
  8
0
 10
15.9639
 20
144.296
 30
0.0
 40
0.333333
 41
0.333333
  0
VERTEX
  8
0
 10
15.9561
 20
144.182
 30
0.0
 40
0.333333
 41
0.333333
  0
VERTEX
  8
0
 10
15.9335
 20
144.032
 30
0.0
 40
0.333333
 41
0.333333
  0
VERTEX
  8
0
 10
15.8964
 20
143.889
 30
0.0
 40
0.333333
 41
0.333333
  0
VERTEX
  8
0
 10
15.846
 20
143.751
 30
0.0
 40
0.333333
 41
0.333333
  0
VERTEX
  8
0
 10
15.7828
 20
143.619
 30
0.0
 40
0.333333
 41
0.333333
  0
VERTEX
  8
0
 10
15.7078
 20
143.496
 30
0.0
 40
0.333333
 41
0.333333
  0
VERTEX
  8
0
 10
15.6214
 20
143.381
 30
0.0
 40
0.333333
 41
0.333333
  0
VERTEX
  8
0
 10
15.5246
 20
143.274
 30
0.0
 40
0.333333
 41
0.333333
  0
VERTEX
  8
0
 10
15.4181
 20
143.178
 30
0.0
 40
0.333333
 41
0.333333
  0
VERTEX
  8
0
 10
15.3026
 20
143.09
 30
0.0
 40
0.333333
 41
0.333333
  0
VERTEX
  8
0
 10
15.1789
 20
143.015
 30
0.0
 40
0.333333
 41
0.333333
  0
VERTEX
  8
0
 10
15.0478
 20
142.953
 30
0.0
 40
0.333333
 41
0.333333
  0
VERTEX
  8
0
 10
14.91
 20
142.901
 30
0.0
 40
0.333333
 41
0.333333
  0
VERTEX
  8
0
 10
14.7661
 20
142.865
 30
0.0
 40
0.333333
 41
0.333333
  0
VERTEX
  8
0
 10
14.6172
 20
142.843
 30
0.0
 40
0.333333
 41
0.333333
  0
VERTEX
  8
0
 10
14.5022
 20
142.835
 30
0.0
 40
0.333333
 41
0.333333
  0
VERTEX
  8
0
 10
14.4639
 20
142.835
 30
0.0
 40
0.333333
 41
0.333333
  0
VERTEX
  8
0
 10
14.4256
 20
142.835
 30
0.0
 40
0.333333
 41
0.333333
  0
VERTEX
  8
0
 10
14.3106
 20
142.843
 30
0.0
 40
0.333333
 41
0.333333
  0
VERTEX
  8
0
 10
14.1615
 20
142.865
 30
0.0
 40
0.333333
 41
0.333333
  0
VERTEX
  8
0
 10
14.0179
 20
142.901
 30
0.0
 40
0.333333
 41
0.333333
  0
VERTEX
  8
0
 10
13.88
 20
142.953
 30
0.0
 40
0.333333
 41
0.333333
  0
VERTEX
  8
0
 10
13.7489
 20
143.015
 30
0.0
 40
0.333333
 41
0.333333
  0
VERTEX
  8
0
 10
13.6252
 20
143.09
 30
0.0
 40
0.333333
 41
0.333333
  0
VERTEX
  8
0
 10
13.5098
 20
143.178
 30
0.0
 40
0.333333
 41
0.333333
  0
VERTEX
  8
0
 10
13.4032
 20
143.274
 30
0.0
 40
0.333333
 41
0.333333
  0
VERTEX
  8
0
 10
13.3064
 20
143.381
 30
0.0
 40
0.333333
 41
0.333333
  0
VERTEX
  8
0
 10
13.2201
 20
143.496
 30
0.0
 40
0.333333
 41
0.333333
  0
VERTEX
  8
0
 10
13.1449
 20
143.619
 30
0.0
 40
0.333333
 41
0.333333
  0
VERTEX
  8
0
 10
13.0818
 20
143.751
 30
0.0
 40
0.333333
 41
0.333333
  0
VERTEX
  8
0
 10
13.0313
 20
143.889
 30
0.0
 40
0.333333
 41
0.333333
  0
VERTEX
  8
0
 10
12.9944
 20
144.032
 30
0.0
 40
0.333333
 41
0.333333
  0
VERTEX
  8
0
 10
12.9716
 20
144.182
 30
0.0
 40
0.333333
 41
0.333333
  0
VERTEX
  8
0
 10
12.9639
 20
144.296
 30
0.0
 40
0.333333
 41
0.333333
  0
VERTEX
  8
0
 10
12.9639
 20
144.335
 30
0.0
 40
0.333333
 41
0.333333
  0
VERTEX
  8
0
 10
12.9639
 20
144.374
 30
0.0
 40
0.333333
 41
0.333333
  0
VERTEX
  8
0
 10
12.9716
 20
144.487
 30
0.0
 40
0.333333
 41
0.333333
  0
VERTEX
  8
0
 10
12.9944
 20
144.638
 30
0.0
 40
0.333333
 41
0.333333
  0
VERTEX
  8
0
 10
13.0313
 20
144.781
 30
0.0
 40
0.333333
 41
0.333333
  0
VERTEX
  8
0
 10
13.0818
 20
144.918
 30
0.0
 40
0.333333
 41
0.333333
  0
VERTEX
  8
0
 10
13.1449
 20
145.05
 30
0.0
 40
0.333333
 41
0.333333
  0
VERTEX
  8
0
 10
13.2201
 20
145.174
 30
0.0
 40
0.333333
 41
0.333333
  0
VERTEX
  8
0
 10
13.3064
 20
145.289
 30
0.0
 40
0.333333
 41
0.333333
  0
VERTEX
  8
0
 10
13.4032
 20
145.396
 30
0.0
 40
0.333333
 41
0.333333
  0
VERTEX
  8
0
 10
13.5098
 20
145.492
 30
0.0
 40
0.333333
 41
0.333333
  0
VERTEX
  8
0
 10
13.6252
 20
145.579
 30
0.0
 40
0.333333
 41
0.333333
  0
VERTEX
  8
0
 10
13.7489
 20
145.654
 30
0.0
 40
0.333333
 41
0.333333
  0
VERTEX
  8
0
 10
13.88
 20
145.717
 30
0.0
 40
0.333333
 41
0.333333
  0
VERTEX
  8
0
 10
14.0179
 20
145.767
 30
0.0
 40
0.333333
 41
0.333333
  0
VERTEX
  8
0
 10
14.1615
 20
145.804
 30
0.0
 40
0.333333
 41
0.333333
  0
VERTEX
  8
0
 10
14.3106
 20
145.826
 30
0.0
 40
0.333333
 41
0.333333
  0
VERTEX
  8
0
 10
14.4256
 20
145.835
 30
0.0
 40
0.333333
 41
0.333333
  0
VERTEX
  8
0
 10
14.4639
 20
145.835
 30
0.0
 40
0.333333
 41
0.333333
  0
VERTEX
  8
0
 10
14.5022
 20
145.835
 30
0.0
 40
0.333333
 41
0.333333
  0
VERTEX
  8
0
 10
14.6172
 20
145.826
 30
0.0
 40
0.333333
 41
0.333333
  0
VERTEX
  8
0
 10
14.7661
 20
145.804
 30
0.0
 40
0.333333
 41
0.333333
  0
VERTEX
  8
0
 10
14.91
 20
145.767
 30
0.0
 40
0.333333
 41
0.333333
  0
VERTEX
  8
0
 10
15.0478
 20
145.717
 30
0.0
 40
0.333333
 41
0.333333
  0
VERTEX
  8
0
 10
15.1789
 20
145.654
 30
0.0
 40
0.333333
 41
0.333333
  0
VERTEX
  8
0
 10
15.3026
 20
145.579
 30
0.0
 40
0.333333
 41
0.333333
  0
VERTEX
  8
0
 10
15.4181
 20
145.492
 30
0.0
 40
0.333333
 41
0.333333
  0
VERTEX
  8
0
 10
15.5246
 20
145.396
 30
0.0
 40
0.333333
 41
0.333333
  0
VERTEX
  8
0
 10
15.6214
 20
145.289
 30
0.0
 40
0.333333
 41
0.333333
  0
VERTEX
  8
0
 10
15.7078
 20
145.174
 30
0.0
 40
0.333333
 41
0.333333
  0
VERTEX
  8
0
 10
15.7828
 20
145.05
 30
0.0
 40
0.333333
 41
0.333333
  0
VERTEX
  8
0
 10
15.846
 20
144.918
 30
0.0
 40
0.333333
 41
0.333333
  0
VERTEX
  8
0
 10
15.8964
 20
144.781
 30
0.0
 40
0.333333
 41
0.333333
  0
VERTEX
  8
0
 10
15.9335
 20
144.638
 30
0.0
 40
0.333333
 41
0.333333
  0
VERTEX
  8
0
 10
15.9561
 20
144.487
 30
0.0
 40
0.333333
 41
0.333333
  0
VERTEX
  8
0
 10
15.9639
 20
144.374
 30
0.0
 40
0.333333
 41
0.333333
  0
VERTEX
  8
0
 10
15.9639
 20
144.335
 30
0.0
 40
0.333333
 41
0.333333
  0
SEQEND
 8
0
  0
POLYLINE
  8
0
 62
     0
 66
     1
 10
0
 20
0
 30
0.0
 70
     1
 40
24
 41
24
  0
VERTEX
  8
0
 10
458.179
 20
144.335
 30
0.0
 40
0.333333
 41
0.333333
  0
VERTEX
  8
0
 10
458.179
 20
144.296
 30
0.0
 40
0.333333
 41
0.333333
  0
VERTEX
  8
0
 10
458.171
 20
144.182
 30
0.0
 40
0.333333
 41
0.333333
  0
VERTEX
  8
0
 10
458.149
 20
144.032
 30
0.0
 40
0.333333
 41
0.333333
  0
VERTEX
  8
0
 10
458.111
 20
143.889
 30
0.0
 40
0.333333
 41
0.333333
  0
VERTEX
  8
0
 10
458.061
 20
143.751
 30
0.0
 40
0.333333
 41
0.333333
  0
VERTEX
  8
0
 10
457.997
 20
143.619
 30
0.0
 40
0.333333
 41
0.333333
  0
VERTEX
  8
0
 10
457.922
 20
143.496
 30
0.0
 40
0.333333
 41
0.333333
  0
VERTEX
  8
0
 10
457.836
 20
143.381
 30
0.0
 40
0.333333
 41
0.333333
  0
VERTEX
  8
0
 10
457.739
 20
143.274
 30
0.0
 40
0.333333
 41
0.333333
  0
VERTEX
  8
0
 10
457.633
 20
143.178
 30
0.0
 40
0.333333
 41
0.333333
  0
VERTEX
  8
0
 10
457.517
 20
143.09
 30
0.0
 40
0.333333
 41
0.333333
  0
VERTEX
  8
0
 10
457.393
 20
143.015
 30
0.0
 40
0.333333
 41
0.333333
  0
VERTEX
  8
0
 10
457.262
 20
142.953
 30
0.0
 40
0.333333
 41
0.333333
  0
VERTEX
  8
0
 10
457.125
 20
142.901
 30
0.0
 40
0.333333
 41
0.333333
  0
VERTEX
  8
0
 10
456.981
 20
142.865
 30
0.0
 40
0.333333
 41
0.333333
  0
VERTEX
  8
0
 10
456.832
 20
142.843
 30
0.0
 40
0.333333
 41
0.333333
  0
VERTEX
  8
0
 10
456.717
 20
142.835
 30
0.0
 40
0.333333
 41
0.333333
  0
VERTEX
  8
0
 10
456.679
 20
142.835
 30
0.0
 40
0.333333
 41
0.333333
  0
VERTEX
  8
0
 10
456.64
 20
142.835
 30
0.0
 40
0.333333
 41
0.333333
  0
VERTEX
  8
0
 10
456.525
 20
142.843
 30
0.0
 40
0.333333
 41
0.333333
  0
VERTEX
  8
0
 10
456.376
 20
142.865
 30
0.0
 40
0.333333
 41
0.333333
  0
VERTEX
  8
0
 10
456.232
 20
142.901
 30
0.0
 40
0.333333
 41
0.333333
  0
VERTEX
  8
0
 10
456.094
 20
142.953
 30
0.0
 40
0.333333
 41
0.333333
  0
VERTEX
  8
0
 10
455.964
 20
143.015
 30
0.0
 40
0.333333
 41
0.333333
  0
VERTEX
  8
0
 10
455.84
 20
143.09
 30
0.0
 40
0.333333
 41
0.333333
  0
VERTEX
  8
0
 10
455.725
 20
143.178
 30
0.0
 40
0.333333
 41
0.333333
  0
VERTEX
  8
0
 10
455.618
 20
143.274
 30
0.0
 40
0.333333
 41
0.333333
  0
VERTEX
  8
0
 10
455.521
 20
143.381
 30
0.0
 40
0.333333
 41
0.333333
  0
VERTEX
  8
0
 10
455.435
 20
143.496
 30
0.0
 40
0.333333
 41
0.333333
  0
VERTEX
  8
0
 10
455.36
 20
143.619
 30
0.0
 40
0.333333
 41
0.333333
  0
VERTEX
  8
0
 10
455.296
 20
143.751
 30
0.0
 40
0.333333
 41
0.333333
  0
VERTEX
  8
0
 10
455.246
 20
143.889
 30
0.0
 40
0.333333
 41
0.333333
  0
VERTEX
  8
0
 10
455.21
 20
144.032
 30
0.0
 40
0.333333
 41
0.333333
  0
VERTEX
  8
0
 10
455.186
 20
144.182
 30
0.0
 40
0.333333
 41
0.333333
  0
VERTEX
  8
0
 10
455.179
 20
144.296
 30
0.0
 40
0.333333
 41
0.333333
  0
VERTEX
  8
0
 10
455.179
 20
144.335
 30
0.0
 40
0.333333
 41
0.333333
  0
VERTEX
  8
0
 10
455.179
 20
144.374
 30
0.0
 40
0.333333
 41
0.333333
  0
VERTEX
  8
0
 10
455.186
 20
144.487
 30
0.0
 40
0.333333
 41
0.333333
  0
VERTEX
  8
0
 10
455.21
 20
144.638
 30
0.0
 40
0.333333
 41
0.333333
  0
VERTEX
  8
0
 10
455.246
 20
144.781
 30
0.0
 40
0.333333
 41
0.333333
  0
VERTEX
  8
0
 10
455.296
 20
144.918
 30
0.0
 40
0.333333
 41
0.333333
  0
VERTEX
  8
0
 10
455.36
 20
145.05
 30
0.0
 40
0.333333
 41
0.333333
  0
VERTEX
  8
0
 10
455.435
 20
145.174
 30
0.0
 40
0.333333
 41
0.333333
  0
VERTEX
  8
0
 10
455.521
 20
145.289
 30
0.0
 40
0.333333
 41
0.333333
  0
VERTEX
  8
0
 10
455.618
 20
145.396
 30
0.0
 40
0.333333
 41
0.333333
  0
VERTEX
  8
0
 10
455.725
 20
145.492
 30
0.0
 40
0.333333
 41
0.333333
  0
VERTEX
  8
0
 10
455.84
 20
145.579
 30
0.0
 40
0.333333
 41
0.333333
  0
VERTEX
  8
0
 10
455.964
 20
145.654
 30
0.0
 40
0.333333
 41
0.333333
  0
VERTEX
  8
0
 10
456.094
 20
145.717
 30
0.0
 40
0.333333
 41
0.333333
  0
VERTEX
  8
0
 10
456.232
 20
145.767
 30
0.0
 40
0.333333
 41
0.333333
  0
VERTEX
  8
0
 10
456.376
 20
145.804
 30
0.0
 40
0.333333
 41
0.333333
  0
VERTEX
  8
0
 10
456.525
 20
145.826
 30
0.0
 40
0.333333
 41
0.333333
  0
VERTEX
  8
0
 10
456.64
 20
145.835
 30
0.0
 40
0.333333
 41
0.333333
  0
VERTEX
  8
0
 10
456.679
 20
145.835
 30
0.0
 40
0.333333
 41
0.333333
  0
VERTEX
  8
0
 10
456.717
 20
145.835
 30
0.0
 40
0.333333
 41
0.333333
  0
VERTEX
  8
0
 10
456.832
 20
145.826
 30
0.0
 40
0.333333
 41
0.333333
  0
VERTEX
  8
0
 10
456.981
 20
145.804
 30
0.0
 40
0.333333
 41
0.333333
  0
VERTEX
  8
0
 10
457.125
 20
145.767
 30
0.0
 40
0.333333
 41
0.333333
  0
VERTEX
  8
0
 10
457.262
 20
145.717
 30
0.0
 40
0.333333
 41
0.333333
  0
VERTEX
  8
0
 10
457.393
 20
145.654
 30
0.0
 40
0.333333
 41
0.333333
  0
VERTEX
  8
0
 10
457.517
 20
145.579
 30
0.0
 40
0.333333
 41
0.333333
  0
VERTEX
  8
0
 10
457.633
 20
145.492
 30
0.0
 40
0.333333
 41
0.333333
  0
VERTEX
  8
0
 10
457.739
 20
145.396
 30
0.0
 40
0.333333
 41
0.333333
  0
VERTEX
  8
0
 10
457.836
 20
145.289
 30
0.0
 40
0.333333
 41
0.333333
  0
VERTEX
  8
0
 10
457.922
 20
145.174
 30
0.0
 40
0.333333
 41
0.333333
  0
VERTEX
  8
0
 10
457.997
 20
145.05
 30
0.0
 40
0.333333
 41
0.333333
  0
VERTEX
  8
0
 10
458.061
 20
144.918
 30
0.0
 40
0.333333
 41
0.333333
  0
VERTEX
  8
0
 10
458.111
 20
144.781
 30
0.0
 40
0.333333
 41
0.333333
  0
VERTEX
  8
0
 10
458.149
 20
144.638
 30
0.0
 40
0.333333
 41
0.333333
  0
VERTEX
  8
0
 10
458.171
 20
144.487
 30
0.0
 40
0.333333
 41
0.333333
  0
VERTEX
  8
0
 10
458.179
 20
144.374
 30
0.0
 40
0.333333
 41
0.333333
  0
VERTEX
  8
0
 10
458.179
 20
144.335
 30
0.0
 40
0.333333
 41
0.333333
  0
SEQEND
 8
0
  0
POLYLINE
  8
0
 62
     0
 66
     1
 10
0
 20
0
 30
0.0
 70
     1
 40
24
 41
24
  0
VERTEX
  8
0
 10
135.393
 20
267.382
 30
0.0
 40
0.333333
 41
0.333333
  0
VERTEX
  8
0
 10
135.393
 20
267.343
 30
0.0
 40
0.333333
 41
0.333333
  0
VERTEX
  8
0
 10
135.385
 20
267.229
 30
0.0
 40
0.333333
 41
0.333333
  0
VERTEX
  8
0
 10
135.363
 20
267.079
 30
0.0
 40
0.333333
 41
0.333333
  0
VERTEX
  8
0
 10
135.326
 20
266.936
 30
0.0
 40
0.333333
 41
0.333333
  0
VERTEX
  8
0
 10
135.275
 20
266.799
 30
0.0
 40
0.333333
 41
0.333333
  0
VERTEX
  8
0
 10
135.212
 20
266.667
 30
0.0
 40
0.333333
 41
0.333333
  0
VERTEX
  8
0
 10
135.137
 20
266.543
 30
0.0
 40
0.333333
 41
0.333333
  0
VERTEX
  8
0
 10
135.051
 20
266.428
 30
0.0
 40
0.333333
 41
0.333333
  0
VERTEX
  8
0
 10
134.954
 20
266.321
 30
0.0
 40
0.333333
 41
0.333333
  0
VERTEX
  8
0
 10
134.847
 20
266.225
 30
0.0
 40
0.333333
 41
0.333333
  0
VERTEX
  8
0
 10
134.732
 20
266.138
 30
0.0
 40
0.333333
 41
0.333333
  0
VERTEX
  8
0
 10
134.608
 20
266.063
 30
0.0
 40
0.333333
 41
0.333333
  0
VERTEX
  8
0
 10
134.477
 20
266
 30
0.0
 40
0.333333
 41
0.333333
  0
VERTEX
  8
0
 10
134.339
 20
265.949
 30
0.0
 40
0.333333
 41
0.333333
  0
VERTEX
  8
0
 10
134.195
 20
265.912
 30
0.0
 40
0.333333
 41
0.333333
  0
VERTEX
  8
0
 10
134.046
 20
265.89
 30
0.0
 40
0.333333
 41
0.333333
  0
VERTEX
  8
0
 10
133.931
 20
265.882
 30
0.0
 40
0.333333
 41
0.333333
  0
VERTEX
  8
0
 10
133.893
 20
265.882
 30
0.0
 40
0.333333
 41
0.333333
  0
VERTEX
  8
0
 10
133.855
 20
265.882
 30
0.0
 40
0.333333
 41
0.333333
  0
VERTEX
  8
0
 10
133.74
 20
265.89
 30
0.0
 40
0.333333
 41
0.333333
  0
VERTEX
  8
0
 10
133.591
 20
265.912
 30
0.0
 40
0.333333
 41
0.333333
  0
VERTEX
  8
0
 10
133.447
 20
265.949
 30
0.0
 40
0.333333
 41
0.333333
  0
VERTEX
  8
0
 10
133.309
 20
266
 30
0.0
 40
0.333333
 41
0.333333
  0
VERTEX
  8
0
 10
133.178
 20
266.063
 30
0.0
 40
0.333333
 41
0.333333
  0
VERTEX
  8
0
 10
133.054
 20
266.138
 30
0.0
 40
0.333333
 41
0.333333
  0
VERTEX
  8
0
 10
132.939
 20
266.225
 30
0.0
 40
0.333333
 41
0.333333
  0
VERTEX
  8
0
 10
132.832
 20
266.321
 30
0.0
 40
0.333333
 41
0.333333
  0
VERTEX
  8
0
 10
132.736
 20
266.428
 30
0.0
 40
0.333333
 41
0.333333
  0
VERTEX
  8
0
 10
132.649
 20
266.543
 30
0.0
 40
0.333333
 41
0.333333
  0
VERTEX
  8
0
 10
132.574
 20
266.667
 30
0.0
 40
0.333333
 41
0.333333
  0
VERTEX
  8
0
 10
132.511
 20
266.799
 30
0.0
 40
0.333333
 41
0.333333
  0
VERTEX
  8
0
 10
132.461
 20
266.936
 30
0.0
 40
0.333333
 41
0.333333
  0
VERTEX
  8
0
 10
132.424
 20
267.079
 30
0.0
 40
0.333333
 41
0.333333
  0
VERTEX
  8
0
 10
132.401
 20
267.229
 30
0.0
 40
0.333333
 41
0.333333
  0
VERTEX
  8
0
 10
132.393
 20
267.343
 30
0.0
 40
0.333333
 41
0.333333
  0
VERTEX
  8
0
 10
132.393
 20
267.382
 30
0.0
 40
0.333333
 41
0.333333
  0
VERTEX
  8
0
 10
132.393
 20
267.421
 30
0.0
 40
0.333333
 41
0.333333
  0
VERTEX
  8
0
 10
132.401
 20
267.535
 30
0.0
 40
0.333333
 41
0.333333
  0
VERTEX
  8
0
 10
132.424
 20
267.685
 30
0.0
 40
0.333333
 41
0.333333
  0
VERTEX
  8
0
 10
132.461
 20
267.828
 30
0.0
 40
0.333333
 41
0.333333
  0
VERTEX
  8
0
 10
132.511
 20
267.965
 30
0.0
 40
0.333333
 41
0.333333
  0
VERTEX
  8
0
 10
132.574
 20
268.097
 30
0.0
 40
0.333333
 41
0.333333
  0
VERTEX
  8
0
 10
132.649
 20
268.221
 30
0.0
 40
0.333333
 41
0.333333
  0
VERTEX
  8
0
 10
132.736
 20
268.336
 30
0.0
 40
0.333333
 41
0.333333
  0
VERTEX
  8
0
 10
132.832
 20
268.443
 30
0.0
 40
0.333333
 41
0.333333
  0
VERTEX
  8
0
 10
132.939
 20
268.539
 30
0.0
 40
0.333333
 41
0.333333
  0
VERTEX
  8
0
 10
133.054
 20
268.626
 30
0.0
 40
0.333333
 41
0.333333
  0
VERTEX
  8
0
 10
133.178
 20
268.701
 30
0.0
 40
0.333333
 41
0.333333
  0
VERTEX
  8
0
 10
133.309
 20
268.764
 30
0.0
 40
0.333333
 41
0.333333
  0
VERTEX
  8
0
 10
133.447
 20
268.814
 30
0.0
 40
0.333333
 41
0.333333
  0
VERTEX
  8
0
 10
133.591
 20
268.851
 30
0.0
 40
0.333333
 41
0.333333
  0
VERTEX
  8
0
 10
133.74
 20
268.874
 30
0.0
 40
0.333333
 41
0.333333
  0
VERTEX
  8
0
 10
133.855
 20
268.882
 30
0.0
 40
0.333333
 41
0.333333
  0
VERTEX
  8
0
 10
133.893
 20
268.882
 30
0.0
 40
0.333333
 41
0.333333
  0
VERTEX
  8
0
 10
133.931
 20
268.882
 30
0.0
 40
0.333333
 41
0.333333
  0
VERTEX
  8
0
 10
134.046
 20
268.874
 30
0.0
 40
0.333333
 41
0.333333
  0
VERTEX
  8
0
 10
134.195
 20
268.851
 30
0.0
 40
0.333333
 41
0.333333
  0
VERTEX
  8
0
 10
134.339
 20
268.814
 30
0.0
 40
0.333333
 41
0.333333
  0
VERTEX
  8
0
 10
134.477
 20
268.764
 30
0.0
 40
0.333333
 41
0.333333
  0
VERTEX
  8
0
 10
134.608
 20
268.701
 30
0.0
 40
0.333333
 41
0.333333
  0
VERTEX
  8
0
 10
134.732
 20
268.626
 30
0.0
 40
0.333333
 41
0.333333
  0
VERTEX
  8
0
 10
134.847
 20
268.539
 30
0.0
 40
0.333333
 41
0.333333
  0
VERTEX
  8
0
 10
134.954
 20
268.443
 30
0.0
 40
0.333333
 41
0.333333
  0
VERTEX
  8
0
 10
135.051
 20
268.336
 30
0.0
 40
0.333333
 41
0.333333
  0
VERTEX
  8
0
 10
135.137
 20
268.221
 30
0.0
 40
0.333333
 41
0.333333
  0
VERTEX
  8
0
 10
135.212
 20
268.097
 30
0.0
 40
0.333333
 41
0.333333
  0
VERTEX
  8
0
 10
135.275
 20
267.965
 30
0.0
 40
0.333333
 41
0.333333
  0
VERTEX
  8
0
 10
135.326
 20
267.828
 30
0.0
 40
0.333333
 41
0.333333
  0
VERTEX
  8
0
 10
135.363
 20
267.685
 30
0.0
 40
0.333333
 41
0.333333
  0
VERTEX
  8
0
 10
135.385
 20
267.535
 30
0.0
 40
0.333333
 41
0.333333
  0
VERTEX
  8
0
 10
135.393
 20
267.421
 30
0.0
 40
0.333333
 41
0.333333
  0
VERTEX
  8
0
 10
135.393
 20
267.382
 30
0.0
 40
0.333333
 41
0.333333
  0
SEQEND
 8
0
  0
POLYLINE
  8
0
 62
     0
 66
     1
 10
0
 20
0
 30
0.0
 70
     1
 40
24
 41
24
  0
VERTEX
  8
0
 10
157.393
 20
267.382
 30
0.0
 40
0.333333
 41
0.333333
  0
VERTEX
  8
0
 10
157.393
 20
267.343
 30
0.0
 40
0.333333
 41
0.333333
  0
VERTEX
  8
0
 10
157.385
 20
267.229
 30
0.0
 40
0.333333
 41
0.333333
  0
VERTEX
  8
0
 10
157.362
 20
267.079
 30
0.0
 40
0.333333
 41
0.333333
  0
VERTEX
  8
0
 10
157.325
 20
266.936
 30
0.0
 40
0.333333
 41
0.333333
  0
VERTEX
  8
0
 10
157.275
 20
266.799
 30
0.0
 40
0.333333
 41
0.333333
  0
VERTEX
  8
0
 10
157.212
 20
266.667
 30
0.0
 40
0.333333
 41
0.333333
  0
VERTEX
  8
0
 10
157.138
 20
266.543
 30
0.0
 40
0.333333
 41
0.333333
  0
VERTEX
  8
0
 10
157.05
 20
266.428
 30
0.0
 40
0.333333
 41
0.333333
  0
VERTEX
  8
0
 10
156.954
 20
266.321
 30
0.0
 40
0.333333
 41
0.333333
  0
VERTEX
  8
0
 10
156.847
 20
266.225
 30
0.0
 40
0.333333
 41
0.333333
  0
VERTEX
  8
0
 10
156.732
 20
266.138
 30
0.0
 40
0.333333
 41
0.333333
  0
VERTEX
  8
0
 10
156.608
 20
266.063
 30
0.0
 40
0.333333
 41
0.333333
  0
VERTEX
  8
0
 10
156.476
 20
266
 30
0.0
 40
0.333333
 41
0.333333
  0
VERTEX
  8
0
 10
156.339
 20
265.949
 30
0.0
 40
0.333333
 41
0.333333
  0
VERTEX
  8
0
 10
156.196
 20
265.912
 30
0.0
 40
0.333333
 41
0.333333
  0
VERTEX
  8
0
 10
156.046
 20
265.89
 30
0.0
 40
0.333333
 41
0.333333
  0
VERTEX
  8
0
 10
155.932
 20
265.882
 30
0.0
 40
0.333333
 41
0.333333
  0
VERTEX
  8
0
 10
155.893
 20
265.882
 30
0.0
 40
0.333333
 41
0.333333
  0
VERTEX
  8
0
 10
155.854
 20
265.882
 30
0.0
 40
0.333333
 41
0.333333
  0
VERTEX
  8
0
 10
155.74
 20
265.89
 30
0.0
 40
0.333333
 41
0.333333
  0
VERTEX
  8
0
 10
155.59
 20
265.912
 30
0.0
 40
0.333333
 41
0.333333
  0
VERTEX
  8
0
 10
155.447
 20
265.949
 30
0.0
 40
0.333333
 41
0.333333
  0
VERTEX
  8
0
 10
155.31
 20
266
 30
0.0
 40
0.333333
 41
0.333333
  0
VERTEX
  8
0
 10
155.178
 20
266.063
 30
0.0
 40
0.333333
 41
0.333333
  0
VERTEX
  8
0
 10
155.054
 20
266.138
 30
0.0
 40
0.333333
 41
0.333333
  0
VERTEX
  8
0
 10
154.939
 20
266.225
 30
0.0
 40
0.333333
 41
0.333333
  0
VERTEX
  8
0
 10
154.832
 20
266.321
 30
0.0
 40
0.333333
 41
0.333333
  0
VERTEX
  8
0
 10
154.736
 20
266.428
 30
0.0
 40
0.333333
 41
0.333333
  0
VERTEX
  8
0
 10
154.649
 20
266.543
 30
0.0
 40
0.333333
 41
0.333333
  0
VERTEX
  8
0
 10
154.574
 20
266.667
 30
0.0
 40
0.333333
 41
0.333333
  0
VERTEX
  8
0
 10
154.511
 20
266.799
 30
0.0
 40
0.333333
 41
0.333333
  0
VERTEX
  8
0
 10
154.461
 20
266.936
 30
0.0
 40
0.333333
 41
0.333333
  0
VERTEX
  8
0
 10
154.424
 20
267.079
 30
0.0
 40
0.333333
 41
0.333333
  0
VERTEX
  8
0
 10
154.401
 20
267.229
 30
0.0
 40
0.333333
 41
0.333333
  0
VERTEX
  8
0
 10
154.393
 20
267.343
 30
0.0
 40
0.333333
 41
0.333333
  0
VERTEX
  8
0
 10
154.393
 20
267.382
 30
0.0
 40
0.333333
 41
0.333333
  0
VERTEX
  8
0
 10
154.393
 20
267.421
 30
0.0
 40
0.333333
 41
0.333333
  0
VERTEX
  8
0
 10
154.401
 20
267.535
 30
0.0
 40
0.333333
 41
0.333333
  0
VERTEX
  8
0
 10
154.424
 20
267.685
 30
0.0
 40
0.333333
 41
0.333333
  0
VERTEX
  8
0
 10
154.461
 20
267.828
 30
0.0
 40
0.333333
 41
0.333333
  0
VERTEX
  8
0
 10
154.511
 20
267.965
 30
0.0
 40
0.333333
 41
0.333333
  0
VERTEX
  8
0
 10
154.574
 20
268.097
 30
0.0
 40
0.333333
 41
0.333333
  0
VERTEX
  8
0
 10
154.649
 20
268.221
 30
0.0
 40
0.333333
 41
0.333333
  0
VERTEX
  8
0
 10
154.736
 20
268.336
 30
0.0
 40
0.333333
 41
0.333333
  0
VERTEX
  8
0
 10
154.832
 20
268.443
 30
0.0
 40
0.333333
 41
0.333333
  0
VERTEX
  8
0
 10
154.939
 20
268.539
 30
0.0
 40
0.333333
 41
0.333333
  0
VERTEX
  8
0
 10
155.054
 20
268.626
 30
0.0
 40
0.333333
 41
0.333333
  0
VERTEX
  8
0
 10
155.178
 20
268.701
 30
0.0
 40
0.333333
 41
0.333333
  0
VERTEX
  8
0
 10
155.31
 20
268.764
 30
0.0
 40
0.333333
 41
0.333333
  0
VERTEX
  8
0
 10
155.447
 20
268.814
 30
0.0
 40
0.333333
 41
0.333333
  0
VERTEX
  8
0
 10
155.59
 20
268.851
 30
0.0
 40
0.333333
 41
0.333333
  0
VERTEX
  8
0
 10
155.74
 20
268.874
 30
0.0
 40
0.333333
 41
0.333333
  0
VERTEX
  8
0
 10
155.854
 20
268.882
 30
0.0
 40
0.333333
 41
0.333333
  0
VERTEX
  8
0
 10
155.893
 20
268.882
 30
0.0
 40
0.333333
 41
0.333333
  0
VERTEX
  8
0
 10
155.932
 20
268.882
 30
0.0
 40
0.333333
 41
0.333333
  0
VERTEX
  8
0
 10
156.046
 20
268.874
 30
0.0
 40
0.333333
 41
0.333333
  0
VERTEX
  8
0
 10
156.196
 20
268.851
 30
0.0
 40
0.333333
 41
0.333333
  0
VERTEX
  8
0
 10
156.339
 20
268.814
 30
0.0
 40
0.333333
 41
0.333333
  0
VERTEX
  8
0
 10
156.476
 20
268.764
 30
0.0
 40
0.333333
 41
0.333333
  0
VERTEX
  8
0
 10
156.608
 20
268.701
 30
0.0
 40
0.333333
 41
0.333333
  0
VERTEX
  8
0
 10
156.732
 20
268.626
 30
0.0
 40
0.333333
 41
0.333333
  0
VERTEX
  8
0
 10
156.847
 20
268.539
 30
0.0
 40
0.333333
 41
0.333333
  0
VERTEX
  8
0
 10
156.954
 20
268.443
 30
0.0
 40
0.333333
 41
0.333333
  0
VERTEX
  8
0
 10
157.05
 20
268.336
 30
0.0
 40
0.333333
 41
0.333333
  0
VERTEX
  8
0
 10
157.138
 20
268.221
 30
0.0
 40
0.333333
 41
0.333333
  0
VERTEX
  8
0
 10
157.212
 20
268.097
 30
0.0
 40
0.333333
 41
0.333333
  0
VERTEX
  8
0
 10
157.275
 20
267.965
 30
0.0
 40
0.333333
 41
0.333333
  0
VERTEX
  8
0
 10
157.325
 20
267.828
 30
0.0
 40
0.333333
 41
0.333333
  0
VERTEX
  8
0
 10
157.362
 20
267.685
 30
0.0
 40
0.333333
 41
0.333333
  0
VERTEX
  8
0
 10
157.385
 20
267.535
 30
0.0
 40
0.333333
 41
0.333333
  0
VERTEX
  8
0
 10
157.393
 20
267.421
 30
0.0
 40
0.333333
 41
0.333333
  0
VERTEX
  8
0
 10
157.393
 20
267.382
 30
0.0
 40
0.333333
 41
0.333333
  0
SEQEND
 8
0
  0
POLYLINE
  8
0
 62
     0
 66
     1
 10
0
 20
0
 30
0.0
 70
     1
 40
24
 41
24
  0
VERTEX
  8
0
 10
316.75
 20
267.382
 30
0.0
 40
0.333333
 41
0.333333
  0
VERTEX
  8
0
 10
316.75
 20
267.343
 30
0.0
 40
0.333333
 41
0.333333
  0
VERTEX
  8
0
 10
316.742
 20
267.229
 30
0.0
 40
0.333333
 41
0.333333
  0
VERTEX
  8
0
 10
316.719
 20
267.079
 30
0.0
 40
0.333333
 41
0.333333
  0
VERTEX
  8
0
 10
316.682
 20
266.936
 30
0.0
 40
0.333333
 41
0.333333
  0
VERTEX
  8
0
 10
316.632
 20
266.799
 30
0.0
 40
0.333333
 41
0.333333
  0
VERTEX
  8
0
 10
316.568
 20
266.667
 30
0.0
 40
0.333333
 41
0.333333
  0
VERTEX
  8
0
 10
316.493
 20
266.543
 30
0.0
 40
0.333333
 41
0.333333
  0
VERTEX
  8
0
 10
316.407
 20
266.428
 30
0.0
 40
0.333333
 41
0.333333
  0
VERTEX
  8
0
 10
316.31
 20
266.321
 30
0.0
 40
0.333333
 41
0.333333
  0
VERTEX
  8
0
 10
316.204
 20
266.225
 30
0.0
 40
0.333333
 41
0.333333
  0
VERTEX
  8
0
 10
316.088
 20
266.138
 30
0.0
 40
0.333333
 41
0.333333
  0
VERTEX
  8
0
 10
315.964
 20
266.063
 30
0.0
 40
0.333333
 41
0.333333
  0
VERTEX
  8
0
 10
315.833
 20
266
 30
0.0
 40
0.333333
 41
0.333333
  0
VERTEX
  8
0
 10
315.696
 20
265.949
 30
0.0
 40
0.333333
 41
0.333333
  0
VERTEX
  8
0
 10
315.551
 20
265.912
 30
0.0
 40
0.333333
 41
0.333333
  0
VERTEX
  8
0
 10
315.403
 20
265.89
 30
0.0
 40
0.333333
 41
0.333333
  0
VERTEX
  8
0
 10
315.287
 20
265.882
 30
0.0
 40
0.333333
 41
0.333333
  0
VERTEX
  8
0
 10
315.25
 20
265.882
 30
0.0
 40
0.333333
 41
0.333333
  0
VERTEX
  8
0
 10
315.211
 20
265.882
 30
0.0
 40
0.333333
 41
0.333333
  0
VERTEX
  8
0
 10
315.096
 20
265.89
 30
0.0
 40
0.333333
 41
0.333333
  0
VERTEX
  8
0
 10
314.947
 20
265.912
 30
0.0
 40
0.333333
 41
0.333333
  0
VERTEX
  8
0
 10
314.803
 20
265.949
 30
0.0
 40
0.333333
 41
0.333333
  0
VERTEX
  8
0
 10
314.665
 20
266
 30
0.0
 40
0.333333
 41
0.333333
  0
VERTEX
  8
0
 10
314.535
 20
266.063
 30
0.0
 40
0.333333
 41
0.333333
  0
VERTEX
  8
0
 10
314.411
 20
266.138
 30
0.0
 40
0.333333
 41
0.333333
  0
VERTEX
  8
0
 10
314.296
 20
266.225
 30
0.0
 40
0.333333
 41
0.333333
  0
VERTEX
  8
0
 10
314.189
 20
266.321
 30
0.0
 40
0.333333
 41
0.333333
  0
VERTEX
  8
0
 10
314.092
 20
266.428
 30
0.0
 40
0.333333
 41
0.333333
  0
VERTEX
  8
0
 10
314.006
 20
266.543
 30
0.0
 40
0.333333
 41
0.333333
  0
VERTEX
  8
0
 10
313.931
 20
266.667
 30
0.0
 40
0.333333
 41
0.333333
  0
VERTEX
  8
0
 10
313.867
 20
266.799
 30
0.0
 40
0.333333
 41
0.333333
  0
VERTEX
  8
0
 10
313.817
 20
266.936
 30
0.0
 40
0.333333
 41
0.333333
  0
VERTEX
  8
0
 10
313.779
 20
267.079
 30
0.0
 40
0.333333
 41
0.333333
  0
VERTEX
  8
0
 10
313.757
 20
267.229
 30
0.0
 40
0.333333
 41
0.333333
  0
VERTEX
  8
0
 10
313.75
 20
267.343
 30
0.0
 40
0.333333
 41
0.333333
  0
VERTEX
  8
0
 10
313.75
 20
267.382
 30
0.0
 40
0.333333
 41
0.333333
  0
VERTEX
  8
0
 10
313.75
 20
267.421
 30
0.0
 40
0.333333
 41
0.333333
  0
VERTEX
  8
0
 10
313.757
 20
267.535
 30
0.0
 40
0.333333
 41
0.333333
  0
VERTEX
  8
0
 10
313.779
 20
267.685
 30
0.0
 40
0.333333
 41
0.333333
  0
VERTEX
  8
0
 10
313.817
 20
267.828
 30
0.0
 40
0.333333
 41
0.333333
  0
VERTEX
  8
0
 10
313.867
 20
267.965
 30
0.0
 40
0.333333
 41
0.333333
  0
VERTEX
  8
0
 10
313.931
 20
268.097
 30
0.0
 40
0.333333
 41
0.333333
  0
VERTEX
  8
0
 10
314.006
 20
268.221
 30
0.0
 40
0.333333
 41
0.333333
  0
VERTEX
  8
0
 10
314.092
 20
268.336
 30
0.0
 40
0.333333
 41
0.333333
  0
VERTEX
  8
0
 10
314.189
 20
268.443
 30
0.0
 40
0.333333
 41
0.333333
  0
VERTEX
  8
0
 10
314.296
 20
268.539
 30
0.0
 40
0.333333
 41
0.333333
  0
VERTEX
  8
0
 10
314.411
 20
268.626
 30
0.0
 40
0.333333
 41
0.333333
  0
VERTEX
  8
0
 10
314.535
 20
268.701
 30
0.0
 40
0.333333
 41
0.333333
  0
VERTEX
  8
0
 10
314.665
 20
268.764
 30
0.0
 40
0.333333
 41
0.333333
  0
VERTEX
  8
0
 10
314.803
 20
268.814
 30
0.0
 40
0.333333
 41
0.333333
  0
VERTEX
  8
0
 10
314.947
 20
268.851
 30
0.0
 40
0.333333
 41
0.333333
  0
VERTEX
  8
0
 10
315.096
 20
268.874
 30
0.0
 40
0.333333
 41
0.333333
  0
VERTEX
  8
0
 10
315.211
 20
268.882
 30
0.0
 40
0.333333
 41
0.333333
  0
VERTEX
  8
0
 10
315.25
 20
268.882
 30
0.0
 40
0.333333
 41
0.333333
  0
VERTEX
  8
0
 10
315.287
 20
268.882
 30
0.0
 40
0.333333
 41
0.333333
  0
VERTEX
  8
0
 10
315.403
 20
268.874
 30
0.0
 40
0.333333
 41
0.333333
  0
VERTEX
  8
0
 10
315.551
 20
268.851
 30
0.0
 40
0.333333
 41
0.333333
  0
VERTEX
  8
0
 10
315.696
 20
268.814
 30
0.0
 40
0.333333
 41
0.333333
  0
VERTEX
  8
0
 10
315.833
 20
268.764
 30
0.0
 40
0.333333
 41
0.333333
  0
VERTEX
  8
0
 10
315.964
 20
268.701
 30
0.0
 40
0.333333
 41
0.333333
  0
VERTEX
  8
0
 10
316.088
 20
268.626
 30
0.0
 40
0.333333
 41
0.333333
  0
VERTEX
  8
0
 10
316.204
 20
268.539
 30
0.0
 40
0.333333
 41
0.333333
  0
VERTEX
  8
0
 10
316.31
 20
268.443
 30
0.0
 40
0.333333
 41
0.333333
  0
VERTEX
  8
0
 10
316.407
 20
268.336
 30
0.0
 40
0.333333
 41
0.333333
  0
VERTEX
  8
0
 10
316.493
 20
268.221
 30
0.0
 40
0.333333
 41
0.333333
  0
VERTEX
  8
0
 10
316.568
 20
268.097
 30
0.0
 40
0.333333
 41
0.333333
  0
VERTEX
  8
0
 10
316.632
 20
267.965
 30
0.0
 40
0.333333
 41
0.333333
  0
VERTEX
  8
0
 10
316.682
 20
267.828
 30
0.0
 40
0.333333
 41
0.333333
  0
VERTEX
  8
0
 10
316.719
 20
267.685
 30
0.0
 40
0.333333
 41
0.333333
  0
VERTEX
  8
0
 10
316.742
 20
267.535
 30
0.0
 40
0.333333
 41
0.333333
  0
VERTEX
  8
0
 10
316.75
 20
267.421
 30
0.0
 40
0.333333
 41
0.333333
  0
VERTEX
  8
0
 10
316.75
 20
267.382
 30
0.0
 40
0.333333
 41
0.333333
  0
SEQEND
 8
0
  0
POLYLINE
  8
0
 62
     0
 66
     1
 10
0
 20
0
 30
0.0
 70
     1
 40
24
 41
24
  0
VERTEX
  8
0
 10
338.75
 20
267.382
 30
0.0
 40
0.333333
 41
0.333333
  0
VERTEX
  8
0
 10
338.75
 20
267.343
 30
0.0
 40
0.333333
 41
0.333333
  0
VERTEX
  8
0
 10
338.742
 20
267.229
 30
0.0
 40
0.333333
 41
0.333333
  0
VERTEX
  8
0
 10
338.719
 20
267.079
 30
0.0
 40
0.333333
 41
0.333333
  0
VERTEX
  8
0
 10
338.682
 20
266.936
 30
0.0
 40
0.333333
 41
0.333333
  0
VERTEX
  8
0
 10
338.632
 20
266.799
 30
0.0
 40
0.333333
 41
0.333333
  0
VERTEX
  8
0
 10
338.568
 20
266.667
 30
0.0
 40
0.333333
 41
0.333333
  0
VERTEX
  8
0
 10
338.493
 20
266.543
 30
0.0
 40
0.333333
 41
0.333333
  0
VERTEX
  8
0
 10
338.407
 20
266.428
 30
0.0
 40
0.333333
 41
0.333333
  0
VERTEX
  8
0
 10
338.31
 20
266.321
 30
0.0
 40
0.333333
 41
0.333333
  0
VERTEX
  8
0
 10
338.204
 20
266.225
 30
0.0
 40
0.333333
 41
0.333333
  0
VERTEX
  8
0
 10
338.088
 20
266.138
 30
0.0
 40
0.333333
 41
0.333333
  0
VERTEX
  8
0
 10
337.964
 20
266.063
 30
0.0
 40
0.333333
 41
0.333333
  0
VERTEX
  8
0
 10
337.833
 20
266
 30
0.0
 40
0.333333
 41
0.333333
  0
VERTEX
  8
0
 10
337.696
 20
265.949
 30
0.0
 40
0.333333
 41
0.333333
  0
VERTEX
  8
0
 10
337.551
 20
265.912
 30
0.0
 40
0.333333
 41
0.333333
  0
VERTEX
  8
0
 10
337.403
 20
265.89
 30
0.0
 40
0.333333
 41
0.333333
  0
VERTEX
  8
0
 10
337.287
 20
265.882
 30
0.0
 40
0.333333
 41
0.333333
  0
VERTEX
  8
0
 10
337.25
 20
265.882
 30
0.0
 40
0.333333
 41
0.333333
  0
VERTEX
  8
0
 10
337.211
 20
265.882
 30
0.0
 40
0.333333
 41
0.333333
  0
VERTEX
  8
0
 10
337.096
 20
265.89
 30
0.0
 40
0.333333
 41
0.333333
  0
VERTEX
  8
0
 10
336.947
 20
265.912
 30
0.0
 40
0.333333
 41
0.333333
  0
VERTEX
  8
0
 10
336.803
 20
265.949
 30
0.0
 40
0.333333
 41
0.333333
  0
VERTEX
  8
0
 10
336.665
 20
266
 30
0.0
 40
0.333333
 41
0.333333
  0
VERTEX
  8
0
 10
336.535
 20
266.063
 30
0.0
 40
0.333333
 41
0.333333
  0
VERTEX
  8
0
 10
336.411
 20
266.138
 30
0.0
 40
0.333333
 41
0.333333
  0
VERTEX
  8
0
 10
336.296
 20
266.225
 30
0.0
 40
0.333333
 41
0.333333
  0
VERTEX
  8
0
 10
336.189
 20
266.321
 30
0.0
 40
0.333333
 41
0.333333
  0
VERTEX
  8
0
 10
336.092
 20
266.428
 30
0.0
 40
0.333333
 41
0.333333
  0
VERTEX
  8
0
 10
336.006
 20
266.543
 30
0.0
 40
0.333333
 41
0.333333
  0
VERTEX
  8
0
 10
335.931
 20
266.667
 30
0.0
 40
0.333333
 41
0.333333
  0
VERTEX
  8
0
 10
335.867
 20
266.799
 30
0.0
 40
0.333333
 41
0.333333
  0
VERTEX
  8
0
 10
335.817
 20
266.936
 30
0.0
 40
0.333333
 41
0.333333
  0
VERTEX
  8
0
 10
335.779
 20
267.079
 30
0.0
 40
0.333333
 41
0.333333
  0
VERTEX
  8
0
 10
335.757
 20
267.229
 30
0.0
 40
0.333333
 41
0.333333
  0
VERTEX
  8
0
 10
335.75
 20
267.343
 30
0.0
 40
0.333333
 41
0.333333
  0
VERTEX
  8
0
 10
335.75
 20
267.382
 30
0.0
 40
0.333333
 41
0.333333
  0
VERTEX
  8
0
 10
335.75
 20
267.421
 30
0.0
 40
0.333333
 41
0.333333
  0
VERTEX
  8
0
 10
335.757
 20
267.535
 30
0.0
 40
0.333333
 41
0.333333
  0
VERTEX
  8
0
 10
335.779
 20
267.685
 30
0.0
 40
0.333333
 41
0.333333
  0
VERTEX
  8
0
 10
335.817
 20
267.828
 30
0.0
 40
0.333333
 41
0.333333
  0
VERTEX
  8
0
 10
335.867
 20
267.965
 30
0.0
 40
0.333333
 41
0.333333
  0
VERTEX
  8
0
 10
335.931
 20
268.097
 30
0.0
 40
0.333333
 41
0.333333
  0
VERTEX
  8
0
 10
336.006
 20
268.221
 30
0.0
 40
0.333333
 41
0.333333
  0
VERTEX
  8
0
 10
336.092
 20
268.336
 30
0.0
 40
0.333333
 41
0.333333
  0
VERTEX
  8
0
 10
336.189
 20
268.443
 30
0.0
 40
0.333333
 41
0.333333
  0
VERTEX
  8
0
 10
336.296
 20
268.539
 30
0.0
 40
0.333333
 41
0.333333
  0
VERTEX
  8
0
 10
336.411
 20
268.626
 30
0.0
 40
0.333333
 41
0.333333
  0
VERTEX
  8
0
 10
336.535
 20
268.701
 30
0.0
 40
0.333333
 41
0.333333
  0
VERTEX
  8
0
 10
336.665
 20
268.764
 30
0.0
 40
0.333333
 41
0.333333
  0
VERTEX
  8
0
 10
336.803
 20
268.814
 30
0.0
 40
0.333333
 41
0.333333
  0
VERTEX
  8
0
 10
336.947
 20
268.851
 30
0.0
 40
0.333333
 41
0.333333
  0
VERTEX
  8
0
 10
337.096
 20
268.874
 30
0.0
 40
0.333333
 41
0.333333
  0
VERTEX
  8
0
 10
337.211
 20
268.882
 30
0.0
 40
0.333333
 41
0.333333
  0
VERTEX
  8
0
 10
337.25
 20
268.882
 30
0.0
 40
0.333333
 41
0.333333
  0
VERTEX
  8
0
 10
337.287
 20
268.882
 30
0.0
 40
0.333333
 41
0.333333
  0
VERTEX
  8
0
 10
337.403
 20
268.874
 30
0.0
 40
0.333333
 41
0.333333
  0
VERTEX
  8
0
 10
337.551
 20
268.851
 30
0.0
 40
0.333333
 41
0.333333
  0
VERTEX
  8
0
 10
337.696
 20
268.814
 30
0.0
 40
0.333333
 41
0.333333
  0
VERTEX
  8
0
 10
337.833
 20
268.764
 30
0.0
 40
0.333333
 41
0.333333
  0
VERTEX
  8
0
 10
337.964
 20
268.701
 30
0.0
 40
0.333333
 41
0.333333
  0
VERTEX
  8
0
 10
338.088
 20
268.626
 30
0.0
 40
0.333333
 41
0.333333
  0
VERTEX
  8
0
 10
338.204
 20
268.539
 30
0.0
 40
0.333333
 41
0.333333
  0
VERTEX
  8
0
 10
338.31
 20
268.443
 30
0.0
 40
0.333333
 41
0.333333
  0
VERTEX
  8
0
 10
338.407
 20
268.336
 30
0.0
 40
0.333333
 41
0.333333
  0
VERTEX
  8
0
 10
338.493
 20
268.221
 30
0.0
 40
0.333333
 41
0.333333
  0
VERTEX
  8
0
 10
338.568
 20
268.097
 30
0.0
 40
0.333333
 41
0.333333
  0
VERTEX
  8
0
 10
338.632
 20
267.965
 30
0.0
 40
0.333333
 41
0.333333
  0
VERTEX
  8
0
 10
338.682
 20
267.828
 30
0.0
 40
0.333333
 41
0.333333
  0
VERTEX
  8
0
 10
338.719
 20
267.685
 30
0.0
 40
0.333333
 41
0.333333
  0
VERTEX
  8
0
 10
338.742
 20
267.535
 30
0.0
 40
0.333333
 41
0.333333
  0
VERTEX
  8
0
 10
338.75
 20
267.421
 30
0.0
 40
0.333333
 41
0.333333
  0
VERTEX
  8
0
 10
338.75
 20
267.382
 30
0.0
 40
0.333333
 41
0.333333
  0
SEQEND
 8
0
  0
POLYLINE
  8
0
 62
     0
 66
     1
 10
0
 20
0
 30
0.0
 70
     1
 40
25.4
 41
25.4
  0
VERTEX
  8
0
 10
3.3514
 20
279.59
 30
0.0
 40
0.352778
 41
0.352778
  0
VERTEX
  8
0
 10
3.3514
 20
292.29
 30
0.0
 40
0.352778
 41
0.352778
  0
VERTEX
  8
0
 10
0.176378
 20
292.29
 30
0.0
 40
0.352778
 41
0.352778
  0
VERTEX
  8
0
 10
0.176378
 20
304.99
 30
0.0
 40
0.352778
 41
0.352778
  0
VERTEX
  8
0
 10
3.3514
 20
304.99
 30
0.0
 40
0.352778
 41
0.352778
  0
VERTEX
  8
0
 10
3.3514
 20
317.69
 30
0.0
 40
0.352778
 41
0.352778
  0
VERTEX
  8
0
 10
0.176378
 20
317.69
 30
0.0
 40
0.352778
 41
0.352778
  0
VERTEX
  8
0
 10
0.176378
 20
330.39
 30
0.0
 40
0.352778
 41
0.352778
  0
VERTEX
  8
0
 10
3.3514
 20
330.39
 30
0.0
 40
0.352778
 41
0.352778
  0
VERTEX
  8
0
 10
3.3514
 20
343.09
 30
0.0
 40
0.352778
 41
0.352778
  0
VERTEX
  8
0
 10
0.176378
 20
343.09
 30
0.0
 40
0.352778
 41
0.352778
  0
VERTEX
  8
0
 10
0.176378
 20
355.79
 30
0.0
 40
0.352778
 41
0.352778
  0
VERTEX
  8
0
 10
3.3514
 20
355.79
 30
0.0
 40
0.352778
 41
0.352778
  0
VERTEX
  8
0
 10
3.3514
 20
368.49
 30
0.0
 40
0.352778
 41
0.352778
  0
VERTEX
  8
0
 10
0.176378
 20
368.49
 30
0.0
 40
0.352778
 41
0.352778
  0
VERTEX
  8
0
 10
0.176378
 20
381.19
 30
0.0
 40
0.352778
 41
0.352778
  0
VERTEX
  8
0
 10
3.3514
 20
381.19
 30
0.0
 40
0.352778
 41
0.352778
  0
VERTEX
  8
0
 10
3.3514
 20
393.89
 30
0.0
 40
0.352778
 41
0.352778
  0
VERTEX
  8
0
 10
0.176378
 20
393.89
 30
0.0
 40
0.352778
 41
0.352778
  0
VERTEX
  8
0
 10
0.176378
 20
406.59
 30
0.0
 40
0.352778
 41
0.352778
  0
VERTEX
  8
0
 10
3.3514
 20
406.59
 30
0.0
 40
0.352778
 41
0.352778
  0
VERTEX
  8
0
 10
3.3514
 20
419.29
 30
0.0
 40
0.352778
 41
0.352778
  0
VERTEX
  8
0
 10
0.176378
 20
419.29
 30
0.0
 40
0.352778
 41
0.352778
  0
VERTEX
  8
0
 10
0.176378
 20
431.99
 30
0.0
 40
0.352778
 41
0.352778
  0
VERTEX
  8
0
 10
3.3514
 20
431.99
 30
0.0
 40
0.352778
 41
0.352778
  0
VERTEX
  8
0
 10
3.3514
 20
444.69
 30
0.0
 40
0.352778
 41
0.352778
  0
VERTEX
  8
0
 10
0.176378
 20
444.69
 30
0.0
 40
0.352778
 41
0.352778
  0
VERTEX
  8
0
 10
0.176378
 20
457.39
 30
0.0
 40
0.352778
 41
0.352778
  0
VERTEX
  8
0
 10
3.3514
 20
457.39
 30
0.0
 40
0.352778
 41
0.352778
  0
VERTEX
  8
0
 10
3.3514
 20
470.09
 30
0.0
 40
0.352778
 41
0.352778
  0
VERTEX
  8
0
 10
0.176378
 20
470.09
 30
0.0
 40
0.352778
 41
0.352778
  0
VERTEX
  8
0
 10
0.176378
 20
482.79
 30
0.0
 40
0.352778
 41
0.352778
  0
VERTEX
  8
0
 10
3.3514
 20
482.79
 30
0.0
 40
0.352778
 41
0.352778
  0
VERTEX
  8
0
 10
3.3514
 20
495.49
 30
0.0
 40
0.352778
 41
0.352778
  0
VERTEX
  8
0
 10
0.176378
 20
495.49
 30
0.0
 40
0.352778
 41
0.352778
  0
VERTEX
  8
0
 10
0.176378
 20
508.19
 30
0.0
 40
0.352778
 41
0.352778
  0
VERTEX
  8
0
 10
3.3514
 20
508.19
 30
0.0
 40
0.352778
 41
0.352778
  0
VERTEX
  8
0
 10
3.3514
 20
520.89
 30
0.0
 40
0.352778
 41
0.352778
  0
VERTEX
  8
0
 10
0.176378
 20
520.89
 30
0.0
 40
0.352778
 41
0.352778
  0
VERTEX
  8
0
 10
0.176378
 20
533.59
 30
0.0
 40
0.352778
 41
0.352778
  0
VERTEX
  8
0
 10
3.3514
 20
533.59
 30
0.0
 40
0.352778
 41
0.352778
  0
VERTEX
  8
0
 10
3.3514
 20
546.29
 30
0.0
 40
0.352778
 41
0.352778
  0
VERTEX
  8
0
 10
0.176378
 20
546.29
 30
0.0
 40
0.352778
 41
0.352778
  0
VERTEX
  8
0
 10
0.176378
 20
553.403
 30
0.0
 40
0.352778
 41
0.352778
  0
VERTEX
  8
0
 10
45.9176
 20
553.403
 30
0.0
 40
0.352778
 41
0.352778
  0
VERTEX
  8
0
 10
45.9176
 20
558.99
 30
0.0
 40
0.352778
 41
0.352778
  0
VERTEX
  8
0
 10
100.104
 20
558.99
 30
0.0
 40
0.352778
 41
0.352778
  0
VERTEX
  8
0
 10
100.104
 20
553.403
 30
0.0
 40
0.352778
 41
0.352778
  0
VERTEX
  8
0
 10
154.292
 20
553.403
 30
0.0
 40
0.352778
 41
0.352778
  0
VERTEX
  8
0
 10
154.292
 20
558.99
 30
0.0
 40
0.352778
 41
0.352778
  0
VERTEX
  8
0
 10
208.478
 20
558.99
 30
0.0
 40
0.352778
 41
0.352778
  0
VERTEX
  8
0
 10
208.478
 20
553.403
 30
0.0
 40
0.352778
 41
0.352778
  0
VERTEX
  8
0
 10
262.665
 20
553.403
 30
0.0
 40
0.352778
 41
0.352778
  0
VERTEX
  8
0
 10
262.665
 20
558.99
 30
0.0
 40
0.352778
 41
0.352778
  0
VERTEX
  8
0
 10
316.851
 20
558.99
 30
0.0
 40
0.352778
 41
0.352778
  0
VERTEX
  8
0
 10
316.851
 20
553.403
 30
0.0
 40
0.352778
 41
0.352778
  0
VERTEX
  8
0
 10
371.037
 20
553.403
 30
0.0
 40
0.352778
 41
0.352778
  0
VERTEX
  8
0
 10
371.037
 20
558.99
 30
0.0
 40
0.352778
 41
0.352778
  0
VERTEX
  8
0
 10
425.225
 20
558.99
 30
0.0
 40
0.352778
 41
0.352778
  0
VERTEX
  8
0
 10
425.225
 20
553.403
 30
0.0
 40
0.352778
 41
0.352778
  0
VERTEX
  8
0
 10
470.967
 20
553.403
 30
0.0
 40
0.352778
 41
0.352778
  0
VERTEX
  8
0
 10
470.967
 20
546.29
 30
0.0
 40
0.352778
 41
0.352778
  0
VERTEX
  8
0
 10
467.792
 20
546.29
 30
0.0
 40
0.352778
 41
0.352778
  0
VERTEX
  8
0
 10
467.792
 20
533.59
 30
0.0
 40
0.352778
 41
0.352778
  0
VERTEX
  8
0
 10
470.967
 20
533.59
 30
0.0
 40
0.352778
 41
0.352778
  0
VERTEX
  8
0
 10
470.967
 20
520.89
 30
0.0
 40
0.352778
 41
0.352778
  0
VERTEX
  8
0
 10
467.792
 20
520.89
 30
0.0
 40
0.352778
 41
0.352778
  0
VERTEX
  8
0
 10
467.792
 20
508.19
 30
0.0
 40
0.352778
 41
0.352778
  0
VERTEX
  8
0
 10
470.967
 20
508.19
 30
0.0
 40
0.352778
 41
0.352778
  0
VERTEX
  8
0
 10
470.967
 20
495.49
 30
0.0
 40
0.352778
 41
0.352778
  0
VERTEX
  8
0
 10
467.792
 20
495.49
 30
0.0
 40
0.352778
 41
0.352778
  0
VERTEX
  8
0
 10
467.792
 20
482.79
 30
0.0
 40
0.352778
 41
0.352778
  0
VERTEX
  8
0
 10
470.967
 20
482.79
 30
0.0
 40
0.352778
 41
0.352778
  0
VERTEX
  8
0
 10
470.967
 20
470.09
 30
0.0
 40
0.352778
 41
0.352778
  0
VERTEX
  8
0
 10
467.792
 20
470.09
 30
0.0
 40
0.352778
 41
0.352778
  0
VERTEX
  8
0
 10
467.792
 20
457.39
 30
0.0
 40
0.352778
 41
0.352778
  0
VERTEX
  8
0
 10
470.967
 20
457.39
 30
0.0
 40
0.352778
 41
0.352778
  0
VERTEX
  8
0
 10
470.967
 20
444.69
 30
0.0
 40
0.352778
 41
0.352778
  0
VERTEX
  8
0
 10
467.792
 20
444.69
 30
0.0
 40
0.352778
 41
0.352778
  0
VERTEX
  8
0
 10
467.792
 20
431.99
 30
0.0
 40
0.352778
 41
0.352778
  0
VERTEX
  8
0
 10
470.967
 20
431.99
 30
0.0
 40
0.352778
 41
0.352778
  0
VERTEX
  8
0
 10
470.967
 20
419.29
 30
0.0
 40
0.352778
 41
0.352778
  0
VERTEX
  8
0
 10
467.792
 20
419.29
 30
0.0
 40
0.352778
 41
0.352778
  0
VERTEX
  8
0
 10
467.792
 20
406.59
 30
0.0
 40
0.352778
 41
0.352778
  0
VERTEX
  8
0
 10
470.967
 20
406.59
 30
0.0
 40
0.352778
 41
0.352778
  0
VERTEX
  8
0
 10
470.967
 20
393.89
 30
0.0
 40
0.352778
 41
0.352778
  0
VERTEX
  8
0
 10
467.792
 20
393.89
 30
0.0
 40
0.352778
 41
0.352778
  0
VERTEX
  8
0
 10
467.792
 20
381.19
 30
0.0
 40
0.352778
 41
0.352778
  0
VERTEX
  8
0
 10
470.967
 20
381.19
 30
0.0
 40
0.352778
 41
0.352778
  0
VERTEX
  8
0
 10
470.967
 20
368.49
 30
0.0
 40
0.352778
 41
0.352778
  0
VERTEX
  8
0
 10
467.792
 20
368.49
 30
0.0
 40
0.352778
 41
0.352778
  0
VERTEX
  8
0
 10
467.792
 20
355.79
 30
0.0
 40
0.352778
 41
0.352778
  0
VERTEX
  8
0
 10
470.967
 20
355.79
 30
0.0
 40
0.352778
 41
0.352778
  0
VERTEX
  8
0
 10
470.967
 20
343.09
 30
0.0
 40
0.352778
 41
0.352778
  0
VERTEX
  8
0
 10
467.792
 20
343.09
 30
0.0
 40
0.352778
 41
0.352778
  0
VERTEX
  8
0
 10
467.792
 20
330.39
 30
0.0
 40
0.352778
 41
0.352778
  0
VERTEX
  8
0
 10
470.967
 20
330.39
 30
0.0
 40
0.352778
 41
0.352778
  0
VERTEX
  8
0
 10
470.967
 20
317.69
 30
0.0
 40
0.352778
 41
0.352778
  0
VERTEX
  8
0
 10
467.792
 20
317.69
 30
0.0
 40
0.352778
 41
0.352778
  0
VERTEX
  8
0
 10
467.792
 20
304.99
 30
0.0
 40
0.352778
 41
0.352778
  0
VERTEX
  8
0
 10
470.967
 20
304.99
 30
0.0
 40
0.352778
 41
0.352778
  0
VERTEX
  8
0
 10
470.967
 20
292.29
 30
0.0
 40
0.352778
 41
0.352778
  0
VERTEX
  8
0
 10
467.792
 20
292.29
 30
0.0
 40
0.352778
 41
0.352778
  0
VERTEX
  8
0
 10
467.792
 20
279.59
 30
0.0
 40
0.352778
 41
0.352778
  0
VERTEX
  8
0
 10
3.3514
 20
279.59
 30
0.0
 40
0.352778
 41
0.352778
  0
SEQEND
 8
0
  0
POLYLINE
  8
0
 62
     0
 66
     1
 10
0
 20
0
 30
0.0
 70
     1
 40
25.4
 41
25.4
  0
VERTEX
  8
0
 10
261.479
 20
537.742
 30
0.0
 40
0.352778
 41
0.352778
  0
VERTEX
  8
0
 10
289.419
 20
537.742
 30
0.0
 40
0.352778
 41
0.352778
  0
VERTEX
  8
0
 10
289.419
 20
530.853
 30
0.0
 40
0.352778
 41
0.352778
  0
VERTEX
  8
0
 10
261.479
 20
530.853
 30
0.0
 40
0.352778
 41
0.352778
  0
VERTEX
  8
0
 10
261.479
 20
537.742
 30
0.0
 40
0.352778
 41
0.352778
  0
SEQEND
 8
0
  0
POLYLINE
  8
0
 62
     0
 66
     1
 10
0
 20
0
 30
0.0
 70
     1
 40
25.4
 41
25.4
  0
VERTEX
  8
0
 10
181.724
 20
537.742
 30
0.0
 40
0.352778
 41
0.352778
  0
VERTEX
  8
0
 10
209.664
 20
537.742
 30
0.0
 40
0.352778
 41
0.352778
  0
VERTEX
  8
0
 10
209.664
 20
530.853
 30
0.0
 40
0.352778
 41
0.352778
  0
VERTEX
  8
0
 10
181.724
 20
530.853
 30
0.0
 40
0.352778
 41
0.352778
  0
VERTEX
  8
0
 10
181.724
 20
537.742
 30
0.0
 40
0.352778
 41
0.352778
  0
SEQEND
 8
0
  0
POLYLINE
  8
0
 62
     0
 66
     1
 10
0
 20
0
 30
0.0
 70
     1
 40
25.4
 41
25.4
  0
VERTEX
  8
0
 10
150.535
 20
477.203
 30
0.0
 40
0.352778
 41
0.352778
  0
VERTEX
  8
0
 10
154.212
 20
477.203
 30
0.0
 40
0.352778
 41
0.352778
  0
VERTEX
  8
0
 10
154.212
 20
451.803
 30
0.0
 40
0.352778
 41
0.352778
  0
VERTEX
  8
0
 10
150.535
 20
451.803
 30
0.0
 40
0.352778
 41
0.352778
  0
VERTEX
  8
0
 10
150.535
 20
477.203
 30
0.0
 40
0.352778
 41
0.352778
  0
SEQEND
 8
0
  0
POLYLINE
  8
0
 62
     0
 66
     1
 10
0
 20
0
 30
0.0
 70
     1
 40
25.4
 41
25.4
  0
VERTEX
  8
0
 10
316.929
 20
477.203
 30
0.0
 40
0.352778
 41
0.352778
  0
VERTEX
  8
0
 10
320.607
 20
477.203
 30
0.0
 40
0.352778
 41
0.352778
  0
VERTEX
  8
0
 10
320.607
 20
451.803
 30
0.0
 40
0.352778
 41
0.352778
  0
VERTEX
  8
0
 10
316.929
 20
451.803
 30
0.0
 40
0.352778
 41
0.352778
  0
VERTEX
  8
0
 10
316.929
 20
477.203
 30
0.0
 40
0.352778
 41
0.352778
  0
SEQEND
 8
0
  0
POLYLINE
  8
0
 62
     0
 66
     1
 10
0
 20
0
 30
0.0
 70
     1
 40
25.4
 41
25.4
  0
VERTEX
  8
0
 10
135.573
 20
477.203
 30
0.0
 40
0.352778
 41
0.352778
  0
VERTEX
  8
0
 10
139.251
 20
477.203
 30
0.0
 40
0.352778
 41
0.352778
  0
VERTEX
  8
0
 10
139.251
 20
451.803
 30
0.0
 40
0.352778
 41
0.352778
  0
VERTEX
  8
0
 10
135.573
 20
451.803
 30
0.0
 40
0.352778
 41
0.352778
  0
VERTEX
  8
0
 10
135.573
 20
477.203
 30
0.0
 40
0.352778
 41
0.352778
  0
SEQEND
 8
0
  0
POLYLINE
  8
0
 62
     0
 66
     1
 10
0
 20
0
 30
0.0
 70
     1
 40
25.4
 41
25.4
  0
VERTEX
  8
0
 10
150.535
 20
528.003
 30
0.0
 40
0.352778
 41
0.352778
  0
VERTEX
  8
0
 10
154.212
 20
528.003
 30
0.0
 40
0.352778
 41
0.352778
  0
VERTEX
  8
0
 10
154.212
 20
502.603
 30
0.0
 40
0.352778
 41
0.352778
  0
VERTEX
  8
0
 10
150.535
 20
502.603
 30
0.0
 40
0.352778
 41
0.352778
  0
VERTEX
  8
0
 10
150.535
 20
528.003
 30
0.0
 40
0.352778
 41
0.352778
  0
SEQEND
 8
0
  0
POLYLINE
  8
0
 62
     0
 66
     1
 10
0
 20
0
 30
0.0
 70
     1
 40
25.4
 41
25.4
  0
VERTEX
  8
0
 10
331.892
 20
528.003
 30
0.0
 40
0.352778
 41
0.352778
  0
VERTEX
  8
0
 10
335.569
 20
528.003
 30
0.0
 40
0.352778
 41
0.352778
  0
VERTEX
  8
0
 10
335.569
 20
502.603
 30
0.0
 40
0.352778
 41
0.352778
  0
VERTEX
  8
0
 10
331.892
 20
502.603
 30
0.0
 40
0.352778
 41
0.352778
  0
VERTEX
  8
0
 10
331.892
 20
528.003
 30
0.0
 40
0.352778
 41
0.352778
  0
SEQEND
 8
0
  0
POLYLINE
  8
0
 62
     0
 66
     1
 10
0
 20
0
 30
0.0
 70
     1
 40
25.4
 41
25.4
  0
VERTEX
  8
0
 10
135.573
 20
528.003
 30
0.0
 40
0.352778
 41
0.352778
  0
VERTEX
  8
0
 10
139.251
 20
528.003
 30
0.0
 40
0.352778
 41
0.352778
  0
VERTEX
  8
0
 10
139.251
 20
502.603
 30
0.0
 40
0.352778
 41
0.352778
  0
VERTEX
  8
0
 10
135.573
 20
502.603
 30
0.0
 40
0.352778
 41
0.352778
  0
VERTEX
  8
0
 10
135.573
 20
528.003
 30
0.0
 40
0.352778
 41
0.352778
  0
SEQEND
 8
0
  0
POLYLINE
  8
0
 62
     0
 66
     1
 10
0
 20
0
 30
0.0
 70
     1
 40
25.4
 41
25.4
  0
VERTEX
  8
0
 10
331.892
 20
477.203
 30
0.0
 40
0.352778
 41
0.352778
  0
VERTEX
  8
0
 10
335.569
 20
477.203
 30
0.0
 40
0.352778
 41
0.352778
  0
VERTEX
  8
0
 10
335.569
 20
451.803
 30
0.0
 40
0.352778
 41
0.352778
  0
VERTEX
  8
0
 10
331.892
 20
451.803
 30
0.0
 40
0.352778
 41
0.352778
  0
VERTEX
  8
0
 10
331.892
 20
477.203
 30
0.0
 40
0.352778
 41
0.352778
  0
SEQEND
 8
0
  0
POLYLINE
  8
0
 62
     0
 66
     1
 10
0
 20
0
 30
0.0
 70
     1
 40
25.4
 41
25.4
  0
VERTEX
  8
0
 10
316.929
 20
528.003
 30
0.0
 40
0.352778
 41
0.352778
  0
VERTEX
  8
0
 10
320.607
 20
528.003
 30
0.0
 40
0.352778
 41
0.352778
  0
VERTEX
  8
0
 10
320.607
 20
502.603
 30
0.0
 40
0.352778
 41
0.352778
  0
VERTEX
  8
0
 10
316.929
 20
502.603
 30
0.0
 40
0.352778
 41
0.352778
  0
VERTEX
  8
0
 10
316.929
 20
528.003
 30
0.0
 40
0.352778
 41
0.352778
  0
SEQEND
 8
0
  0
POLYLINE
  8
0
 62
     0
 66
     1
 10
0
 20
0
 30
0.0
 40
25.4
 41
25.4
  0
VERTEX
  8
0
 10
3.3514
 20
279.59
 30
0.0
 40
0.352778
 41
0.352778
  0
VERTEX
  8
0
 10
3.3514
 20
266.89
 30
0.0
 40
0.352778
 41
0.352778
  0
VERTEX
  8
0
 10
0.176378
 20
266.89
 30
0.0
 40
0.352778
 41
0.352778
  0
VERTEX
  8
0
 10
0.176378
 20
254.19
 30
0.0
 40
0.352778
 41
0.352778
  0
VERTEX
  8
0
 10
3.3514
 20
254.19
 30
0.0
 40
0.352778
 41
0.352778
  0
VERTEX
  8
0
 10
3.3514
 20
241.49
 30
0.0
 40
0.352778
 41
0.352778
  0
VERTEX
  8
0
 10
0.176378
 20
241.49
 30
0.0
 40
0.352778
 41
0.352778
  0
VERTEX
  8
0
 10
0.176378
 20
228.79
 30
0.0
 40
0.352778
 41
0.352778
  0
VERTEX
  8
0
 10
3.3514
 20
228.79
 30
0.0
 40
0.352778
 41
0.352778
  0
VERTEX
  8
0
 10
3.3514
 20
216.09
 30
0.0
 40
0.352778
 41
0.352778
  0
VERTEX
  8
0
 10
0.176378
 20
216.09
 30
0.0
 40
0.352778
 41
0.352778
  0
VERTEX
  8
0
 10
0.176378
 20
203.39
 30
0.0
 40
0.352778
 41
0.352778
  0
VERTEX
  8
0
 10
3.3514
 20
203.39
 30
0.0
 40
0.352778
 41
0.352778
  0
VERTEX
  8
0
 10
3.3514
 20
190.69
 30
0.0
 40
0.352778
 41
0.352778
  0
VERTEX
  8
0
 10
0.176378
 20
190.69
 30
0.0
 40
0.352778
 41
0.352778
  0
VERTEX
  8
0
 10
0.176378
 20
177.99
 30
0.0
 40
0.352778
 41
0.352778
  0
VERTEX
  8
0
 10
3.3514
 20
177.99
 30
0.0
 40
0.352778
 41
0.352778
  0
VERTEX
  8
0
 10
3.3514
 20
165.29
 30
0.0
 40
0.352778
 41
0.352778
  0
VERTEX
  8
0
 10
0.176378
 20
165.29
 30
0.0
 40
0.352778
 41
0.352778
  0
VERTEX
  8
0
 10
0.176378
 20
152.59
 30
0.0
 40
0.352778
 41
0.352778
  0
VERTEX
  8
0
 10
3.3514
 20
152.59
 30
0.0
 40
0.352778
 41
0.352778
  0
VERTEX
  8
0
 10
3.3514
 20
139.89
 30
0.0
 40
0.352778
 41
0.352778
  0
VERTEX
  8
0
 10
0.176378
 20
139.89
 30
0.0
 40
0.352778
 41
0.352778
  0
VERTEX
  8
0
 10
0.176378
 20
127.19
 30
0.0
 40
0.352778
 41
0.352778
  0
VERTEX
  8
0
 10
3.3514
 20
127.19
 30
0.0
 40
0.352778
 41
0.352778
  0
VERTEX
  8
0
 10
3.3514
 20
114.49
 30
0.0
 40
0.352778
 41
0.352778
  0
VERTEX
  8
0
 10
0.176378
 20
114.49
 30
0.0
 40
0.352778
 41
0.352778
  0
VERTEX
  8
0
 10
0.176378
 20
101.79
 30
0.0
 40
0.352778
 41
0.352778
  0
VERTEX
  8
0
 10
3.3514
 20
101.79
 30
0.0
 40
0.352778
 41
0.352778
  0
VERTEX
  8
0
 10
3.3514
 20
89.0896
 30
0.0
 40
0.352778
 41
0.352778
  0
VERTEX
  8
0
 10
0.176378
 20
89.0896
 30
0.0
 40
0.352778
 41
0.352778
  0
VERTEX
  8
0
 10
0.176378
 20
76.3896
 30
0.0
 40
0.352778
 41
0.352778
  0
VERTEX
  8
0
 10
3.3514
 20
76.3896
 30
0.0
 40
0.352778
 41
0.352778
  0
VERTEX
  8
0
 10
3.3514
 20
63.6894
 30
0.0
 40
0.352778
 41
0.352778
  0
VERTEX
  8
0
 10
0.176378
 20
63.6894
 30
0.0
 40
0.352778
 41
0.352778
  0
VERTEX
  8
0
 10
0.176378
 20
50.9894
 30
0.0
 40
0.352778
 41
0.352778
  0
VERTEX
  8
0
 10
3.3514
 20
50.9894
 30
0.0
 40
0.352778
 41
0.352778
  0
VERTEX
  8
0
 10
3.3514
 20
38.2894
 30
0.0
 40
0.352778
 41
0.352778
  0
VERTEX
  8
0
 10
0.176378
 20
38.2894
 30
0.0
 40
0.352778
 41
0.352778
  0
VERTEX
  8
0
 10
0.176378
 20
25.5894
 30
0.0
 40
0.352778
 41
0.352778
  0
VERTEX
  8
0
 10
3.3514
 20
25.5894
 30
0.0
 40
0.352778
 41
0.352778
  0
VERTEX
  8
0
 10
3.3514
 20
12.8894
 30
0.0
 40
0.352778
 41
0.352778
  0
VERTEX
  8
0
 10
0.176378
 20
12.8894
 30
0.0
 40
0.352778
 41
0.352778
  0
VERTEX
  8
0
 10
0.176378
 20
5.7774
 30
0.0
 40
0.352778
 41
0.352778
  0
VERTEX
  8
0
 10
45.9176
 20
5.7774
 30
0.0
 40
0.352778
 41
0.352778
  0
VERTEX
  8
0
 10
45.9176
 20
0.189399
 30
0.0
 40
0.352778
 41
0.352778
  0
VERTEX
  8
0
 10
100.104
 20
0.189399
 30
0.0
 40
0.352778
 41
0.352778
  0
VERTEX
  8
0
 10
100.104
 20
5.7774
 30
0.0
 40
0.352778
 41
0.352778
  0
VERTEX
  8
0
 10
139.051
 20
5.7774
 30
0.0
 40
0.352778
 41
0.352778
  0
VERTEX
  8
0
 10
139.051
 20
140.715
 30
0.0
 40
0.352778
 41
0.352778
  0
VERTEX
  8
0
 10
129.018
 20
140.715
 30
0.0
 40
0.352778
 41
0.352778
  0
VERTEX
  8
0
 10
129.018
 20
150.24
 30
0.0
 40
0.352778
 41
0.352778
  0
VERTEX
  8
0
 10
139.051
 20
150.24
 30
0.0
 40
0.352778
 41
0.352778
  0
VERTEX
  8
0
 10
139.051
 20
221.932
 30
0.0
 40
0.352778
 41
0.352778
  0
VERTEX
  8
0
 10
142.925
 20
221.932
 30
0.0
 40
0.352778
 41
0.352778
  0
VERTEX
  8
0
 10
142.925
 20
266.382
 30
0.0
 40
0.352778
 41
0.352778
  0
VERTEX
  8
0
 10
146.861
 20
266.382
 30
0.0
 40
0.352778
 41
0.352778
  0
VERTEX
  8
0
 10
146.861
 20
221.932
 30
0.0
 40
0.352778
 41
0.352778
  0
VERTEX
  8
0
 10
150.735
 20
221.932
 30
0.0
 40
0.352778
 41
0.352778
  0
VERTEX
  8
0
 10
150.735
 20
150.24
 30
0.0
 40
0.352778
 41
0.352778
  0
VERTEX
  8
0
 10
160.768
 20
150.24
 30
0.0
 40
0.352778
 41
0.352778
  0
VERTEX
  8
0
 10
160.768
 20
140.715
 30
0.0
 40
0.352778
 41
0.352778
  0
VERTEX
  8
0
 10
150.735
 20
140.715
 30
0.0
 40
0.352778
 41
0.352778
  0
VERTEX
  8
0
 10
150.735
 20
5.7774
 30
0.0
 40
0.352778
 41
0.352778
  0
VERTEX
  8
0
 10
154.292
 20
5.7774
 30
0.0
 40
0.352778
 41
0.352778
  0
VERTEX
  8
0
 10
154.292
 20
0.189399
 30
0.0
 40
0.352778
 41
0.352778
  0
VERTEX
  8
0
 10
183.393
 20
0.189399
 30
0.0
 40
0.352778
 41
0.352778
  0
VERTEX
  8
0
 10
183.393
 20
5.7774
 30
0.0
 40
0.352778
 41
0.352778
  0
VERTEX
  8
0
 10
180.092
 20
5.7774
 30
0.0
 40
0.352778
 41
0.352778
  0
VERTEX
  8
0
 10
180.092
 20
27.4794
 30
0.0
 40
0.352778
 41
0.352778
  0
VERTEX
  8
0
 10
183.393
 20
27.4794
 30
0.0
 40
0.352778
 41
0.352778
  0
VERTEX
  8
0
 10
183.393
 20
33.7175
 30
0.0
 40
0.352778
 41
0.352778
  0
VERTEX
  8
0
 10
233.393
 20
33.7175
 30
0.0
 40
0.352778
 41
0.352778
  0
VERTEX
  8
0
 10
233.393
 20
27.4794
 30
0.0
 40
0.352778
 41
0.352778
  0
VERTEX
  8
0
 10
236.696
 20
27.4794
 30
0.0
 40
0.352778
 41
0.352778
  0
VERTEX
  8
0
 10
236.696
 20
5.7774
 30
0.0
 40
0.352778
 41
0.352778
  0
VERTEX
  8
0
 10
262.665
 20
5.7774
 30
0.0
 40
0.352778
 41
0.352778
  0
VERTEX
  8
0
 10
262.665
 20
0.189399
 30
0.0
 40
0.352778
 41
0.352778
  0
VERTEX
  8
0
 10
316.851
 20
0.189399
 30
0.0
 40
0.352778
 41
0.352778
  0
VERTEX
  8
0
 10
316.851
 20
5.7774
 30
0.0
 40
0.352778
 41
0.352778
  0
VERTEX
  8
0
 10
320.407
 20
5.7774
 30
0.0
 40
0.352778
 41
0.352778
  0
VERTEX
  8
0
 10
320.407
 20
140.715
 30
0.0
 40
0.352778
 41
0.352778
  0
VERTEX
  8
0
 10
310.375
 20
140.715
 30
0.0
 40
0.352778
 41
0.352778
  0
VERTEX
  8
0
 10
310.375
 20
150.24
 30
0.0
 40
0.352778
 41
0.352778
  0
VERTEX
  8
0
 10
320.407
 20
150.24
 30
0.0
 40
0.352778
 41
0.352778
  0
VERTEX
  8
0
 10
320.407
 20
221.932
 30
0.0
 40
0.352778
 41
0.352778
  0
VERTEX
  8
0
 10
324.281
 20
221.932
 30
0.0
 40
0.352778
 41
0.352778
  0
VERTEX
  8
0
 10
324.281
 20
266.382
 30
0.0
 40
0.352778
 41
0.352778
  0
VERTEX
  8
0
 10
328.218
 20
266.382
 30
0.0
 40
0.352778
 41
0.352778
  0
VERTEX
  8
0
 10
328.218
 20
221.932
 30
0.0
 40
0.352778
 41
0.352778
  0
VERTEX
  8
0
 10
332.092
 20
221.932
 30
0.0
 40
0.352778
 41
0.352778
  0
VERTEX
  8
0
 10
332.092
 20
150.24
 30
0.0
 40
0.352778
 41
0.352778
  0
VERTEX
  8
0
 10
342.125
 20
150.24
 30
0.0
 40
0.352778
 41
0.352778
  0
VERTEX
  8
0
 10
342.125
 20
140.715
 30
0.0
 40
0.352778
 41
0.352778
  0
VERTEX
  8
0
 10
332.092
 20
140.715
 30
0.0
 40
0.352778
 41
0.352778
  0
VERTEX
  8
0
 10
332.092
 20
5.7774
 30
0.0
 40
0.352778
 41
0.352778
  0
VERTEX
  8
0
 10
371.037
 20
5.7774
 30
0.0
 40
0.352778
 41
0.352778
  0
VERTEX
  8
0
 10
371.037
 20
0.189399
 30
0.0
 40
0.352778
 41
0.352778
  0
VERTEX
  8
0
 10
425.225
 20
0.189399
 30
0.0
 40
0.352778
 41
0.352778
  0
VERTEX
  8
0
 10
425.225
 20
5.7774
 30
0.0
 40
0.352778
 41
0.352778
  0
VERTEX
  8
0
 10
470.967
 20
5.7774
 30
0.0
 40
0.352778
 41
0.352778
  0
VERTEX
  8
0
 10
470.967
 20
12.8894
 30
0.0
 40
0.352778
 41
0.352778
  0
VERTEX
  8
0
 10
467.792
 20
12.8894
 30
0.0
 40
0.352778
 41
0.352778
  0
VERTEX
  8
0
 10
467.792
 20
25.5894
 30
0.0
 40
0.352778
 41
0.352778
  0
VERTEX
  8
0
 10
470.967
 20
25.5894
 30
0.0
 40
0.352778
 41
0.352778
  0
VERTEX
  8
0
 10
470.967
 20
38.2894
 30
0.0
 40
0.352778
 41
0.352778
  0
VERTEX
  8
0
 10
467.792
 20
38.2894
 30
0.0
 40
0.352778
 41
0.352778
  0
VERTEX
  8
0
 10
467.792
 20
50.9894
 30
0.0
 40
0.352778
 41
0.352778
  0
VERTEX
  8
0
 10
470.967
 20
50.9894
 30
0.0
 40
0.352778
 41
0.352778
  0
VERTEX
  8
0
 10
470.967
 20
63.6894
 30
0.0
 40
0.352778
 41
0.352778
  0
VERTEX
  8
0
 10
467.792
 20
63.6894
 30
0.0
 40
0.352778
 41
0.352778
  0
VERTEX
  8
0
 10
467.792
 20
76.3896
 30
0.0
 40
0.352778
 41
0.352778
  0
VERTEX
  8
0
 10
470.967
 20
76.3896
 30
0.0
 40
0.352778
 41
0.352778
  0
VERTEX
  8
0
 10
470.967
 20
89.0896
 30
0.0
 40
0.352778
 41
0.352778
  0
VERTEX
  8
0
 10
467.792
 20
89.0896
 30
0.0
 40
0.352778
 41
0.352778
  0
VERTEX
  8
0
 10
467.792
 20
101.79
 30
0.0
 40
0.352778
 41
0.352778
  0
VERTEX
  8
0
 10
470.967
 20
101.79
 30
0.0
 40
0.352778
 41
0.352778
  0
VERTEX
  8
0
 10
470.967
 20
114.49
 30
0.0
 40
0.352778
 41
0.352778
  0
VERTEX
  8
0
 10
467.792
 20
114.49
 30
0.0
 40
0.352778
 41
0.352778
  0
VERTEX
  8
0
 10
467.792
 20
127.19
 30
0.0
 40
0.352778
 41
0.352778
  0
VERTEX
  8
0
 10
470.967
 20
127.19
 30
0.0
 40
0.352778
 41
0.352778
  0
VERTEX
  8
0
 10
470.967
 20
139.89
 30
0.0
 40
0.352778
 41
0.352778
  0
VERTEX
  8
0
 10
467.792
 20
139.89
 30
0.0
 40
0.352778
 41
0.352778
  0
VERTEX
  8
0
 10
467.792
 20
152.59
 30
0.0
 40
0.352778
 41
0.352778
  0
VERTEX
  8
0
 10
470.967
 20
152.59
 30
0.0
 40
0.352778
 41
0.352778
  0
VERTEX
  8
0
 10
470.967
 20
165.29
 30
0.0
 40
0.352778
 41
0.352778
  0
VERTEX
  8
0
 10
467.792
 20
165.29
 30
0.0
 40
0.352778
 41
0.352778
  0
VERTEX
  8
0
 10
467.792
 20
177.99
 30
0.0
 40
0.352778
 41
0.352778
  0
VERTEX
  8
0
 10
470.967
 20
177.99
 30
0.0
 40
0.352778
 41
0.352778
  0
VERTEX
  8
0
 10
470.967
 20
190.69
 30
0.0
 40
0.352778
 41
0.352778
  0
VERTEX
  8
0
 10
467.792
 20
190.69
 30
0.0
 40
0.352778
 41
0.352778
  0
VERTEX
  8
0
 10
467.792
 20
203.39
 30
0.0
 40
0.352778
 41
0.352778
  0
VERTEX
  8
0
 10
470.967
 20
203.39
 30
0.0
 40
0.352778
 41
0.352778
  0
VERTEX
  8
0
 10
470.967
 20
216.09
 30
0.0
 40
0.352778
 41
0.352778
  0
VERTEX
  8
0
 10
467.792
 20
216.09
 30
0.0
 40
0.352778
 41
0.352778
  0
VERTEX
  8
0
 10
467.792
 20
228.79
 30
0.0
 40
0.352778
 41
0.352778
  0
VERTEX
  8
0
 10
470.967
 20
228.79
 30
0.0
 40
0.352778
 41
0.352778
  0
VERTEX
  8
0
 10
470.967
 20
241.49
 30
0.0
 40
0.352778
 41
0.352778
  0
VERTEX
  8
0
 10
467.792
 20
241.49
 30
0.0
 40
0.352778
 41
0.352778
  0
VERTEX
  8
0
 10
467.792
 20
254.19
 30
0.0
 40
0.352778
 41
0.352778
  0
VERTEX
  8
0
 10
470.967
 20
254.19
 30
0.0
 40
0.352778
 41
0.352778
  0
VERTEX
  8
0
 10
470.967
 20
266.89
 30
0.0
 40
0.352778
 41
0.352778
  0
VERTEX
  8
0
 10
467.792
 20
266.89
 30
0.0
 40
0.352778
 41
0.352778
  0
VERTEX
  8
0
 10
467.792
 20
279.59
 30
0.0
 40
0.352778
 41
0.352778
  0
SEQEND
 8
0
  0
POLYLINE
  8
0
 62
     0
 66
     1
 10
0
 20
0
 30
0.0
 70
     1
 40
25.4
 41
25.4
  0
VERTEX
  8
0
 10
248.779
 20
28.2564
 30
0.0
 40
0.352778
 41
0.352778
  0
VERTEX
  8
0
 10
276.719
 20
28.2564
 30
0.0
 40
0.352778
 41
0.352778
  0
VERTEX
  8
0
 10
276.719
 20
21.3985
 30
0.0
 40
0.352778
 41
0.352778
  0
VERTEX
  8
0
 10
248.779
 20
21.3985
 30
0.0
 40
0.352778
 41
0.352778
  0
VERTEX
  8
0
 10
248.779
 20
28.2564
 30
0.0
 40
0.352778
 41
0.352778
  0
SEQEND
 8
0
  0
ENDSEC
  0
EOF
