  0
SECTION
  2
HEADER
  9
$ACADVER
  1
AC1009
  9
$EXTMIN
 10
0.0
 20
0.0
 30
0.0
  9
$EXTMAX
 10
1000.0
 20
1000.0
 30
0.0
  9
$FILLMODE
 70
 0
  9
$SPLFRAME
 70
 1
  0
ENDSEC
  0
SECTION
  2
TABLES
  0
TABLE
  2
LAYER
 70
1
  0
LAYER
  2
0
 70
     0
 62
     7
  6
CONTINUOUS
  0
ENDTAB
  0
ENDSEC
  0
SECTION
  2
ENTITIES
  0
POLYLINE
  8
0
 62
     0
 66
     1
 10
0
 20
0
 30
0.0
 70
     1
 40
24
 41
24
  0
VERTEX
  8
0
 10
6.67638
 20
138.529
 30
0.0
 40
0.333333
 41
0.333333
  0
VERTEX
  8
0
 10
6.67638
 20
138.491
 30
0.0
 40
0.333333
 41
0.333333
  0
VERTEX
  8
0
 10
6.66862
 20
138.376
 30
0.0
 40
0.333333
 41
0.333333
  0
VERTEX
  8
0
 10
6.64589
 20
138.227
 30
0.0
 40
0.333333
 41
0.333333
  0
VERTEX
  8
0
 10
6.60894
 20
138.083
 30
0.0
 40
0.333333
 41
0.333333
  0
VERTEX
  8
0
 10
6.55849
 20
137.945
 30
0.0
 40
0.333333
 41
0.333333
  0
VERTEX
  8
0
 10
6.49533
 20
137.814
 30
0.0
 40
0.333333
 41
0.333333
  0
VERTEX
  8
0
 10
6.42019
 20
137.69
 30
0.0
 40
0.333333
 41
0.333333
  0
VERTEX
  8
0
 10
6.33382
 20
137.575
 30
0.0
 40
0.333333
 41
0.333333
  0
VERTEX
  8
0
 10
6.23703
 20
137.468
 30
0.0
 40
0.333333
 41
0.333333
  0
VERTEX
  8
0
 10
6.13049
 20
137.372
 30
0.0
 40
0.333333
 41
0.333333
  0
VERTEX
  8
0
 10
6.01503
 20
137.285
 30
0.0
 40
0.333333
 41
0.333333
  0
VERTEX
  8
0
 10
5.89133
 20
137.21
 30
0.0
 40
0.333333
 41
0.333333
  0
VERTEX
  8
0
 10
5.76025
 20
137.147
 30
0.0
 40
0.333333
 41
0.333333
  0
VERTEX
  8
0
 10
5.6224
 20
137.096
 30
0.0
 40
0.333333
 41
0.333333
  0
VERTEX
  8
0
 10
5.47868
 20
137.059
 30
0.0
 40
0.333333
 41
0.333333
  0
VERTEX
  8
0
 10
5.32969
 20
137.037
 30
0.0
 40
0.333333
 41
0.333333
  0
VERTEX
  8
0
 10
5.21468
 20
137.029
 30
0.0
 40
0.333333
 41
0.333333
  0
VERTEX
  8
0
 10
5.17638
 20
137.029
 30
0.0
 40
0.333333
 41
0.333333
  0
VERTEX
  8
0
 10
5.13803
 20
137.029
 30
0.0
 40
0.333333
 41
0.333333
  0
VERTEX
  8
0
 10
5.023
 20
137.037
 30
0.0
 40
0.333333
 41
0.333333
  0
VERTEX
  8
0
 10
4.87408
 20
137.059
 30
0.0
 40
0.333333
 41
0.333333
  0
VERTEX
  8
0
 10
4.73031
 20
137.096
 30
0.0
 40
0.333333
 41
0.333333
  0
VERTEX
  8
0
 10
4.5925
 20
137.147
 30
0.0
 40
0.333333
 41
0.333333
  0
VERTEX
  8
0
 10
4.46137
 20
137.21
 30
0.0
 40
0.333333
 41
0.333333
  0
VERTEX
  8
0
 10
4.33768
 20
137.285
 30
0.0
 40
0.333333
 41
0.333333
  0
VERTEX
  8
0
 10
4.22222
 20
137.372
 30
0.0
 40
0.333333
 41
0.333333
  0
VERTEX
  8
0
 10
4.11572
 20
137.468
 30
0.0
 40
0.333333
 41
0.333333
  0
VERTEX
  8
0
 10
4.01888
 20
137.575
 30
0.0
 40
0.333333
 41
0.333333
  0
VERTEX
  8
0
 10
3.93251
 20
137.69
 30
0.0
 40
0.333333
 41
0.333333
  0
VERTEX
  8
0
 10
3.85742
 20
137.814
 30
0.0
 40
0.333333
 41
0.333333
  0
VERTEX
  8
0
 10
3.79422
 20
137.945
 30
0.0
 40
0.333333
 41
0.333333
  0
VERTEX
  8
0
 10
3.74382
 20
138.083
 30
0.0
 40
0.333333
 41
0.333333
  0
VERTEX
  8
0
 10
3.70682
 20
138.227
 30
0.0
 40
0.333333
 41
0.333333
  0
VERTEX
  8
0
 10
3.68408
 20
138.376
 30
0.0
 40
0.333333
 41
0.333333
  0
VERTEX
  8
0
 10
3.67638
 20
138.491
 30
0.0
 40
0.333333
 41
0.333333
  0
VERTEX
  8
0
 10
3.67638
 20
138.529
 30
0.0
 40
0.333333
 41
0.333333
  0
VERTEX
  8
0
 10
3.67638
 20
138.567
 30
0.0
 40
0.333333
 41
0.333333
  0
VERTEX
  8
0
 10
3.68408
 20
138.682
 30
0.0
 40
0.333333
 41
0.333333
  0
VERTEX
  8
0
 10
3.70682
 20
138.831
 30
0.0
 40
0.333333
 41
0.333333
  0
VERTEX
  8
0
 10
3.74382
 20
138.975
 30
0.0
 40
0.333333
 41
0.333333
  0
VERTEX
  8
0
 10
3.79422
 20
139.112
 30
0.0
 40
0.333333
 41
0.333333
  0
VERTEX
  8
0
 10
3.85742
 20
139.244
 30
0.0
 40
0.333333
 41
0.333333
  0
VERTEX
  8
0
 10
3.93251
 20
139.368
 30
0.0
 40
0.333333
 41
0.333333
  0
VERTEX
  8
0
 10
4.01888
 20
139.483
 30
0.0
 40
0.333333
 41
0.333333
  0
VERTEX
  8
0
 10
4.11572
 20
139.59
 30
0.0
 40
0.333333
 41
0.333333
  0
VERTEX
  8
0
 10
4.22222
 20
139.686
 30
0.0
 40
0.333333
 41
0.333333
  0
VERTEX
  8
0
 10
4.33768
 20
139.772
 30
0.0
 40
0.333333
 41
0.333333
  0
VERTEX
  8
0
 10
4.46137
 20
139.849
 30
0.0
 40
0.333333
 41
0.333333
  0
VERTEX
  8
0
 10
4.5925
 20
139.911
 30
0.0
 40
0.333333
 41
0.333333
  0
VERTEX
  8
0
 10
4.73031
 20
139.961
 30
0.0
 40
0.333333
 41
0.333333
  0
VERTEX
  8
0
 10
4.87408
 20
139.999
 30
0.0
 40
0.333333
 41
0.333333
  0
VERTEX
  8
0
 10
5.023
 20
140.021
 30
0.0
 40
0.333333
 41
0.333333
  0
VERTEX
  8
0
 10
5.13803
 20
140.029
 30
0.0
 40
0.333333
 41
0.333333
  0
VERTEX
  8
0
 10
5.17638
 20
140.029
 30
0.0
 40
0.333333
 41
0.333333
  0
VERTEX
  8
0
 10
5.21468
 20
140.029
 30
0.0
 40
0.333333
 41
0.333333
  0
VERTEX
  8
0
 10
5.32969
 20
140.021
 30
0.0
 40
0.333333
 41
0.333333
  0
VERTEX
  8
0
 10
5.47868
 20
139.999
 30
0.0
 40
0.333333
 41
0.333333
  0
VERTEX
  8
0
 10
5.6224
 20
139.961
 30
0.0
 40
0.333333
 41
0.333333
  0
VERTEX
  8
0
 10
5.76025
 20
139.911
 30
0.0
 40
0.333333
 41
0.333333
  0
VERTEX
  8
0
 10
5.89133
 20
139.849
 30
0.0
 40
0.333333
 41
0.333333
  0
VERTEX
  8
0
 10
6.01503
 20
139.772
 30
0.0
 40
0.333333
 41
0.333333
  0
VERTEX
  8
0
 10
6.13049
 20
139.686
 30
0.0
 40
0.333333
 41
0.333333
  0
VERTEX
  8
0
 10
6.23703
 20
139.59
 30
0.0
 40
0.333333
 41
0.333333
  0
VERTEX
  8
0
 10
6.33382
 20
139.483
 30
0.0
 40
0.333333
 41
0.333333
  0
VERTEX
  8
0
 10
6.42019
 20
139.368
 30
0.0
 40
0.333333
 41
0.333333
  0
VERTEX
  8
0
 10
6.49533
 20
139.244
 30
0.0
 40
0.333333
 41
0.333333
  0
VERTEX
  8
0
 10
6.55849
 20
139.112
 30
0.0
 40
0.333333
 41
0.333333
  0
VERTEX
  8
0
 10
6.60894
 20
138.975
 30
0.0
 40
0.333333
 41
0.333333
  0
VERTEX
  8
0
 10
6.64589
 20
138.831
 30
0.0
 40
0.333333
 41
0.333333
  0
VERTEX
  8
0
 10
6.66862
 20
138.682
 30
0.0
 40
0.333333
 41
0.333333
  0
VERTEX
  8
0
 10
6.67638
 20
138.567
 30
0.0
 40
0.333333
 41
0.333333
  0
VERTEX
  8
0
 10
6.67638
 20
138.529
 30
0.0
 40
0.333333
 41
0.333333
  0
SEQEND
 8
0
  0
POLYLINE
  8
0
 62
     0
 66
     1
 10
0
 20
0
 30
0.0
 70
     1
 40
24
 41
24
  0
VERTEX
  8
0
 10
128.677
 20
138.529
 30
0.0
 40
0.333333
 41
0.333333
  0
VERTEX
  8
0
 10
128.677
 20
138.491
 30
0.0
 40
0.333333
 41
0.333333
  0
VERTEX
  8
0
 10
128.669
 20
138.376
 30
0.0
 40
0.333333
 41
0.333333
  0
VERTEX
  8
0
 10
128.646
 20
138.227
 30
0.0
 40
0.333333
 41
0.333333
  0
VERTEX
  8
0
 10
128.609
 20
138.083
 30
0.0
 40
0.333333
 41
0.333333
  0
VERTEX
  8
0
 10
128.559
 20
137.945
 30
0.0
 40
0.333333
 41
0.333333
  0
VERTEX
  8
0
 10
128.496
 20
137.814
 30
0.0
 40
0.333333
 41
0.333333
  0
VERTEX
  8
0
 10
128.42
 20
137.69
 30
0.0
 40
0.333333
 41
0.333333
  0
VERTEX
  8
0
 10
128.334
 20
137.575
 30
0.0
 40
0.333333
 41
0.333333
  0
VERTEX
  8
0
 10
128.237
 20
137.468
 30
0.0
 40
0.333333
 41
0.333333
  0
VERTEX
  8
0
 10
128.131
 20
137.372
 30
0.0
 40
0.333333
 41
0.333333
  0
VERTEX
  8
0
 10
128.015
 20
137.285
 30
0.0
 40
0.333333
 41
0.333333
  0
VERTEX
  8
0
 10
127.892
 20
137.21
 30
0.0
 40
0.333333
 41
0.333333
  0
VERTEX
  8
0
 10
127.76
 20
137.147
 30
0.0
 40
0.333333
 41
0.333333
  0
VERTEX
  8
0
 10
127.623
 20
137.096
 30
0.0
 40
0.333333
 41
0.333333
  0
VERTEX
  8
0
 10
127.479
 20
137.059
 30
0.0
 40
0.333333
 41
0.333333
  0
VERTEX
  8
0
 10
127.33
 20
137.037
 30
0.0
 40
0.333333
 41
0.333333
  0
VERTEX
  8
0
 10
127.215
 20
137.029
 30
0.0
 40
0.333333
 41
0.333333
  0
VERTEX
  8
0
 10
127.177
 20
137.029
 30
0.0
 40
0.333333
 41
0.333333
  0
VERTEX
  8
0
 10
127.138
 20
137.029
 30
0.0
 40
0.333333
 41
0.333333
  0
VERTEX
  8
0
 10
127.023
 20
137.037
 30
0.0
 40
0.333333
 41
0.333333
  0
VERTEX
  8
0
 10
126.874
 20
137.059
 30
0.0
 40
0.333333
 41
0.333333
  0
VERTEX
  8
0
 10
126.731
 20
137.096
 30
0.0
 40
0.333333
 41
0.333333
  0
VERTEX
  8
0
 10
126.593
 20
137.147
 30
0.0
 40
0.333333
 41
0.333333
  0
VERTEX
  8
0
 10
126.462
 20
137.21
 30
0.0
 40
0.333333
 41
0.333333
  0
VERTEX
  8
0
 10
126.338
 20
137.285
 30
0.0
 40
0.333333
 41
0.333333
  0
VERTEX
  8
0
 10
126.222
 20
137.372
 30
0.0
 40
0.333333
 41
0.333333
  0
VERTEX
  8
0
 10
126.116
 20
137.468
 30
0.0
 40
0.333333
 41
0.333333
  0
VERTEX
  8
0
 10
126.019
 20
137.575
 30
0.0
 40
0.333333
 41
0.333333
  0
VERTEX
  8
0
 10
125.933
 20
137.69
 30
0.0
 40
0.333333
 41
0.333333
  0
VERTEX
  8
0
 10
125.858
 20
137.814
 30
0.0
 40
0.333333
 41
0.333333
  0
VERTEX
  8
0
 10
125.794
 20
137.945
 30
0.0
 40
0.333333
 41
0.333333
  0
VERTEX
  8
0
 10
125.744
 20
138.083
 30
0.0
 40
0.333333
 41
0.333333
  0
VERTEX
  8
0
 10
125.707
 20
138.227
 30
0.0
 40
0.333333
 41
0.333333
  0
VERTEX
  8
0
 10
125.684
 20
138.376
 30
0.0
 40
0.333333
 41
0.333333
  0
VERTEX
  8
0
 10
125.677
 20
138.491
 30
0.0
 40
0.333333
 41
0.333333
  0
VERTEX
  8
0
 10
125.677
 20
138.529
 30
0.0
 40
0.333333
 41
0.333333
  0
VERTEX
  8
0
 10
125.677
 20
138.567
 30
0.0
 40
0.333333
 41
0.333333
  0
VERTEX
  8
0
 10
125.684
 20
138.682
 30
0.0
 40
0.333333
 41
0.333333
  0
VERTEX
  8
0
 10
125.707
 20
138.831
 30
0.0
 40
0.333333
 41
0.333333
  0
VERTEX
  8
0
 10
125.744
 20
138.975
 30
0.0
 40
0.333333
 41
0.333333
  0
VERTEX
  8
0
 10
125.794
 20
139.112
 30
0.0
 40
0.333333
 41
0.333333
  0
VERTEX
  8
0
 10
125.858
 20
139.244
 30
0.0
 40
0.333333
 41
0.333333
  0
VERTEX
  8
0
 10
125.933
 20
139.368
 30
0.0
 40
0.333333
 41
0.333333
  0
VERTEX
  8
0
 10
126.019
 20
139.483
 30
0.0
 40
0.333333
 41
0.333333
  0
VERTEX
  8
0
 10
126.116
 20
139.59
 30
0.0
 40
0.333333
 41
0.333333
  0
VERTEX
  8
0
 10
126.222
 20
139.686
 30
0.0
 40
0.333333
 41
0.333333
  0
VERTEX
  8
0
 10
126.338
 20
139.772
 30
0.0
 40
0.333333
 41
0.333333
  0
VERTEX
  8
0
 10
126.462
 20
139.849
 30
0.0
 40
0.333333
 41
0.333333
  0
VERTEX
  8
0
 10
126.593
 20
139.911
 30
0.0
 40
0.333333
 41
0.333333
  0
VERTEX
  8
0
 10
126.731
 20
139.961
 30
0.0
 40
0.333333
 41
0.333333
  0
VERTEX
  8
0
 10
126.874
 20
139.999
 30
0.0
 40
0.333333
 41
0.333333
  0
VERTEX
  8
0
 10
127.023
 20
140.021
 30
0.0
 40
0.333333
 41
0.333333
  0
VERTEX
  8
0
 10
127.138
 20
140.029
 30
0.0
 40
0.333333
 41
0.333333
  0
VERTEX
  8
0
 10
127.177
 20
140.029
 30
0.0
 40
0.333333
 41
0.333333
  0
VERTEX
  8
0
 10
127.215
 20
140.029
 30
0.0
 40
0.333333
 41
0.333333
  0
VERTEX
  8
0
 10
127.33
 20
140.021
 30
0.0
 40
0.333333
 41
0.333333
  0
VERTEX
  8
0
 10
127.479
 20
139.999
 30
0.0
 40
0.333333
 41
0.333333
  0
VERTEX
  8
0
 10
127.623
 20
139.961
 30
0.0
 40
0.333333
 41
0.333333
  0
VERTEX
  8
0
 10
127.76
 20
139.911
 30
0.0
 40
0.333333
 41
0.333333
  0
VERTEX
  8
0
 10
127.892
 20
139.849
 30
0.0
 40
0.333333
 41
0.333333
  0
VERTEX
  8
0
 10
128.015
 20
139.772
 30
0.0
 40
0.333333
 41
0.333333
  0
VERTEX
  8
0
 10
128.131
 20
139.686
 30
0.0
 40
0.333333
 41
0.333333
  0
VERTEX
  8
0
 10
128.237
 20
139.59
 30
0.0
 40
0.333333
 41
0.333333
  0
VERTEX
  8
0
 10
128.334
 20
139.483
 30
0.0
 40
0.333333
 41
0.333333
  0
VERTEX
  8
0
 10
128.42
 20
139.368
 30
0.0
 40
0.333333
 41
0.333333
  0
VERTEX
  8
0
 10
128.496
 20
139.244
 30
0.0
 40
0.333333
 41
0.333333
  0
VERTEX
  8
0
 10
128.559
 20
139.112
 30
0.0
 40
0.333333
 41
0.333333
  0
VERTEX
  8
0
 10
128.609
 20
138.975
 30
0.0
 40
0.333333
 41
0.333333
  0
VERTEX
  8
0
 10
128.646
 20
138.831
 30
0.0
 40
0.333333
 41
0.333333
  0
VERTEX
  8
0
 10
128.669
 20
138.682
 30
0.0
 40
0.333333
 41
0.333333
  0
VERTEX
  8
0
 10
128.677
 20
138.567
 30
0.0
 40
0.333333
 41
0.333333
  0
VERTEX
  8
0
 10
128.677
 20
138.529
 30
0.0
 40
0.333333
 41
0.333333
  0
SEQEND
 8
0
  0
POLYLINE
  8
0
 62
     0
 66
     1
 10
0
 20
0
 30
0.0
 70
     1
 40
24
 41
24
  0
VERTEX
  8
0
 10
250.676
 20
138.529
 30
0.0
 40
0.333333
 41
0.333333
  0
VERTEX
  8
0
 10
250.676
 20
138.491
 30
0.0
 40
0.333333
 41
0.333333
  0
VERTEX
  8
0
 10
250.669
 20
138.376
 30
0.0
 40
0.333333
 41
0.333333
  0
VERTEX
  8
0
 10
250.646
 20
138.227
 30
0.0
 40
0.333333
 41
0.333333
  0
VERTEX
  8
0
 10
250.61
 20
138.083
 30
0.0
 40
0.333333
 41
0.333333
  0
VERTEX
  8
0
 10
250.558
 20
137.945
 30
0.0
 40
0.333333
 41
0.333333
  0
VERTEX
  8
0
 10
250.496
 20
137.814
 30
0.0
 40
0.333333
 41
0.333333
  0
VERTEX
  8
0
 10
250.421
 20
137.69
 30
0.0
 40
0.333333
 41
0.333333
  0
VERTEX
  8
0
 10
250.335
 20
137.575
 30
0.0
 40
0.333333
 41
0.333333
  0
VERTEX
  8
0
 10
250.237
 20
137.468
 30
0.0
 40
0.333333
 41
0.333333
  0
VERTEX
  8
0
 10
250.131
 20
137.372
 30
0.0
 40
0.333333
 41
0.333333
  0
VERTEX
  8
0
 10
250.015
 20
137.285
 30
0.0
 40
0.333333
 41
0.333333
  0
VERTEX
  8
0
 10
249.892
 20
137.21
 30
0.0
 40
0.333333
 41
0.333333
  0
VERTEX
  8
0
 10
249.761
 20
137.147
 30
0.0
 40
0.333333
 41
0.333333
  0
VERTEX
  8
0
 10
249.622
 20
137.096
 30
0.0
 40
0.333333
 41
0.333333
  0
VERTEX
  8
0
 10
249.479
 20
137.059
 30
0.0
 40
0.333333
 41
0.333333
  0
VERTEX
  8
0
 10
249.331
 20
137.037
 30
0.0
 40
0.333333
 41
0.333333
  0
VERTEX
  8
0
 10
249.215
 20
137.029
 30
0.0
 40
0.333333
 41
0.333333
  0
VERTEX
  8
0
 10
249.176
 20
137.029
 30
0.0
 40
0.333333
 41
0.333333
  0
VERTEX
  8
0
 10
249.139
 20
137.029
 30
0.0
 40
0.333333
 41
0.333333
  0
VERTEX
  8
0
 10
249.024
 20
137.037
 30
0.0
 40
0.333333
 41
0.333333
  0
VERTEX
  8
0
 10
248.875
 20
137.059
 30
0.0
 40
0.333333
 41
0.333333
  0
VERTEX
  8
0
 10
248.731
 20
137.096
 30
0.0
 40
0.333333
 41
0.333333
  0
VERTEX
  8
0
 10
248.593
 20
137.147
 30
0.0
 40
0.333333
 41
0.333333
  0
VERTEX
  8
0
 10
248.461
 20
137.21
 30
0.0
 40
0.333333
 41
0.333333
  0
VERTEX
  8
0
 10
248.338
 20
137.285
 30
0.0
 40
0.333333
 41
0.333333
  0
VERTEX
  8
0
 10
248.222
 20
137.372
 30
0.0
 40
0.333333
 41
0.333333
  0
VERTEX
  8
0
 10
248.117
 20
137.468
 30
0.0
 40
0.333333
 41
0.333333
  0
VERTEX
  8
0
 10
248.019
 20
137.575
 30
0.0
 40
0.333333
 41
0.333333
  0
VERTEX
  8
0
 10
247.933
 20
137.69
 30
0.0
 40
0.333333
 41
0.333333
  0
VERTEX
  8
0
 10
247.858
 20
137.814
 30
0.0
 40
0.333333
 41
0.333333
  0
VERTEX
  8
0
 10
247.794
 20
137.945
 30
0.0
 40
0.333333
 41
0.333333
  0
VERTEX
  8
0
 10
247.744
 20
138.083
 30
0.0
 40
0.333333
 41
0.333333
  0
VERTEX
  8
0
 10
247.707
 20
138.227
 30
0.0
 40
0.333333
 41
0.333333
  0
VERTEX
  8
0
 10
247.685
 20
138.376
 30
0.0
 40
0.333333
 41
0.333333
  0
VERTEX
  8
0
 10
247.676
 20
138.491
 30
0.0
 40
0.333333
 41
0.333333
  0
VERTEX
  8
0
 10
247.676
 20
138.529
 30
0.0
 40
0.333333
 41
0.333333
  0
VERTEX
  8
0
 10
247.676
 20
138.567
 30
0.0
 40
0.333333
 41
0.333333
  0
VERTEX
  8
0
 10
247.685
 20
138.682
 30
0.0
 40
0.333333
 41
0.333333
  0
VERTEX
  8
0
 10
247.707
 20
138.831
 30
0.0
 40
0.333333
 41
0.333333
  0
VERTEX
  8
0
 10
247.744
 20
138.975
 30
0.0
 40
0.333333
 41
0.333333
  0
VERTEX
  8
0
 10
247.794
 20
139.112
 30
0.0
 40
0.333333
 41
0.333333
  0
VERTEX
  8
0
 10
247.858
 20
139.244
 30
0.0
 40
0.333333
 41
0.333333
  0
VERTEX
  8
0
 10
247.933
 20
139.368
 30
0.0
 40
0.333333
 41
0.333333
  0
VERTEX
  8
0
 10
248.019
 20
139.483
 30
0.0
 40
0.333333
 41
0.333333
  0
VERTEX
  8
0
 10
248.117
 20
139.59
 30
0.0
 40
0.333333
 41
0.333333
  0
VERTEX
  8
0
 10
248.222
 20
139.686
 30
0.0
 40
0.333333
 41
0.333333
  0
VERTEX
  8
0
 10
248.338
 20
139.772
 30
0.0
 40
0.333333
 41
0.333333
  0
VERTEX
  8
0
 10
248.461
 20
139.849
 30
0.0
 40
0.333333
 41
0.333333
  0
VERTEX
  8
0
 10
248.593
 20
139.911
 30
0.0
 40
0.333333
 41
0.333333
  0
VERTEX
  8
0
 10
248.731
 20
139.961
 30
0.0
 40
0.333333
 41
0.333333
  0
VERTEX
  8
0
 10
248.875
 20
139.999
 30
0.0
 40
0.333333
 41
0.333333
  0
VERTEX
  8
0
 10
249.024
 20
140.021
 30
0.0
 40
0.333333
 41
0.333333
  0
VERTEX
  8
0
 10
249.139
 20
140.029
 30
0.0
 40
0.333333
 41
0.333333
  0
VERTEX
  8
0
 10
249.176
 20
140.029
 30
0.0
 40
0.333333
 41
0.333333
  0
VERTEX
  8
0
 10
249.215
 20
140.029
 30
0.0
 40
0.333333
 41
0.333333
  0
VERTEX
  8
0
 10
249.331
 20
140.021
 30
0.0
 40
0.333333
 41
0.333333
  0
VERTEX
  8
0
 10
249.479
 20
139.999
 30
0.0
 40
0.333333
 41
0.333333
  0
VERTEX
  8
0
 10
249.622
 20
139.961
 30
0.0
 40
0.333333
 41
0.333333
  0
VERTEX
  8
0
 10
249.761
 20
139.911
 30
0.0
 40
0.333333
 41
0.333333
  0
VERTEX
  8
0
 10
249.892
 20
139.849
 30
0.0
 40
0.333333
 41
0.333333
  0
VERTEX
  8
0
 10
250.015
 20
139.772
 30
0.0
 40
0.333333
 41
0.333333
  0
VERTEX
  8
0
 10
250.131
 20
139.686
 30
0.0
 40
0.333333
 41
0.333333
  0
VERTEX
  8
0
 10
250.237
 20
139.59
 30
0.0
 40
0.333333
 41
0.333333
  0
VERTEX
  8
0
 10
250.335
 20
139.483
 30
0.0
 40
0.333333
 41
0.333333
  0
VERTEX
  8
0
 10
250.421
 20
139.368
 30
0.0
 40
0.333333
 41
0.333333
  0
VERTEX
  8
0
 10
250.496
 20
139.244
 30
0.0
 40
0.333333
 41
0.333333
  0
VERTEX
  8
0
 10
250.558
 20
139.112
 30
0.0
 40
0.333333
 41
0.333333
  0
VERTEX
  8
0
 10
250.61
 20
138.975
 30
0.0
 40
0.333333
 41
0.333333
  0
VERTEX
  8
0
 10
250.646
 20
138.831
 30
0.0
 40
0.333333
 41
0.333333
  0
VERTEX
  8
0
 10
250.669
 20
138.682
 30
0.0
 40
0.333333
 41
0.333333
  0
VERTEX
  8
0
 10
250.676
 20
138.567
 30
0.0
 40
0.333333
 41
0.333333
  0
VERTEX
  8
0
 10
250.676
 20
138.529
 30
0.0
 40
0.333333
 41
0.333333
  0
SEQEND
 8
0
  0
POLYLINE
  8
0
 62
     0
 66
     1
 10
0
 20
0
 30
0.0
 70
     1
 40
24
 41
24
  0
VERTEX
  8
0
 10
128.677
 20
261.879
 30
0.0
 40
0.333333
 41
0.333333
  0
VERTEX
  8
0
 10
128.677
 20
261.84
 30
0.0
 40
0.333333
 41
0.333333
  0
VERTEX
  8
0
 10
128.669
 20
261.726
 30
0.0
 40
0.333333
 41
0.333333
  0
VERTEX
  8
0
 10
128.646
 20
261.576
 30
0.0
 40
0.333333
 41
0.333333
  0
VERTEX
  8
0
 10
128.609
 20
261.433
 30
0.0
 40
0.333333
 41
0.333333
  0
VERTEX
  8
0
 10
128.559
 20
261.296
 30
0.0
 40
0.333333
 41
0.333333
  0
VERTEX
  8
0
 10
128.496
 20
261.164
 30
0.0
 40
0.333333
 41
0.333333
  0
VERTEX
  8
0
 10
128.42
 20
261.04
 30
0.0
 40
0.333333
 41
0.333333
  0
VERTEX
  8
0
 10
128.334
 20
260.925
 30
0.0
 40
0.333333
 41
0.333333
  0
VERTEX
  8
0
 10
128.237
 20
260.818
 30
0.0
 40
0.333333
 41
0.333333
  0
VERTEX
  8
0
 10
128.131
 20
260.722
 30
0.0
 40
0.333333
 41
0.333333
  0
VERTEX
  8
0
 10
128.015
 20
260.635
 30
0.0
 40
0.333333
 41
0.333333
  0
VERTEX
  8
0
 10
127.892
 20
260.56
 30
0.0
 40
0.333333
 41
0.333333
  0
VERTEX
  8
0
 10
127.76
 20
260.497
 30
0.0
 40
0.333333
 41
0.333333
  0
VERTEX
  8
0
 10
127.623
 20
260.447
 30
0.0
 40
0.333333
 41
0.333333
  0
VERTEX
  8
0
 10
127.479
 20
260.41
 30
0.0
 40
0.333333
 41
0.333333
  0
VERTEX
  8
0
 10
127.33
 20
260.388
 30
0.0
 40
0.333333
 41
0.333333
  0
VERTEX
  8
0
 10
127.215
 20
260.379
 30
0.0
 40
0.333333
 41
0.333333
  0
VERTEX
  8
0
 10
127.177
 20
260.379
 30
0.0
 40
0.333333
 41
0.333333
  0
VERTEX
  8
0
 10
127.138
 20
260.379
 30
0.0
 40
0.333333
 41
0.333333
  0
VERTEX
  8
0
 10
127.023
 20
260.388
 30
0.0
 40
0.333333
 41
0.333333
  0
VERTEX
  8
0
 10
126.874
 20
260.41
 30
0.0
 40
0.333333
 41
0.333333
  0
VERTEX
  8
0
 10
126.731
 20
260.447
 30
0.0
 40
0.333333
 41
0.333333
  0
VERTEX
  8
0
 10
126.593
 20
260.497
 30
0.0
 40
0.333333
 41
0.333333
  0
VERTEX
  8
0
 10
126.462
 20
260.56
 30
0.0
 40
0.333333
 41
0.333333
  0
VERTEX
  8
0
 10
126.338
 20
260.635
 30
0.0
 40
0.333333
 41
0.333333
  0
VERTEX
  8
0
 10
126.222
 20
260.722
 30
0.0
 40
0.333333
 41
0.333333
  0
VERTEX
  8
0
 10
126.116
 20
260.818
 30
0.0
 40
0.333333
 41
0.333333
  0
VERTEX
  8
0
 10
126.019
 20
260.925
 30
0.0
 40
0.333333
 41
0.333333
  0
VERTEX
  8
0
 10
125.933
 20
261.04
 30
0.0
 40
0.333333
 41
0.333333
  0
VERTEX
  8
0
 10
125.858
 20
261.164
 30
0.0
 40
0.333333
 41
0.333333
  0
VERTEX
  8
0
 10
125.794
 20
261.296
 30
0.0
 40
0.333333
 41
0.333333
  0
VERTEX
  8
0
 10
125.744
 20
261.433
 30
0.0
 40
0.333333
 41
0.333333
  0
VERTEX
  8
0
 10
125.707
 20
261.576
 30
0.0
 40
0.333333
 41
0.333333
  0
VERTEX
  8
0
 10
125.684
 20
261.726
 30
0.0
 40
0.333333
 41
0.333333
  0
VERTEX
  8
0
 10
125.677
 20
261.84
 30
0.0
 40
0.333333
 41
0.333333
  0
VERTEX
  8
0
 10
125.677
 20
261.879
 30
0.0
 40
0.333333
 41
0.333333
  0
VERTEX
  8
0
 10
125.677
 20
261.918
 30
0.0
 40
0.333333
 41
0.333333
  0
VERTEX
  8
0
 10
125.684
 20
262.032
 30
0.0
 40
0.333333
 41
0.333333
  0
VERTEX
  8
0
 10
125.707
 20
262.182
 30
0.0
 40
0.333333
 41
0.333333
  0
VERTEX
  8
0
 10
125.744
 20
262.325
 30
0.0
 40
0.333333
 41
0.333333
  0
VERTEX
  8
0
 10
125.794
 20
262.463
 30
0.0
 40
0.333333
 41
0.333333
  0
VERTEX
  8
0
 10
125.858
 20
262.594
 30
0.0
 40
0.333333
 41
0.333333
  0
VERTEX
  8
0
 10
125.933
 20
262.718
 30
0.0
 40
0.333333
 41
0.333333
  0
VERTEX
  8
0
 10
126.019
 20
262.833
 30
0.0
 40
0.333333
 41
0.333333
  0
VERTEX
  8
0
 10
126.116
 20
262.94
 30
0.0
 40
0.333333
 41
0.333333
  0
VERTEX
  8
0
 10
126.222
 20
263.036
 30
0.0
 40
0.333333
 41
0.333333
  0
VERTEX
  8
0
 10
126.338
 20
263.124
 30
0.0
 40
0.333333
 41
0.333333
  0
VERTEX
  8
0
 10
126.462
 20
263.199
 30
0.0
 40
0.333333
 41
0.333333
  0
VERTEX
  8
0
 10
126.593
 20
263.261
 30
0.0
 40
0.333333
 41
0.333333
  0
VERTEX
  8
0
 10
126.731
 20
263.311
 30
0.0
 40
0.333333
 41
0.333333
  0
VERTEX
  8
0
 10
126.874
 20
263.349
 30
0.0
 40
0.333333
 41
0.333333
  0
VERTEX
  8
0
 10
127.023
 20
263.371
 30
0.0
 40
0.333333
 41
0.333333
  0
VERTEX
  8
0
 10
127.138
 20
263.379
 30
0.0
 40
0.333333
 41
0.333333
  0
VERTEX
  8
0
 10
127.177
 20
263.379
 30
0.0
 40
0.333333
 41
0.333333
  0
VERTEX
  8
0
 10
127.215
 20
263.379
 30
0.0
 40
0.333333
 41
0.333333
  0
VERTEX
  8
0
 10
127.33
 20
263.371
 30
0.0
 40
0.333333
 41
0.333333
  0
VERTEX
  8
0
 10
127.479
 20
263.349
 30
0.0
 40
0.333333
 41
0.333333
  0
VERTEX
  8
0
 10
127.623
 20
263.311
 30
0.0
 40
0.333333
 41
0.333333
  0
VERTEX
  8
0
 10
127.76
 20
263.261
 30
0.0
 40
0.333333
 41
0.333333
  0
VERTEX
  8
0
 10
127.892
 20
263.199
 30
0.0
 40
0.333333
 41
0.333333
  0
VERTEX
  8
0
 10
128.015
 20
263.124
 30
0.0
 40
0.333333
 41
0.333333
  0
VERTEX
  8
0
 10
128.131
 20
263.036
 30
0.0
 40
0.333333
 41
0.333333
  0
VERTEX
  8
0
 10
128.237
 20
262.94
 30
0.0
 40
0.333333
 41
0.333333
  0
VERTEX
  8
0
 10
128.334
 20
262.833
 30
0.0
 40
0.333333
 41
0.333333
  0
VERTEX
  8
0
 10
128.42
 20
262.718
 30
0.0
 40
0.333333
 41
0.333333
  0
VERTEX
  8
0
 10
128.496
 20
262.594
 30
0.0
 40
0.333333
 41
0.333333
  0
VERTEX
  8
0
 10
128.559
 20
262.463
 30
0.0
 40
0.333333
 41
0.333333
  0
VERTEX
  8
0
 10
128.609
 20
262.325
 30
0.0
 40
0.333333
 41
0.333333
  0
VERTEX
  8
0
 10
128.646
 20
262.182
 30
0.0
 40
0.333333
 41
0.333333
  0
VERTEX
  8
0
 10
128.669
 20
262.032
 30
0.0
 40
0.333333
 41
0.333333
  0
VERTEX
  8
0
 10
128.677
 20
261.918
 30
0.0
 40
0.333333
 41
0.333333
  0
VERTEX
  8
0
 10
128.677
 20
261.879
 30
0.0
 40
0.333333
 41
0.333333
  0
SEQEND
 8
0
  0
POLYLINE
  8
0
 62
     0
 66
     1
 10
0
 20
0
 30
0.0
 70
     1
 40
24
 41
24
  0
VERTEX
  8
0
 10
250.676
 20
261.879
 30
0.0
 40
0.333333
 41
0.333333
  0
VERTEX
  8
0
 10
250.676
 20
261.84
 30
0.0
 40
0.333333
 41
0.333333
  0
VERTEX
  8
0
 10
250.669
 20
261.726
 30
0.0
 40
0.333333
 41
0.333333
  0
VERTEX
  8
0
 10
250.646
 20
261.576
 30
0.0
 40
0.333333
 41
0.333333
  0
VERTEX
  8
0
 10
250.61
 20
261.433
 30
0.0
 40
0.333333
 41
0.333333
  0
VERTEX
  8
0
 10
250.558
 20
261.296
 30
0.0
 40
0.333333
 41
0.333333
  0
VERTEX
  8
0
 10
250.496
 20
261.164
 30
0.0
 40
0.333333
 41
0.333333
  0
VERTEX
  8
0
 10
250.421
 20
261.04
 30
0.0
 40
0.333333
 41
0.333333
  0
VERTEX
  8
0
 10
250.335
 20
260.925
 30
0.0
 40
0.333333
 41
0.333333
  0
VERTEX
  8
0
 10
250.237
 20
260.818
 30
0.0
 40
0.333333
 41
0.333333
  0
VERTEX
  8
0
 10
250.131
 20
260.722
 30
0.0
 40
0.333333
 41
0.333333
  0
VERTEX
  8
0
 10
250.015
 20
260.635
 30
0.0
 40
0.333333
 41
0.333333
  0
VERTEX
  8
0
 10
249.892
 20
260.56
 30
0.0
 40
0.333333
 41
0.333333
  0
VERTEX
  8
0
 10
249.761
 20
260.497
 30
0.0
 40
0.333333
 41
0.333333
  0
VERTEX
  8
0
 10
249.622
 20
260.447
 30
0.0
 40
0.333333
 41
0.333333
  0
VERTEX
  8
0
 10
249.479
 20
260.41
 30
0.0
 40
0.333333
 41
0.333333
  0
VERTEX
  8
0
 10
249.331
 20
260.388
 30
0.0
 40
0.333333
 41
0.333333
  0
VERTEX
  8
0
 10
249.215
 20
260.379
 30
0.0
 40
0.333333
 41
0.333333
  0
VERTEX
  8
0
 10
249.176
 20
260.379
 30
0.0
 40
0.333333
 41
0.333333
  0
VERTEX
  8
0
 10
249.139
 20
260.379
 30
0.0
 40
0.333333
 41
0.333333
  0
VERTEX
  8
0
 10
249.024
 20
260.388
 30
0.0
 40
0.333333
 41
0.333333
  0
VERTEX
  8
0
 10
248.875
 20
260.41
 30
0.0
 40
0.333333
 41
0.333333
  0
VERTEX
  8
0
 10
248.731
 20
260.447
 30
0.0
 40
0.333333
 41
0.333333
  0
VERTEX
  8
0
 10
248.593
 20
260.497
 30
0.0
 40
0.333333
 41
0.333333
  0
VERTEX
  8
0
 10
248.461
 20
260.56
 30
0.0
 40
0.333333
 41
0.333333
  0
VERTEX
  8
0
 10
248.338
 20
260.635
 30
0.0
 40
0.333333
 41
0.333333
  0
VERTEX
  8
0
 10
248.222
 20
260.722
 30
0.0
 40
0.333333
 41
0.333333
  0
VERTEX
  8
0
 10
248.117
 20
260.818
 30
0.0
 40
0.333333
 41
0.333333
  0
VERTEX
  8
0
 10
248.019
 20
260.925
 30
0.0
 40
0.333333
 41
0.333333
  0
VERTEX
  8
0
 10
247.933
 20
261.04
 30
0.0
 40
0.333333
 41
0.333333
  0
VERTEX
  8
0
 10
247.858
 20
261.164
 30
0.0
 40
0.333333
 41
0.333333
  0
VERTEX
  8
0
 10
247.794
 20
261.296
 30
0.0
 40
0.333333
 41
0.333333
  0
VERTEX
  8
0
 10
247.744
 20
261.433
 30
0.0
 40
0.333333
 41
0.333333
  0
VERTEX
  8
0
 10
247.707
 20
261.576
 30
0.0
 40
0.333333
 41
0.333333
  0
VERTEX
  8
0
 10
247.685
 20
261.726
 30
0.0
 40
0.333333
 41
0.333333
  0
VERTEX
  8
0
 10
247.676
 20
261.84
 30
0.0
 40
0.333333
 41
0.333333
  0
VERTEX
  8
0
 10
247.676
 20
261.879
 30
0.0
 40
0.333333
 41
0.333333
  0
VERTEX
  8
0
 10
247.676
 20
261.918
 30
0.0
 40
0.333333
 41
0.333333
  0
VERTEX
  8
0
 10
247.685
 20
262.032
 30
0.0
 40
0.333333
 41
0.333333
  0
VERTEX
  8
0
 10
247.707
 20
262.182
 30
0.0
 40
0.333333
 41
0.333333
  0
VERTEX
  8
0
 10
247.744
 20
262.325
 30
0.0
 40
0.333333
 41
0.333333
  0
VERTEX
  8
0
 10
247.794
 20
262.463
 30
0.0
 40
0.333333
 41
0.333333
  0
VERTEX
  8
0
 10
247.858
 20
262.594
 30
0.0
 40
0.333333
 41
0.333333
  0
VERTEX
  8
0
 10
247.933
 20
262.718
 30
0.0
 40
0.333333
 41
0.333333
  0
VERTEX
  8
0
 10
248.019
 20
262.833
 30
0.0
 40
0.333333
 41
0.333333
  0
VERTEX
  8
0
 10
248.117
 20
262.94
 30
0.0
 40
0.333333
 41
0.333333
  0
VERTEX
  8
0
 10
248.222
 20
263.036
 30
0.0
 40
0.333333
 41
0.333333
  0
VERTEX
  8
0
 10
248.338
 20
263.124
 30
0.0
 40
0.333333
 41
0.333333
  0
VERTEX
  8
0
 10
248.461
 20
263.199
 30
0.0
 40
0.333333
 41
0.333333
  0
VERTEX
  8
0
 10
248.593
 20
263.261
 30
0.0
 40
0.333333
 41
0.333333
  0
VERTEX
  8
0
 10
248.731
 20
263.311
 30
0.0
 40
0.333333
 41
0.333333
  0
VERTEX
  8
0
 10
248.875
 20
263.349
 30
0.0
 40
0.333333
 41
0.333333
  0
VERTEX
  8
0
 10
249.024
 20
263.371
 30
0.0
 40
0.333333
 41
0.333333
  0
VERTEX
  8
0
 10
249.139
 20
263.379
 30
0.0
 40
0.333333
 41
0.333333
  0
VERTEX
  8
0
 10
249.176
 20
263.379
 30
0.0
 40
0.333333
 41
0.333333
  0
VERTEX
  8
0
 10
249.215
 20
263.379
 30
0.0
 40
0.333333
 41
0.333333
  0
VERTEX
  8
0
 10
249.331
 20
263.371
 30
0.0
 40
0.333333
 41
0.333333
  0
VERTEX
  8
0
 10
249.479
 20
263.349
 30
0.0
 40
0.333333
 41
0.333333
  0
VERTEX
  8
0
 10
249.622
 20
263.311
 30
0.0
 40
0.333333
 41
0.333333
  0
VERTEX
  8
0
 10
249.761
 20
263.261
 30
0.0
 40
0.333333
 41
0.333333
  0
VERTEX
  8
0
 10
249.892
 20
263.199
 30
0.0
 40
0.333333
 41
0.333333
  0
VERTEX
  8
0
 10
250.015
 20
263.124
 30
0.0
 40
0.333333
 41
0.333333
  0
VERTEX
  8
0
 10
250.131
 20
263.036
 30
0.0
 40
0.333333
 41
0.333333
  0
VERTEX
  8
0
 10
250.237
 20
262.94
 30
0.0
 40
0.333333
 41
0.333333
  0
VERTEX
  8
0
 10
250.335
 20
262.833
 30
0.0
 40
0.333333
 41
0.333333
  0
VERTEX
  8
0
 10
250.421
 20
262.718
 30
0.0
 40
0.333333
 41
0.333333
  0
VERTEX
  8
0
 10
250.496
 20
262.594
 30
0.0
 40
0.333333
 41
0.333333
  0
VERTEX
  8
0
 10
250.558
 20
262.463
 30
0.0
 40
0.333333
 41
0.333333
  0
VERTEX
  8
0
 10
250.61
 20
262.325
 30
0.0
 40
0.333333
 41
0.333333
  0
VERTEX
  8
0
 10
250.646
 20
262.182
 30
0.0
 40
0.333333
 41
0.333333
  0
VERTEX
  8
0
 10
250.669
 20
262.032
 30
0.0
 40
0.333333
 41
0.333333
  0
VERTEX
  8
0
 10
250.676
 20
261.918
 30
0.0
 40
0.333333
 41
0.333333
  0
VERTEX
  8
0
 10
250.676
 20
261.879
 30
0.0
 40
0.333333
 41
0.333333
  0
SEQEND
 8
0
  0
POLYLINE
  8
0
 62
     0
 66
     1
 10
0
 20
0
 30
0.0
 70
     1
 40
24
 41
24
  0
VERTEX
  8
0
 10
6.67638
 20
261.879
 30
0.0
 40
0.333333
 41
0.333333
  0
VERTEX
  8
0
 10
6.67638
 20
261.84
 30
0.0
 40
0.333333
 41
0.333333
  0
VERTEX
  8
0
 10
6.66862
 20
261.726
 30
0.0
 40
0.333333
 41
0.333333
  0
VERTEX
  8
0
 10
6.64589
 20
261.576
 30
0.0
 40
0.333333
 41
0.333333
  0
VERTEX
  8
0
 10
6.60894
 20
261.433
 30
0.0
 40
0.333333
 41
0.333333
  0
VERTEX
  8
0
 10
6.55849
 20
261.296
 30
0.0
 40
0.333333
 41
0.333333
  0
VERTEX
  8
0
 10
6.49533
 20
261.164
 30
0.0
 40
0.333333
 41
0.333333
  0
VERTEX
  8
0
 10
6.42019
 20
261.04
 30
0.0
 40
0.333333
 41
0.333333
  0
VERTEX
  8
0
 10
6.33382
 20
260.925
 30
0.0
 40
0.333333
 41
0.333333
  0
VERTEX
  8
0
 10
6.23703
 20
260.818
 30
0.0
 40
0.333333
 41
0.333333
  0
VERTEX
  8
0
 10
6.13049
 20
260.722
 30
0.0
 40
0.333333
 41
0.333333
  0
VERTEX
  8
0
 10
6.01503
 20
260.635
 30
0.0
 40
0.333333
 41
0.333333
  0
VERTEX
  8
0
 10
5.89133
 20
260.56
 30
0.0
 40
0.333333
 41
0.333333
  0
VERTEX
  8
0
 10
5.76025
 20
260.497
 30
0.0
 40
0.333333
 41
0.333333
  0
VERTEX
  8
0
 10
5.6224
 20
260.447
 30
0.0
 40
0.333333
 41
0.333333
  0
VERTEX
  8
0
 10
5.47868
 20
260.41
 30
0.0
 40
0.333333
 41
0.333333
  0
VERTEX
  8
0
 10
5.32969
 20
260.388
 30
0.0
 40
0.333333
 41
0.333333
  0
VERTEX
  8
0
 10
5.21468
 20
260.379
 30
0.0
 40
0.333333
 41
0.333333
  0
VERTEX
  8
0
 10
5.17638
 20
260.379
 30
0.0
 40
0.333333
 41
0.333333
  0
VERTEX
  8
0
 10
5.13803
 20
260.379
 30
0.0
 40
0.333333
 41
0.333333
  0
VERTEX
  8
0
 10
5.023
 20
260.388
 30
0.0
 40
0.333333
 41
0.333333
  0
VERTEX
  8
0
 10
4.87408
 20
260.41
 30
0.0
 40
0.333333
 41
0.333333
  0
VERTEX
  8
0
 10
4.73031
 20
260.447
 30
0.0
 40
0.333333
 41
0.333333
  0
VERTEX
  8
0
 10
4.5925
 20
260.497
 30
0.0
 40
0.333333
 41
0.333333
  0
VERTEX
  8
0
 10
4.46137
 20
260.56
 30
0.0
 40
0.333333
 41
0.333333
  0
VERTEX
  8
0
 10
4.33768
 20
260.635
 30
0.0
 40
0.333333
 41
0.333333
  0
VERTEX
  8
0
 10
4.22222
 20
260.722
 30
0.0
 40
0.333333
 41
0.333333
  0
VERTEX
  8
0
 10
4.11572
 20
260.818
 30
0.0
 40
0.333333
 41
0.333333
  0
VERTEX
  8
0
 10
4.01888
 20
260.925
 30
0.0
 40
0.333333
 41
0.333333
  0
VERTEX
  8
0
 10
3.93251
 20
261.04
 30
0.0
 40
0.333333
 41
0.333333
  0
VERTEX
  8
0
 10
3.85742
 20
261.164
 30
0.0
 40
0.333333
 41
0.333333
  0
VERTEX
  8
0
 10
3.79422
 20
261.296
 30
0.0
 40
0.333333
 41
0.333333
  0
VERTEX
  8
0
 10
3.74382
 20
261.433
 30
0.0
 40
0.333333
 41
0.333333
  0
VERTEX
  8
0
 10
3.70682
 20
261.576
 30
0.0
 40
0.333333
 41
0.333333
  0
VERTEX
  8
0
 10
3.68408
 20
261.726
 30
0.0
 40
0.333333
 41
0.333333
  0
VERTEX
  8
0
 10
3.67638
 20
261.84
 30
0.0
 40
0.333333
 41
0.333333
  0
VERTEX
  8
0
 10
3.67638
 20
261.879
 30
0.0
 40
0.333333
 41
0.333333
  0
VERTEX
  8
0
 10
3.67638
 20
261.918
 30
0.0
 40
0.333333
 41
0.333333
  0
VERTEX
  8
0
 10
3.68408
 20
262.032
 30
0.0
 40
0.333333
 41
0.333333
  0
VERTEX
  8
0
 10
3.70682
 20
262.182
 30
0.0
 40
0.333333
 41
0.333333
  0
VERTEX
  8
0
 10
3.74382
 20
262.325
 30
0.0
 40
0.333333
 41
0.333333
  0
VERTEX
  8
0
 10
3.79422
 20
262.463
 30
0.0
 40
0.333333
 41
0.333333
  0
VERTEX
  8
0
 10
3.85742
 20
262.594
 30
0.0
 40
0.333333
 41
0.333333
  0
VERTEX
  8
0
 10
3.93251
 20
262.718
 30
0.0
 40
0.333333
 41
0.333333
  0
VERTEX
  8
0
 10
4.01888
 20
262.833
 30
0.0
 40
0.333333
 41
0.333333
  0
VERTEX
  8
0
 10
4.11572
 20
262.94
 30
0.0
 40
0.333333
 41
0.333333
  0
VERTEX
  8
0
 10
4.22222
 20
263.036
 30
0.0
 40
0.333333
 41
0.333333
  0
VERTEX
  8
0
 10
4.33768
 20
263.124
 30
0.0
 40
0.333333
 41
0.333333
  0
VERTEX
  8
0
 10
4.46137
 20
263.199
 30
0.0
 40
0.333333
 41
0.333333
  0
VERTEX
  8
0
 10
4.5925
 20
263.261
 30
0.0
 40
0.333333
 41
0.333333
  0
VERTEX
  8
0
 10
4.73031
 20
263.311
 30
0.0
 40
0.333333
 41
0.333333
  0
VERTEX
  8
0
 10
4.87408
 20
263.349
 30
0.0
 40
0.333333
 41
0.333333
  0
VERTEX
  8
0
 10
5.023
 20
263.371
 30
0.0
 40
0.333333
 41
0.333333
  0
VERTEX
  8
0
 10
5.13803
 20
263.379
 30
0.0
 40
0.333333
 41
0.333333
  0
VERTEX
  8
0
 10
5.17638
 20
263.379
 30
0.0
 40
0.333333
 41
0.333333
  0
VERTEX
  8
0
 10
5.21468
 20
263.379
 30
0.0
 40
0.333333
 41
0.333333
  0
VERTEX
  8
0
 10
5.32969
 20
263.371
 30
0.0
 40
0.333333
 41
0.333333
  0
VERTEX
  8
0
 10
5.47868
 20
263.349
 30
0.0
 40
0.333333
 41
0.333333
  0
VERTEX
  8
0
 10
5.6224
 20
263.311
 30
0.0
 40
0.333333
 41
0.333333
  0
VERTEX
  8
0
 10
5.76025
 20
263.261
 30
0.0
 40
0.333333
 41
0.333333
  0
VERTEX
  8
0
 10
5.89133
 20
263.199
 30
0.0
 40
0.333333
 41
0.333333
  0
VERTEX
  8
0
 10
6.01503
 20
263.124
 30
0.0
 40
0.333333
 41
0.333333
  0
VERTEX
  8
0
 10
6.13049
 20
263.036
 30
0.0
 40
0.333333
 41
0.333333
  0
VERTEX
  8
0
 10
6.23703
 20
262.94
 30
0.0
 40
0.333333
 41
0.333333
  0
VERTEX
  8
0
 10
6.33382
 20
262.833
 30
0.0
 40
0.333333
 41
0.333333
  0
VERTEX
  8
0
 10
6.42019
 20
262.718
 30
0.0
 40
0.333333
 41
0.333333
  0
VERTEX
  8
0
 10
6.49533
 20
262.594
 30
0.0
 40
0.333333
 41
0.333333
  0
VERTEX
  8
0
 10
6.55849
 20
262.463
 30
0.0
 40
0.333333
 41
0.333333
  0
VERTEX
  8
0
 10
6.60894
 20
262.325
 30
0.0
 40
0.333333
 41
0.333333
  0
VERTEX
  8
0
 10
6.64589
 20
262.182
 30
0.0
 40
0.333333
 41
0.333333
  0
VERTEX
  8
0
 10
6.66862
 20
262.032
 30
0.0
 40
0.333333
 41
0.333333
  0
VERTEX
  8
0
 10
6.67638
 20
261.918
 30
0.0
 40
0.333333
 41
0.333333
  0
VERTEX
  8
0
 10
6.67638
 20
261.879
 30
0.0
 40
0.333333
 41
0.333333
  0
SEQEND
 8
0
  0
POLYLINE
  8
0
 62
     0
 66
     1
 10
0
 20
0
 30
0.0
 70
     1
 40
24
 41
24
  0
VERTEX
  8
0
 10
250.676
 20
128.529
 30
0.0
 40
0.333333
 41
0.333333
  0
VERTEX
  8
0
 10
250.676
 20
128.491
 30
0.0
 40
0.333333
 41
0.333333
  0
VERTEX
  8
0
 10
250.669
 20
128.376
 30
0.0
 40
0.333333
 41
0.333333
  0
VERTEX
  8
0
 10
250.646
 20
128.227
 30
0.0
 40
0.333333
 41
0.333333
  0
VERTEX
  8
0
 10
250.61
 20
128.083
 30
0.0
 40
0.333333
 41
0.333333
  0
VERTEX
  8
0
 10
250.558
 20
127.945
 30
0.0
 40
0.333333
 41
0.333333
  0
VERTEX
  8
0
 10
250.496
 20
127.814
 30
0.0
 40
0.333333
 41
0.333333
  0
VERTEX
  8
0
 10
250.421
 20
127.69
 30
0.0
 40
0.333333
 41
0.333333
  0
VERTEX
  8
0
 10
250.335
 20
127.575
 30
0.0
 40
0.333333
 41
0.333333
  0
VERTEX
  8
0
 10
250.237
 20
127.468
 30
0.0
 40
0.333333
 41
0.333333
  0
VERTEX
  8
0
 10
250.131
 20
127.372
 30
0.0
 40
0.333333
 41
0.333333
  0
VERTEX
  8
0
 10
250.015
 20
127.285
 30
0.0
 40
0.333333
 41
0.333333
  0
VERTEX
  8
0
 10
249.892
 20
127.21
 30
0.0
 40
0.333333
 41
0.333333
  0
VERTEX
  8
0
 10
249.761
 20
127.147
 30
0.0
 40
0.333333
 41
0.333333
  0
VERTEX
  8
0
 10
249.622
 20
127.096
 30
0.0
 40
0.333333
 41
0.333333
  0
VERTEX
  8
0
 10
249.479
 20
127.059
 30
0.0
 40
0.333333
 41
0.333333
  0
VERTEX
  8
0
 10
249.331
 20
127.037
 30
0.0
 40
0.333333
 41
0.333333
  0
VERTEX
  8
0
 10
249.215
 20
127.029
 30
0.0
 40
0.333333
 41
0.333333
  0
VERTEX
  8
0
 10
249.176
 20
127.029
 30
0.0
 40
0.333333
 41
0.333333
  0
VERTEX
  8
0
 10
249.139
 20
127.029
 30
0.0
 40
0.333333
 41
0.333333
  0
VERTEX
  8
0
 10
249.024
 20
127.037
 30
0.0
 40
0.333333
 41
0.333333
  0
VERTEX
  8
0
 10
248.875
 20
127.059
 30
0.0
 40
0.333333
 41
0.333333
  0
VERTEX
  8
0
 10
248.731
 20
127.096
 30
0.0
 40
0.333333
 41
0.333333
  0
VERTEX
  8
0
 10
248.593
 20
127.147
 30
0.0
 40
0.333333
 41
0.333333
  0
VERTEX
  8
0
 10
248.461
 20
127.21
 30
0.0
 40
0.333333
 41
0.333333
  0
VERTEX
  8
0
 10
248.338
 20
127.285
 30
0.0
 40
0.333333
 41
0.333333
  0
VERTEX
  8
0
 10
248.222
 20
127.372
 30
0.0
 40
0.333333
 41
0.333333
  0
VERTEX
  8
0
 10
248.117
 20
127.468
 30
0.0
 40
0.333333
 41
0.333333
  0
VERTEX
  8
0
 10
248.019
 20
127.575
 30
0.0
 40
0.333333
 41
0.333333
  0
VERTEX
  8
0
 10
247.933
 20
127.69
 30
0.0
 40
0.333333
 41
0.333333
  0
VERTEX
  8
0
 10
247.858
 20
127.814
 30
0.0
 40
0.333333
 41
0.333333
  0
VERTEX
  8
0
 10
247.794
 20
127.945
 30
0.0
 40
0.333333
 41
0.333333
  0
VERTEX
  8
0
 10
247.744
 20
128.083
 30
0.0
 40
0.333333
 41
0.333333
  0
VERTEX
  8
0
 10
247.707
 20
128.227
 30
0.0
 40
0.333333
 41
0.333333
  0
VERTEX
  8
0
 10
247.685
 20
128.376
 30
0.0
 40
0.333333
 41
0.333333
  0
VERTEX
  8
0
 10
247.676
 20
128.491
 30
0.0
 40
0.333333
 41
0.333333
  0
VERTEX
  8
0
 10
247.676
 20
128.529
 30
0.0
 40
0.333333
 41
0.333333
  0
VERTEX
  8
0
 10
247.676
 20
128.567
 30
0.0
 40
0.333333
 41
0.333333
  0
VERTEX
  8
0
 10
247.685
 20
128.682
 30
0.0
 40
0.333333
 41
0.333333
  0
VERTEX
  8
0
 10
247.707
 20
128.831
 30
0.0
 40
0.333333
 41
0.333333
  0
VERTEX
  8
0
 10
247.744
 20
128.975
 30
0.0
 40
0.333333
 41
0.333333
  0
VERTEX
  8
0
 10
247.794
 20
129.113
 30
0.0
 40
0.333333
 41
0.333333
  0
VERTEX
  8
0
 10
247.858
 20
129.244
 30
0.0
 40
0.333333
 41
0.333333
  0
VERTEX
  8
0
 10
247.933
 20
129.368
 30
0.0
 40
0.333333
 41
0.333333
  0
VERTEX
  8
0
 10
248.019
 20
129.483
 30
0.0
 40
0.333333
 41
0.333333
  0
VERTEX
  8
0
 10
248.117
 20
129.59
 30
0.0
 40
0.333333
 41
0.333333
  0
VERTEX
  8
0
 10
248.222
 20
129.687
 30
0.0
 40
0.333333
 41
0.333333
  0
VERTEX
  8
0
 10
248.338
 20
129.773
 30
0.0
 40
0.333333
 41
0.333333
  0
VERTEX
  8
0
 10
248.461
 20
129.848
 30
0.0
 40
0.333333
 41
0.333333
  0
VERTEX
  8
0
 10
248.593
 20
129.911
 30
0.0
 40
0.333333
 41
0.333333
  0
VERTEX
  8
0
 10
248.731
 20
129.962
 30
0.0
 40
0.333333
 41
0.333333
  0
VERTEX
  8
0
 10
248.875
 20
129.998
 30
0.0
 40
0.333333
 41
0.333333
  0
VERTEX
  8
0
 10
249.024
 20
130.021
 30
0.0
 40
0.333333
 41
0.333333
  0
VERTEX
  8
0
 10
249.139
 20
130.029
 30
0.0
 40
0.333333
 41
0.333333
  0
VERTEX
  8
0
 10
249.176
 20
130.029
 30
0.0
 40
0.333333
 41
0.333333
  0
VERTEX
  8
0
 10
249.215
 20
130.029
 30
0.0
 40
0.333333
 41
0.333333
  0
VERTEX
  8
0
 10
249.331
 20
130.021
 30
0.0
 40
0.333333
 41
0.333333
  0
VERTEX
  8
0
 10
249.479
 20
129.998
 30
0.0
 40
0.333333
 41
0.333333
  0
VERTEX
  8
0
 10
249.622
 20
129.962
 30
0.0
 40
0.333333
 41
0.333333
  0
VERTEX
  8
0
 10
249.761
 20
129.911
 30
0.0
 40
0.333333
 41
0.333333
  0
VERTEX
  8
0
 10
249.892
 20
129.848
 30
0.0
 40
0.333333
 41
0.333333
  0
VERTEX
  8
0
 10
250.015
 20
129.773
 30
0.0
 40
0.333333
 41
0.333333
  0
VERTEX
  8
0
 10
250.131
 20
129.687
 30
0.0
 40
0.333333
 41
0.333333
  0
VERTEX
  8
0
 10
250.237
 20
129.59
 30
0.0
 40
0.333333
 41
0.333333
  0
VERTEX
  8
0
 10
250.335
 20
129.483
 30
0.0
 40
0.333333
 41
0.333333
  0
VERTEX
  8
0
 10
250.421
 20
129.368
 30
0.0
 40
0.333333
 41
0.333333
  0
VERTEX
  8
0
 10
250.496
 20
129.244
 30
0.0
 40
0.333333
 41
0.333333
  0
VERTEX
  8
0
 10
250.558
 20
129.113
 30
0.0
 40
0.333333
 41
0.333333
  0
VERTEX
  8
0
 10
250.61
 20
128.975
 30
0.0
 40
0.333333
 41
0.333333
  0
VERTEX
  8
0
 10
250.646
 20
128.831
 30
0.0
 40
0.333333
 41
0.333333
  0
VERTEX
  8
0
 10
250.669
 20
128.682
 30
0.0
 40
0.333333
 41
0.333333
  0
VERTEX
  8
0
 10
250.676
 20
128.567
 30
0.0
 40
0.333333
 41
0.333333
  0
VERTEX
  8
0
 10
250.676
 20
128.529
 30
0.0
 40
0.333333
 41
0.333333
  0
SEQEND
 8
0
  0
POLYLINE
  8
0
 62
     0
 66
     1
 10
0
 20
0
 30
0.0
 70
     1
 40
24
 41
24
  0
VERTEX
  8
0
 10
128.677
 20
128.529
 30
0.0
 40
0.333333
 41
0.333333
  0
VERTEX
  8
0
 10
128.677
 20
128.491
 30
0.0
 40
0.333333
 41
0.333333
  0
VERTEX
  8
0
 10
128.669
 20
128.376
 30
0.0
 40
0.333333
 41
0.333333
  0
VERTEX
  8
0
 10
128.646
 20
128.227
 30
0.0
 40
0.333333
 41
0.333333
  0
VERTEX
  8
0
 10
128.609
 20
128.083
 30
0.0
 40
0.333333
 41
0.333333
  0
VERTEX
  8
0
 10
128.559
 20
127.945
 30
0.0
 40
0.333333
 41
0.333333
  0
VERTEX
  8
0
 10
128.496
 20
127.814
 30
0.0
 40
0.333333
 41
0.333333
  0
VERTEX
  8
0
 10
128.42
 20
127.69
 30
0.0
 40
0.333333
 41
0.333333
  0
VERTEX
  8
0
 10
128.334
 20
127.575
 30
0.0
 40
0.333333
 41
0.333333
  0
VERTEX
  8
0
 10
128.237
 20
127.468
 30
0.0
 40
0.333333
 41
0.333333
  0
VERTEX
  8
0
 10
128.131
 20
127.372
 30
0.0
 40
0.333333
 41
0.333333
  0
VERTEX
  8
0
 10
128.015
 20
127.285
 30
0.0
 40
0.333333
 41
0.333333
  0
VERTEX
  8
0
 10
127.892
 20
127.21
 30
0.0
 40
0.333333
 41
0.333333
  0
VERTEX
  8
0
 10
127.76
 20
127.147
 30
0.0
 40
0.333333
 41
0.333333
  0
VERTEX
  8
0
 10
127.623
 20
127.096
 30
0.0
 40
0.333333
 41
0.333333
  0
VERTEX
  8
0
 10
127.479
 20
127.059
 30
0.0
 40
0.333333
 41
0.333333
  0
VERTEX
  8
0
 10
127.33
 20
127.037
 30
0.0
 40
0.333333
 41
0.333333
  0
VERTEX
  8
0
 10
127.215
 20
127.029
 30
0.0
 40
0.333333
 41
0.333333
  0
VERTEX
  8
0
 10
127.177
 20
127.029
 30
0.0
 40
0.333333
 41
0.333333
  0
VERTEX
  8
0
 10
127.138
 20
127.029
 30
0.0
 40
0.333333
 41
0.333333
  0
VERTEX
  8
0
 10
127.023
 20
127.037
 30
0.0
 40
0.333333
 41
0.333333
  0
VERTEX
  8
0
 10
126.874
 20
127.059
 30
0.0
 40
0.333333
 41
0.333333
  0
VERTEX
  8
0
 10
126.731
 20
127.096
 30
0.0
 40
0.333333
 41
0.333333
  0
VERTEX
  8
0
 10
126.593
 20
127.147
 30
0.0
 40
0.333333
 41
0.333333
  0
VERTEX
  8
0
 10
126.462
 20
127.21
 30
0.0
 40
0.333333
 41
0.333333
  0
VERTEX
  8
0
 10
126.338
 20
127.285
 30
0.0
 40
0.333333
 41
0.333333
  0
VERTEX
  8
0
 10
126.222
 20
127.372
 30
0.0
 40
0.333333
 41
0.333333
  0
VERTEX
  8
0
 10
126.116
 20
127.468
 30
0.0
 40
0.333333
 41
0.333333
  0
VERTEX
  8
0
 10
126.019
 20
127.575
 30
0.0
 40
0.333333
 41
0.333333
  0
VERTEX
  8
0
 10
125.933
 20
127.69
 30
0.0
 40
0.333333
 41
0.333333
  0
VERTEX
  8
0
 10
125.858
 20
127.814
 30
0.0
 40
0.333333
 41
0.333333
  0
VERTEX
  8
0
 10
125.794
 20
127.945
 30
0.0
 40
0.333333
 41
0.333333
  0
VERTEX
  8
0
 10
125.744
 20
128.083
 30
0.0
 40
0.333333
 41
0.333333
  0
VERTEX
  8
0
 10
125.707
 20
128.227
 30
0.0
 40
0.333333
 41
0.333333
  0
VERTEX
  8
0
 10
125.684
 20
128.376
 30
0.0
 40
0.333333
 41
0.333333
  0
VERTEX
  8
0
 10
125.677
 20
128.491
 30
0.0
 40
0.333333
 41
0.333333
  0
VERTEX
  8
0
 10
125.677
 20
128.529
 30
0.0
 40
0.333333
 41
0.333333
  0
VERTEX
  8
0
 10
125.677
 20
128.567
 30
0.0
 40
0.333333
 41
0.333333
  0
VERTEX
  8
0
 10
125.684
 20
128.682
 30
0.0
 40
0.333333
 41
0.333333
  0
VERTEX
  8
0
 10
125.707
 20
128.831
 30
0.0
 40
0.333333
 41
0.333333
  0
VERTEX
  8
0
 10
125.744
 20
128.975
 30
0.0
 40
0.333333
 41
0.333333
  0
VERTEX
  8
0
 10
125.794
 20
129.113
 30
0.0
 40
0.333333
 41
0.333333
  0
VERTEX
  8
0
 10
125.858
 20
129.244
 30
0.0
 40
0.333333
 41
0.333333
  0
VERTEX
  8
0
 10
125.933
 20
129.368
 30
0.0
 40
0.333333
 41
0.333333
  0
VERTEX
  8
0
 10
126.019
 20
129.483
 30
0.0
 40
0.333333
 41
0.333333
  0
VERTEX
  8
0
 10
126.116
 20
129.59
 30
0.0
 40
0.333333
 41
0.333333
  0
VERTEX
  8
0
 10
126.222
 20
129.687
 30
0.0
 40
0.333333
 41
0.333333
  0
VERTEX
  8
0
 10
126.338
 20
129.773
 30
0.0
 40
0.333333
 41
0.333333
  0
VERTEX
  8
0
 10
126.462
 20
129.848
 30
0.0
 40
0.333333
 41
0.333333
  0
VERTEX
  8
0
 10
126.593
 20
129.911
 30
0.0
 40
0.333333
 41
0.333333
  0
VERTEX
  8
0
 10
126.731
 20
129.962
 30
0.0
 40
0.333333
 41
0.333333
  0
VERTEX
  8
0
 10
126.874
 20
129.998
 30
0.0
 40
0.333333
 41
0.333333
  0
VERTEX
  8
0
 10
127.023
 20
130.021
 30
0.0
 40
0.333333
 41
0.333333
  0
VERTEX
  8
0
 10
127.138
 20
130.029
 30
0.0
 40
0.333333
 41
0.333333
  0
VERTEX
  8
0
 10
127.177
 20
130.029
 30
0.0
 40
0.333333
 41
0.333333
  0
VERTEX
  8
0
 10
127.215
 20
130.029
 30
0.0
 40
0.333333
 41
0.333333
  0
VERTEX
  8
0
 10
127.33
 20
130.021
 30
0.0
 40
0.333333
 41
0.333333
  0
VERTEX
  8
0
 10
127.479
 20
129.998
 30
0.0
 40
0.333333
 41
0.333333
  0
VERTEX
  8
0
 10
127.623
 20
129.962
 30
0.0
 40
0.333333
 41
0.333333
  0
VERTEX
  8
0
 10
127.76
 20
129.911
 30
0.0
 40
0.333333
 41
0.333333
  0
VERTEX
  8
0
 10
127.892
 20
129.848
 30
0.0
 40
0.333333
 41
0.333333
  0
VERTEX
  8
0
 10
128.015
 20
129.773
 30
0.0
 40
0.333333
 41
0.333333
  0
VERTEX
  8
0
 10
128.131
 20
129.687
 30
0.0
 40
0.333333
 41
0.333333
  0
VERTEX
  8
0
 10
128.237
 20
129.59
 30
0.0
 40
0.333333
 41
0.333333
  0
VERTEX
  8
0
 10
128.334
 20
129.483
 30
0.0
 40
0.333333
 41
0.333333
  0
VERTEX
  8
0
 10
128.42
 20
129.368
 30
0.0
 40
0.333333
 41
0.333333
  0
VERTEX
  8
0
 10
128.496
 20
129.244
 30
0.0
 40
0.333333
 41
0.333333
  0
VERTEX
  8
0
 10
128.559
 20
129.113
 30
0.0
 40
0.333333
 41
0.333333
  0
VERTEX
  8
0
 10
128.609
 20
128.975
 30
0.0
 40
0.333333
 41
0.333333
  0
VERTEX
  8
0
 10
128.646
 20
128.831
 30
0.0
 40
0.333333
 41
0.333333
  0
VERTEX
  8
0
 10
128.669
 20
128.682
 30
0.0
 40
0.333333
 41
0.333333
  0
VERTEX
  8
0
 10
128.677
 20
128.567
 30
0.0
 40
0.333333
 41
0.333333
  0
VERTEX
  8
0
 10
128.677
 20
128.529
 30
0.0
 40
0.333333
 41
0.333333
  0
SEQEND
 8
0
  0
POLYLINE
  8
0
 62
     0
 66
     1
 10
0
 20
0
 30
0.0
 70
     1
 40
24
 41
24
  0
VERTEX
  8
0
 10
6.67638
 20
128.529
 30
0.0
 40
0.333333
 41
0.333333
  0
VERTEX
  8
0
 10
6.67638
 20
128.491
 30
0.0
 40
0.333333
 41
0.333333
  0
VERTEX
  8
0
 10
6.66862
 20
128.376
 30
0.0
 40
0.333333
 41
0.333333
  0
VERTEX
  8
0
 10
6.64589
 20
128.227
 30
0.0
 40
0.333333
 41
0.333333
  0
VERTEX
  8
0
 10
6.60894
 20
128.083
 30
0.0
 40
0.333333
 41
0.333333
  0
VERTEX
  8
0
 10
6.55849
 20
127.945
 30
0.0
 40
0.333333
 41
0.333333
  0
VERTEX
  8
0
 10
6.49533
 20
127.814
 30
0.0
 40
0.333333
 41
0.333333
  0
VERTEX
  8
0
 10
6.42019
 20
127.69
 30
0.0
 40
0.333333
 41
0.333333
  0
VERTEX
  8
0
 10
6.33382
 20
127.575
 30
0.0
 40
0.333333
 41
0.333333
  0
VERTEX
  8
0
 10
6.23703
 20
127.468
 30
0.0
 40
0.333333
 41
0.333333
  0
VERTEX
  8
0
 10
6.13049
 20
127.372
 30
0.0
 40
0.333333
 41
0.333333
  0
VERTEX
  8
0
 10
6.01503
 20
127.285
 30
0.0
 40
0.333333
 41
0.333333
  0
VERTEX
  8
0
 10
5.89133
 20
127.21
 30
0.0
 40
0.333333
 41
0.333333
  0
VERTEX
  8
0
 10
5.76025
 20
127.147
 30
0.0
 40
0.333333
 41
0.333333
  0
VERTEX
  8
0
 10
5.6224
 20
127.096
 30
0.0
 40
0.333333
 41
0.333333
  0
VERTEX
  8
0
 10
5.47868
 20
127.059
 30
0.0
 40
0.333333
 41
0.333333
  0
VERTEX
  8
0
 10
5.32969
 20
127.037
 30
0.0
 40
0.333333
 41
0.333333
  0
VERTEX
  8
0
 10
5.21468
 20
127.029
 30
0.0
 40
0.333333
 41
0.333333
  0
VERTEX
  8
0
 10
5.17638
 20
127.029
 30
0.0
 40
0.333333
 41
0.333333
  0
VERTEX
  8
0
 10
5.13803
 20
127.029
 30
0.0
 40
0.333333
 41
0.333333
  0
VERTEX
  8
0
 10
5.023
 20
127.037
 30
0.0
 40
0.333333
 41
0.333333
  0
VERTEX
  8
0
 10
4.87408
 20
127.059
 30
0.0
 40
0.333333
 41
0.333333
  0
VERTEX
  8
0
 10
4.73031
 20
127.096
 30
0.0
 40
0.333333
 41
0.333333
  0
VERTEX
  8
0
 10
4.5925
 20
127.147
 30
0.0
 40
0.333333
 41
0.333333
  0
VERTEX
  8
0
 10
4.46137
 20
127.21
 30
0.0
 40
0.333333
 41
0.333333
  0
VERTEX
  8
0
 10
4.33768
 20
127.285
 30
0.0
 40
0.333333
 41
0.333333
  0
VERTEX
  8
0
 10
4.22222
 20
127.372
 30
0.0
 40
0.333333
 41
0.333333
  0
VERTEX
  8
0
 10
4.11572
 20
127.468
 30
0.0
 40
0.333333
 41
0.333333
  0
VERTEX
  8
0
 10
4.01888
 20
127.575
 30
0.0
 40
0.333333
 41
0.333333
  0
VERTEX
  8
0
 10
3.93251
 20
127.69
 30
0.0
 40
0.333333
 41
0.333333
  0
VERTEX
  8
0
 10
3.85742
 20
127.814
 30
0.0
 40
0.333333
 41
0.333333
  0
VERTEX
  8
0
 10
3.79422
 20
127.945
 30
0.0
 40
0.333333
 41
0.333333
  0
VERTEX
  8
0
 10
3.74382
 20
128.083
 30
0.0
 40
0.333333
 41
0.333333
  0
VERTEX
  8
0
 10
3.70682
 20
128.227
 30
0.0
 40
0.333333
 41
0.333333
  0
VERTEX
  8
0
 10
3.68408
 20
128.376
 30
0.0
 40
0.333333
 41
0.333333
  0
VERTEX
  8
0
 10
3.67638
 20
128.491
 30
0.0
 40
0.333333
 41
0.333333
  0
VERTEX
  8
0
 10
3.67638
 20
128.529
 30
0.0
 40
0.333333
 41
0.333333
  0
VERTEX
  8
0
 10
3.67638
 20
128.567
 30
0.0
 40
0.333333
 41
0.333333
  0
VERTEX
  8
0
 10
3.68408
 20
128.682
 30
0.0
 40
0.333333
 41
0.333333
  0
VERTEX
  8
0
 10
3.70682
 20
128.831
 30
0.0
 40
0.333333
 41
0.333333
  0
VERTEX
  8
0
 10
3.74382
 20
128.975
 30
0.0
 40
0.333333
 41
0.333333
  0
VERTEX
  8
0
 10
3.79422
 20
129.113
 30
0.0
 40
0.333333
 41
0.333333
  0
VERTEX
  8
0
 10
3.85742
 20
129.244
 30
0.0
 40
0.333333
 41
0.333333
  0
VERTEX
  8
0
 10
3.93251
 20
129.368
 30
0.0
 40
0.333333
 41
0.333333
  0
VERTEX
  8
0
 10
4.01888
 20
129.483
 30
0.0
 40
0.333333
 41
0.333333
  0
VERTEX
  8
0
 10
4.11572
 20
129.59
 30
0.0
 40
0.333333
 41
0.333333
  0
VERTEX
  8
0
 10
4.22222
 20
129.687
 30
0.0
 40
0.333333
 41
0.333333
  0
VERTEX
  8
0
 10
4.33768
 20
129.773
 30
0.0
 40
0.333333
 41
0.333333
  0
VERTEX
  8
0
 10
4.46137
 20
129.848
 30
0.0
 40
0.333333
 41
0.333333
  0
VERTEX
  8
0
 10
4.5925
 20
129.911
 30
0.0
 40
0.333333
 41
0.333333
  0
VERTEX
  8
0
 10
4.73031
 20
129.962
 30
0.0
 40
0.333333
 41
0.333333
  0
VERTEX
  8
0
 10
4.87408
 20
129.998
 30
0.0
 40
0.333333
 41
0.333333
  0
VERTEX
  8
0
 10
5.023
 20
130.021
 30
0.0
 40
0.333333
 41
0.333333
  0
VERTEX
  8
0
 10
5.13803
 20
130.029
 30
0.0
 40
0.333333
 41
0.333333
  0
VERTEX
  8
0
 10
5.17638
 20
130.029
 30
0.0
 40
0.333333
 41
0.333333
  0
VERTEX
  8
0
 10
5.21468
 20
130.029
 30
0.0
 40
0.333333
 41
0.333333
  0
VERTEX
  8
0
 10
5.32969
 20
130.021
 30
0.0
 40
0.333333
 41
0.333333
  0
VERTEX
  8
0
 10
5.47868
 20
129.998
 30
0.0
 40
0.333333
 41
0.333333
  0
VERTEX
  8
0
 10
5.6224
 20
129.962
 30
0.0
 40
0.333333
 41
0.333333
  0
VERTEX
  8
0
 10
5.76025
 20
129.911
 30
0.0
 40
0.333333
 41
0.333333
  0
VERTEX
  8
0
 10
5.89133
 20
129.848
 30
0.0
 40
0.333333
 41
0.333333
  0
VERTEX
  8
0
 10
6.01503
 20
129.773
 30
0.0
 40
0.333333
 41
0.333333
  0
VERTEX
  8
0
 10
6.13049
 20
129.687
 30
0.0
 40
0.333333
 41
0.333333
  0
VERTEX
  8
0
 10
6.23703
 20
129.59
 30
0.0
 40
0.333333
 41
0.333333
  0
VERTEX
  8
0
 10
6.33382
 20
129.483
 30
0.0
 40
0.333333
 41
0.333333
  0
VERTEX
  8
0
 10
6.42019
 20
129.368
 30
0.0
 40
0.333333
 41
0.333333
  0
VERTEX
  8
0
 10
6.49533
 20
129.244
 30
0.0
 40
0.333333
 41
0.333333
  0
VERTEX
  8
0
 10
6.55849
 20
129.113
 30
0.0
 40
0.333333
 41
0.333333
  0
VERTEX
  8
0
 10
6.60894
 20
128.975
 30
0.0
 40
0.333333
 41
0.333333
  0
VERTEX
  8
0
 10
6.64589
 20
128.831
 30
0.0
 40
0.333333
 41
0.333333
  0
VERTEX
  8
0
 10
6.66862
 20
128.682
 30
0.0
 40
0.333333
 41
0.333333
  0
VERTEX
  8
0
 10
6.67638
 20
128.567
 30
0.0
 40
0.333333
 41
0.333333
  0
VERTEX
  8
0
 10
6.67638
 20
128.529
 30
0.0
 40
0.333333
 41
0.333333
  0
SEQEND
 8
0
  0
POLYLINE
  8
0
 62
     0
 66
     1
 10
0
 20
0
 30
0.0
 70
     1
 40
24
 41
24
  0
VERTEX
  8
0
 10
128.677
 20
5.17876
 30
0.0
 40
0.333333
 41
0.333333
  0
VERTEX
  8
0
 10
128.677
 20
5.14046
 30
0.0
 40
0.333333
 41
0.333333
  0
VERTEX
  8
0
 10
128.669
 20
5.02544
 30
0.0
 40
0.333333
 41
0.333333
  0
VERTEX
  8
0
 10
128.646
 20
4.87651
 30
0.0
 40
0.333333
 41
0.333333
  0
VERTEX
  8
0
 10
128.609
 20
4.73275
 30
0.0
 40
0.333333
 41
0.333333
  0
VERTEX
  8
0
 10
128.559
 20
4.59494
 30
0.0
 40
0.333333
 41
0.333333
  0
VERTEX
  8
0
 10
128.496
 20
4.46382
 30
0.0
 40
0.333333
 41
0.333333
  0
VERTEX
  8
0
 10
128.42
 20
4.34011
 30
0.0
 40
0.333333
 41
0.333333
  0
VERTEX
  8
0
 10
128.334
 20
4.22467
 30
0.0
 40
0.333333
 41
0.333333
  0
VERTEX
  8
0
 10
128.237
 20
4.11817
 30
0.0
 40
0.333333
 41
0.333333
  0
VERTEX
  8
0
 10
128.131
 20
4.02132
 30
0.0
 40
0.333333
 41
0.333333
  0
VERTEX
  8
0
 10
128.015
 20
3.93494
 30
0.0
 40
0.333333
 41
0.333333
  0
VERTEX
  8
0
 10
127.892
 20
3.85986
 30
0.0
 40
0.333333
 41
0.333333
  0
VERTEX
  8
0
 10
127.76
 20
3.79665
 30
0.0
 40
0.333333
 41
0.333333
  0
VERTEX
  8
0
 10
127.623
 20
3.74625
 30
0.0
 40
0.333333
 41
0.333333
  0
VERTEX
  8
0
 10
127.479
 20
3.70925
 30
0.0
 40
0.333333
 41
0.333333
  0
VERTEX
  8
0
 10
127.33
 20
3.68653
 30
0.0
 40
0.333333
 41
0.333333
  0
VERTEX
  8
0
 10
127.215
 20
3.67876
 30
0.0
 40
0.333333
 41
0.333333
  0
VERTEX
  8
0
 10
127.177
 20
3.67876
 30
0.0
 40
0.333333
 41
0.333333
  0
VERTEX
  8
0
 10
127.138
 20
3.67876
 30
0.0
 40
0.333333
 41
0.333333
  0
VERTEX
  8
0
 10
127.023
 20
3.68653
 30
0.0
 40
0.333333
 41
0.333333
  0
VERTEX
  8
0
 10
126.874
 20
3.70925
 30
0.0
 40
0.333333
 41
0.333333
  0
VERTEX
  8
0
 10
126.731
 20
3.74625
 30
0.0
 40
0.333333
 41
0.333333
  0
VERTEX
  8
0
 10
126.593
 20
3.79665
 30
0.0
 40
0.333333
 41
0.333333
  0
VERTEX
  8
0
 10
126.462
 20
3.85986
 30
0.0
 40
0.333333
 41
0.333333
  0
VERTEX
  8
0
 10
126.338
 20
3.93494
 30
0.0
 40
0.333333
 41
0.333333
  0
VERTEX
  8
0
 10
126.222
 20
4.02132
 30
0.0
 40
0.333333
 41
0.333333
  0
VERTEX
  8
0
 10
126.116
 20
4.11817
 30
0.0
 40
0.333333
 41
0.333333
  0
VERTEX
  8
0
 10
126.019
 20
4.22467
 30
0.0
 40
0.333333
 41
0.333333
  0
VERTEX
  8
0
 10
125.933
 20
4.34011
 30
0.0
 40
0.333333
 41
0.333333
  0
VERTEX
  8
0
 10
125.858
 20
4.46382
 30
0.0
 40
0.333333
 41
0.333333
  0
VERTEX
  8
0
 10
125.794
 20
4.59494
 30
0.0
 40
0.333333
 41
0.333333
  0
VERTEX
  8
0
 10
125.744
 20
4.73275
 30
0.0
 40
0.333333
 41
0.333333
  0
VERTEX
  8
0
 10
125.707
 20
4.87651
 30
0.0
 40
0.333333
 41
0.333333
  0
VERTEX
  8
0
 10
125.684
 20
5.02544
 30
0.0
 40
0.333333
 41
0.333333
  0
VERTEX
  8
0
 10
125.677
 20
5.14046
 30
0.0
 40
0.333333
 41
0.333333
  0
VERTEX
  8
0
 10
125.677
 20
5.17876
 30
0.0
 40
0.333333
 41
0.333333
  0
VERTEX
  8
0
 10
125.677
 20
5.21712
 30
0.0
 40
0.333333
 41
0.333333
  0
VERTEX
  8
0
 10
125.684
 20
5.33214
 30
0.0
 40
0.333333
 41
0.333333
  0
VERTEX
  8
0
 10
125.707
 20
5.48112
 30
0.0
 40
0.333333
 41
0.333333
  0
VERTEX
  8
0
 10
125.744
 20
5.62483
 30
0.0
 40
0.333333
 41
0.333333
  0
VERTEX
  8
0
 10
125.794
 20
5.76269
 30
0.0
 40
0.333333
 41
0.333333
  0
VERTEX
  8
0
 10
125.858
 20
5.89378
 30
0.0
 40
0.333333
 41
0.333333
  0
VERTEX
  8
0
 10
125.933
 20
6.01747
 30
0.0
 40
0.333333
 41
0.333333
  0
VERTEX
  8
0
 10
126.019
 20
6.13292
 30
0.0
 40
0.333333
 41
0.333333
  0
VERTEX
  8
0
 10
126.116
 20
6.23947
 30
0.0
 40
0.333333
 41
0.333333
  0
VERTEX
  8
0
 10
126.222
 20
6.33626
 30
0.0
 40
0.333333
 41
0.333333
  0
VERTEX
  8
0
 10
126.338
 20
6.42264
 30
0.0
 40
0.333333
 41
0.333333
  0
VERTEX
  8
0
 10
126.462
 20
6.49778
 30
0.0
 40
0.333333
 41
0.333333
  0
VERTEX
  8
0
 10
126.593
 20
6.56093
 30
0.0
 40
0.333333
 41
0.333333
  0
VERTEX
  8
0
 10
126.731
 20
6.61139
 30
0.0
 40
0.333333
 41
0.333333
  0
VERTEX
  8
0
 10
126.874
 20
6.64833
 30
0.0
 40
0.333333
 41
0.333333
  0
VERTEX
  8
0
 10
127.023
 20
6.67106
 30
0.0
 40
0.333333
 41
0.333333
  0
VERTEX
  8
0
 10
127.138
 20
6.67876
 30
0.0
 40
0.333333
 41
0.333333
  0
VERTEX
  8
0
 10
127.177
 20
6.67876
 30
0.0
 40
0.333333
 41
0.333333
  0
VERTEX
  8
0
 10
127.215
 20
6.67876
 30
0.0
 40
0.333333
 41
0.333333
  0
VERTEX
  8
0
 10
127.33
 20
6.67106
 30
0.0
 40
0.333333
 41
0.333333
  0
VERTEX
  8
0
 10
127.479
 20
6.64833
 30
0.0
 40
0.333333
 41
0.333333
  0
VERTEX
  8
0
 10
127.623
 20
6.61139
 30
0.0
 40
0.333333
 41
0.333333
  0
VERTEX
  8
0
 10
127.76
 20
6.56093
 30
0.0
 40
0.333333
 41
0.333333
  0
VERTEX
  8
0
 10
127.892
 20
6.49778
 30
0.0
 40
0.333333
 41
0.333333
  0
VERTEX
  8
0
 10
128.015
 20
6.42264
 30
0.0
 40
0.333333
 41
0.333333
  0
VERTEX
  8
0
 10
128.131
 20
6.33626
 30
0.0
 40
0.333333
 41
0.333333
  0
VERTEX
  8
0
 10
128.237
 20
6.23947
 30
0.0
 40
0.333333
 41
0.333333
  0
VERTEX
  8
0
 10
128.334
 20
6.13292
 30
0.0
 40
0.333333
 41
0.333333
  0
VERTEX
  8
0
 10
128.42
 20
6.01747
 30
0.0
 40
0.333333
 41
0.333333
  0
VERTEX
  8
0
 10
128.496
 20
5.89378
 30
0.0
 40
0.333333
 41
0.333333
  0
VERTEX
  8
0
 10
128.559
 20
5.76269
 30
0.0
 40
0.333333
 41
0.333333
  0
VERTEX
  8
0
 10
128.609
 20
5.62483
 30
0.0
 40
0.333333
 41
0.333333
  0
VERTEX
  8
0
 10
128.646
 20
5.48112
 30
0.0
 40
0.333333
 41
0.333333
  0
VERTEX
  8
0
 10
128.669
 20
5.33214
 30
0.0
 40
0.333333
 41
0.333333
  0
VERTEX
  8
0
 10
128.677
 20
5.21712
 30
0.0
 40
0.333333
 41
0.333333
  0
VERTEX
  8
0
 10
128.677
 20
5.17876
 30
0.0
 40
0.333333
 41
0.333333
  0
SEQEND
 8
0
  0
POLYLINE
  8
0
 62
     0
 66
     1
 10
0
 20
0
 30
0.0
 70
     1
 40
24
 41
24
  0
VERTEX
  8
0
 10
6.67638
 20
5.17876
 30
0.0
 40
0.333333
 41
0.333333
  0
VERTEX
  8
0
 10
6.67638
 20
5.14046
 30
0.0
 40
0.333333
 41
0.333333
  0
VERTEX
  8
0
 10
6.66862
 20
5.02544
 30
0.0
 40
0.333333
 41
0.333333
  0
VERTEX
  8
0
 10
6.64589
 20
4.87651
 30
0.0
 40
0.333333
 41
0.333333
  0
VERTEX
  8
0
 10
6.60894
 20
4.73275
 30
0.0
 40
0.333333
 41
0.333333
  0
VERTEX
  8
0
 10
6.55849
 20
4.59494
 30
0.0
 40
0.333333
 41
0.333333
  0
VERTEX
  8
0
 10
6.49533
 20
4.46382
 30
0.0
 40
0.333333
 41
0.333333
  0
VERTEX
  8
0
 10
6.42019
 20
4.34011
 30
0.0
 40
0.333333
 41
0.333333
  0
VERTEX
  8
0
 10
6.33382
 20
4.22467
 30
0.0
 40
0.333333
 41
0.333333
  0
VERTEX
  8
0
 10
6.23703
 20
4.11817
 30
0.0
 40
0.333333
 41
0.333333
  0
VERTEX
  8
0
 10
6.13049
 20
4.02132
 30
0.0
 40
0.333333
 41
0.333333
  0
VERTEX
  8
0
 10
6.01503
 20
3.93494
 30
0.0
 40
0.333333
 41
0.333333
  0
VERTEX
  8
0
 10
5.89133
 20
3.85986
 30
0.0
 40
0.333333
 41
0.333333
  0
VERTEX
  8
0
 10
5.76025
 20
3.79665
 30
0.0
 40
0.333333
 41
0.333333
  0
VERTEX
  8
0
 10
5.6224
 20
3.74625
 30
0.0
 40
0.333333
 41
0.333333
  0
VERTEX
  8
0
 10
5.47868
 20
3.70925
 30
0.0
 40
0.333333
 41
0.333333
  0
VERTEX
  8
0
 10
5.32969
 20
3.68653
 30
0.0
 40
0.333333
 41
0.333333
  0
VERTEX
  8
0
 10
5.21468
 20
3.67876
 30
0.0
 40
0.333333
 41
0.333333
  0
VERTEX
  8
0
 10
5.17638
 20
3.67876
 30
0.0
 40
0.333333
 41
0.333333
  0
VERTEX
  8
0
 10
5.13803
 20
3.67876
 30
0.0
 40
0.333333
 41
0.333333
  0
VERTEX
  8
0
 10
5.023
 20
3.68653
 30
0.0
 40
0.333333
 41
0.333333
  0
VERTEX
  8
0
 10
4.87408
 20
3.70925
 30
0.0
 40
0.333333
 41
0.333333
  0
VERTEX
  8
0
 10
4.73031
 20
3.74625
 30
0.0
 40
0.333333
 41
0.333333
  0
VERTEX
  8
0
 10
4.5925
 20
3.79665
 30
0.0
 40
0.333333
 41
0.333333
  0
VERTEX
  8
0
 10
4.46137
 20
3.85986
 30
0.0
 40
0.333333
 41
0.333333
  0
VERTEX
  8
0
 10
4.33768
 20
3.93494
 30
0.0
 40
0.333333
 41
0.333333
  0
VERTEX
  8
0
 10
4.22222
 20
4.02132
 30
0.0
 40
0.333333
 41
0.333333
  0
VERTEX
  8
0
 10
4.11572
 20
4.11817
 30
0.0
 40
0.333333
 41
0.333333
  0
VERTEX
  8
0
 10
4.01888
 20
4.22467
 30
0.0
 40
0.333333
 41
0.333333
  0
VERTEX
  8
0
 10
3.93251
 20
4.34011
 30
0.0
 40
0.333333
 41
0.333333
  0
VERTEX
  8
0
 10
3.85742
 20
4.46382
 30
0.0
 40
0.333333
 41
0.333333
  0
VERTEX
  8
0
 10
3.79422
 20
4.59494
 30
0.0
 40
0.333333
 41
0.333333
  0
VERTEX
  8
0
 10
3.74382
 20
4.73275
 30
0.0
 40
0.333333
 41
0.333333
  0
VERTEX
  8
0
 10
3.70682
 20
4.87651
 30
0.0
 40
0.333333
 41
0.333333
  0
VERTEX
  8
0
 10
3.68408
 20
5.02544
 30
0.0
 40
0.333333
 41
0.333333
  0
VERTEX
  8
0
 10
3.67638
 20
5.14046
 30
0.0
 40
0.333333
 41
0.333333
  0
VERTEX
  8
0
 10
3.67638
 20
5.17876
 30
0.0
 40
0.333333
 41
0.333333
  0
VERTEX
  8
0
 10
3.67638
 20
5.21712
 30
0.0
 40
0.333333
 41
0.333333
  0
VERTEX
  8
0
 10
3.68408
 20
5.33214
 30
0.0
 40
0.333333
 41
0.333333
  0
VERTEX
  8
0
 10
3.70682
 20
5.48112
 30
0.0
 40
0.333333
 41
0.333333
  0
VERTEX
  8
0
 10
3.74382
 20
5.62483
 30
0.0
 40
0.333333
 41
0.333333
  0
VERTEX
  8
0
 10
3.79422
 20
5.76269
 30
0.0
 40
0.333333
 41
0.333333
  0
VERTEX
  8
0
 10
3.85742
 20
5.89378
 30
0.0
 40
0.333333
 41
0.333333
  0
VERTEX
  8
0
 10
3.93251
 20
6.01747
 30
0.0
 40
0.333333
 41
0.333333
  0
VERTEX
  8
0
 10
4.01888
 20
6.13292
 30
0.0
 40
0.333333
 41
0.333333
  0
VERTEX
  8
0
 10
4.11572
 20
6.23947
 30
0.0
 40
0.333333
 41
0.333333
  0
VERTEX
  8
0
 10
4.22222
 20
6.33626
 30
0.0
 40
0.333333
 41
0.333333
  0
VERTEX
  8
0
 10
4.33768
 20
6.42264
 30
0.0
 40
0.333333
 41
0.333333
  0
VERTEX
  8
0
 10
4.46137
 20
6.49778
 30
0.0
 40
0.333333
 41
0.333333
  0
VERTEX
  8
0
 10
4.5925
 20
6.56093
 30
0.0
 40
0.333333
 41
0.333333
  0
VERTEX
  8
0
 10
4.73031
 20
6.61139
 30
0.0
 40
0.333333
 41
0.333333
  0
VERTEX
  8
0
 10
4.87408
 20
6.64833
 30
0.0
 40
0.333333
 41
0.333333
  0
VERTEX
  8
0
 10
5.023
 20
6.67106
 30
0.0
 40
0.333333
 41
0.333333
  0
VERTEX
  8
0
 10
5.13803
 20
6.67876
 30
0.0
 40
0.333333
 41
0.333333
  0
VERTEX
  8
0
 10
5.17638
 20
6.67876
 30
0.0
 40
0.333333
 41
0.333333
  0
VERTEX
  8
0
 10
5.21468
 20
6.67876
 30
0.0
 40
0.333333
 41
0.333333
  0
VERTEX
  8
0
 10
5.32969
 20
6.67106
 30
0.0
 40
0.333333
 41
0.333333
  0
VERTEX
  8
0
 10
5.47868
 20
6.64833
 30
0.0
 40
0.333333
 41
0.333333
  0
VERTEX
  8
0
 10
5.6224
 20
6.61139
 30
0.0
 40
0.333333
 41
0.333333
  0
VERTEX
  8
0
 10
5.76025
 20
6.56093
 30
0.0
 40
0.333333
 41
0.333333
  0
VERTEX
  8
0
 10
5.89133
 20
6.49778
 30
0.0
 40
0.333333
 41
0.333333
  0
VERTEX
  8
0
 10
6.01503
 20
6.42264
 30
0.0
 40
0.333333
 41
0.333333
  0
VERTEX
  8
0
 10
6.13049
 20
6.33626
 30
0.0
 40
0.333333
 41
0.333333
  0
VERTEX
  8
0
 10
6.23703
 20
6.23947
 30
0.0
 40
0.333333
 41
0.333333
  0
VERTEX
  8
0
 10
6.33382
 20
6.13292
 30
0.0
 40
0.333333
 41
0.333333
  0
VERTEX
  8
0
 10
6.42019
 20
6.01747
 30
0.0
 40
0.333333
 41
0.333333
  0
VERTEX
  8
0
 10
6.49533
 20
5.89378
 30
0.0
 40
0.333333
 41
0.333333
  0
VERTEX
  8
0
 10
6.55849
 20
5.76269
 30
0.0
 40
0.333333
 41
0.333333
  0
VERTEX
  8
0
 10
6.60894
 20
5.62483
 30
0.0
 40
0.333333
 41
0.333333
  0
VERTEX
  8
0
 10
6.64589
 20
5.48112
 30
0.0
 40
0.333333
 41
0.333333
  0
VERTEX
  8
0
 10
6.66862
 20
5.33214
 30
0.0
 40
0.333333
 41
0.333333
  0
VERTEX
  8
0
 10
6.67638
 20
5.21712
 30
0.0
 40
0.333333
 41
0.333333
  0
VERTEX
  8
0
 10
6.67638
 20
5.17876
 30
0.0
 40
0.333333
 41
0.333333
  0
SEQEND
 8
0
  0
POLYLINE
  8
0
 62
     0
 66
     1
 10
0
 20
0
 30
0.0
 70
     1
 40
24
 41
24
  0
VERTEX
  8
0
 10
250.676
 20
5.17876
 30
0.0
 40
0.333333
 41
0.333333
  0
VERTEX
  8
0
 10
250.676
 20
5.14046
 30
0.0
 40
0.333333
 41
0.333333
  0
VERTEX
  8
0
 10
250.669
 20
5.02544
 30
0.0
 40
0.333333
 41
0.333333
  0
VERTEX
  8
0
 10
250.646
 20
4.87651
 30
0.0
 40
0.333333
 41
0.333333
  0
VERTEX
  8
0
 10
250.61
 20
4.73275
 30
0.0
 40
0.333333
 41
0.333333
  0
VERTEX
  8
0
 10
250.558
 20
4.59494
 30
0.0
 40
0.333333
 41
0.333333
  0
VERTEX
  8
0
 10
250.496
 20
4.46382
 30
0.0
 40
0.333333
 41
0.333333
  0
VERTEX
  8
0
 10
250.421
 20
4.34011
 30
0.0
 40
0.333333
 41
0.333333
  0
VERTEX
  8
0
 10
250.335
 20
4.22467
 30
0.0
 40
0.333333
 41
0.333333
  0
VERTEX
  8
0
 10
250.237
 20
4.11817
 30
0.0
 40
0.333333
 41
0.333333
  0
VERTEX
  8
0
 10
250.131
 20
4.02132
 30
0.0
 40
0.333333
 41
0.333333
  0
VERTEX
  8
0
 10
250.015
 20
3.93494
 30
0.0
 40
0.333333
 41
0.333333
  0
VERTEX
  8
0
 10
249.892
 20
3.85986
 30
0.0
 40
0.333333
 41
0.333333
  0
VERTEX
  8
0
 10
249.761
 20
3.79665
 30
0.0
 40
0.333333
 41
0.333333
  0
VERTEX
  8
0
 10
249.622
 20
3.74625
 30
0.0
 40
0.333333
 41
0.333333
  0
VERTEX
  8
0
 10
249.479
 20
3.70925
 30
0.0
 40
0.333333
 41
0.333333
  0
VERTEX
  8
0
 10
249.331
 20
3.68653
 30
0.0
 40
0.333333
 41
0.333333
  0
VERTEX
  8
0
 10
249.215
 20
3.67876
 30
0.0
 40
0.333333
 41
0.333333
  0
VERTEX
  8
0
 10
249.176
 20
3.67876
 30
0.0
 40
0.333333
 41
0.333333
  0
VERTEX
  8
0
 10
249.139
 20
3.67876
 30
0.0
 40
0.333333
 41
0.333333
  0
VERTEX
  8
0
 10
249.024
 20
3.68653
 30
0.0
 40
0.333333
 41
0.333333
  0
VERTEX
  8
0
 10
248.875
 20
3.70925
 30
0.0
 40
0.333333
 41
0.333333
  0
VERTEX
  8
0
 10
248.731
 20
3.74625
 30
0.0
 40
0.333333
 41
0.333333
  0
VERTEX
  8
0
 10
248.593
 20
3.79665
 30
0.0
 40
0.333333
 41
0.333333
  0
VERTEX
  8
0
 10
248.461
 20
3.85986
 30
0.0
 40
0.333333
 41
0.333333
  0
VERTEX
  8
0
 10
248.338
 20
3.93494
 30
0.0
 40
0.333333
 41
0.333333
  0
VERTEX
  8
0
 10
248.222
 20
4.02132
 30
0.0
 40
0.333333
 41
0.333333
  0
VERTEX
  8
0
 10
248.117
 20
4.11817
 30
0.0
 40
0.333333
 41
0.333333
  0
VERTEX
  8
0
 10
248.019
 20
4.22467
 30
0.0
 40
0.333333
 41
0.333333
  0
VERTEX
  8
0
 10
247.933
 20
4.34011
 30
0.0
 40
0.333333
 41
0.333333
  0
VERTEX
  8
0
 10
247.858
 20
4.46382
 30
0.0
 40
0.333333
 41
0.333333
  0
VERTEX
  8
0
 10
247.794
 20
4.59494
 30
0.0
 40
0.333333
 41
0.333333
  0
VERTEX
  8
0
 10
247.744
 20
4.73275
 30
0.0
 40
0.333333
 41
0.333333
  0
VERTEX
  8
0
 10
247.707
 20
4.87651
 30
0.0
 40
0.333333
 41
0.333333
  0
VERTEX
  8
0
 10
247.685
 20
5.02544
 30
0.0
 40
0.333333
 41
0.333333
  0
VERTEX
  8
0
 10
247.676
 20
5.14046
 30
0.0
 40
0.333333
 41
0.333333
  0
VERTEX
  8
0
 10
247.676
 20
5.17876
 30
0.0
 40
0.333333
 41
0.333333
  0
VERTEX
  8
0
 10
247.676
 20
5.21712
 30
0.0
 40
0.333333
 41
0.333333
  0
VERTEX
  8
0
 10
247.685
 20
5.33214
 30
0.0
 40
0.333333
 41
0.333333
  0
VERTEX
  8
0
 10
247.707
 20
5.48112
 30
0.0
 40
0.333333
 41
0.333333
  0
VERTEX
  8
0
 10
247.744
 20
5.62483
 30
0.0
 40
0.333333
 41
0.333333
  0
VERTEX
  8
0
 10
247.794
 20
5.76269
 30
0.0
 40
0.333333
 41
0.333333
  0
VERTEX
  8
0
 10
247.858
 20
5.89378
 30
0.0
 40
0.333333
 41
0.333333
  0
VERTEX
  8
0
 10
247.933
 20
6.01747
 30
0.0
 40
0.333333
 41
0.333333
  0
VERTEX
  8
0
 10
248.019
 20
6.13292
 30
0.0
 40
0.333333
 41
0.333333
  0
VERTEX
  8
0
 10
248.117
 20
6.23947
 30
0.0
 40
0.333333
 41
0.333333
  0
VERTEX
  8
0
 10
248.222
 20
6.33626
 30
0.0
 40
0.333333
 41
0.333333
  0
VERTEX
  8
0
 10
248.338
 20
6.42264
 30
0.0
 40
0.333333
 41
0.333333
  0
VERTEX
  8
0
 10
248.461
 20
6.49778
 30
0.0
 40
0.333333
 41
0.333333
  0
VERTEX
  8
0
 10
248.593
 20
6.56093
 30
0.0
 40
0.333333
 41
0.333333
  0
VERTEX
  8
0
 10
248.731
 20
6.61139
 30
0.0
 40
0.333333
 41
0.333333
  0
VERTEX
  8
0
 10
248.875
 20
6.64833
 30
0.0
 40
0.333333
 41
0.333333
  0
VERTEX
  8
0
 10
249.024
 20
6.67106
 30
0.0
 40
0.333333
 41
0.333333
  0
VERTEX
  8
0
 10
249.139
 20
6.67876
 30
0.0
 40
0.333333
 41
0.333333
  0
VERTEX
  8
0
 10
249.176
 20
6.67876
 30
0.0
 40
0.333333
 41
0.333333
  0
VERTEX
  8
0
 10
249.215
 20
6.67876
 30
0.0
 40
0.333333
 41
0.333333
  0
VERTEX
  8
0
 10
249.331
 20
6.67106
 30
0.0
 40
0.333333
 41
0.333333
  0
VERTEX
  8
0
 10
249.479
 20
6.64833
 30
0.0
 40
0.333333
 41
0.333333
  0
VERTEX
  8
0
 10
249.622
 20
6.61139
 30
0.0
 40
0.333333
 41
0.333333
  0
VERTEX
  8
0
 10
249.761
 20
6.56093
 30
0.0
 40
0.333333
 41
0.333333
  0
VERTEX
  8
0
 10
249.892
 20
6.49778
 30
0.0
 40
0.333333
 41
0.333333
  0
VERTEX
  8
0
 10
250.015
 20
6.42264
 30
0.0
 40
0.333333
 41
0.333333
  0
VERTEX
  8
0
 10
250.131
 20
6.33626
 30
0.0
 40
0.333333
 41
0.333333
  0
VERTEX
  8
0
 10
250.237
 20
6.23947
 30
0.0
 40
0.333333
 41
0.333333
  0
VERTEX
  8
0
 10
250.335
 20
6.13292
 30
0.0
 40
0.333333
 41
0.333333
  0
VERTEX
  8
0
 10
250.421
 20
6.01747
 30
0.0
 40
0.333333
 41
0.333333
  0
VERTEX
  8
0
 10
250.496
 20
5.89378
 30
0.0
 40
0.333333
 41
0.333333
  0
VERTEX
  8
0
 10
250.558
 20
5.76269
 30
0.0
 40
0.333333
 41
0.333333
  0
VERTEX
  8
0
 10
250.61
 20
5.62483
 30
0.0
 40
0.333333
 41
0.333333
  0
VERTEX
  8
0
 10
250.646
 20
5.48112
 30
0.0
 40
0.333333
 41
0.333333
  0
VERTEX
  8
0
 10
250.669
 20
5.33214
 30
0.0
 40
0.333333
 41
0.333333
  0
VERTEX
  8
0
 10
250.676
 20
5.21712
 30
0.0
 40
0.333333
 41
0.333333
  0
VERTEX
  8
0
 10
250.676
 20
5.17876
 30
0.0
 40
0.333333
 41
0.333333
  0
SEQEND
 8
0
  0
POLYLINE
  8
0
 62
     0
 66
     1
 10
0
 20
0
 30
0.0
 70
     1
 40
25.4
 41
25.4
  0
VERTEX
  8
0
 10
0.176378
 20
266.879
 30
0.0
 40
0.352778
 41
0.352778
  0
VERTEX
  8
0
 10
254.176
 20
266.879
 30
0.0
 40
0.352778
 41
0.352778
  0
VERTEX
  8
0
 10
254.176
 20
133.529
 30
0.0
 40
0.352778
 41
0.352778
  0
VERTEX
  8
0
 10
0.176378
 20
133.529
 30
0.0
 40
0.352778
 41
0.352778
  0
VERTEX
  8
0
 10
0.176378
 20
266.879
 30
0.0
 40
0.352778
 41
0.352778
  0
SEQEND
 8
0
  0
POLYLINE
  8
0
 62
     0
 66
     1
 10
0
 20
0
 30
0.0
 70
     1
 40
25.4
 41
25.4
  0
VERTEX
  8
0
 10
10.1764
 20
256.879
 30
0.0
 40
0.352778
 41
0.352778
  0
VERTEX
  8
0
 10
244.176
 20
256.879
 30
0.0
 40
0.352778
 41
0.352778
  0
VERTEX
  8
0
 10
244.176
 20
143.529
 30
0.0
 40
0.352778
 41
0.352778
  0
VERTEX
  8
0
 10
10.1764
 20
143.529
 30
0.0
 40
0.352778
 41
0.352778
  0
VERTEX
  8
0
 10
10.1764
 20
256.879
 30
0.0
 40
0.352778
 41
0.352778
  0
SEQEND
 8
0
  0
POLYLINE
  8
0
 62
     0
 66
     1
 10
0
 20
0
 30
0.0
 40
25.4
 41
25.4
  0
VERTEX
  8
0
 10
0.176378
 20
133.529
 30
0.0
 40
0.352778
 41
0.352778
  0
VERTEX
  8
0
 10
0.176378
 20
0.178765
 30
0.0
 40
0.352778
 41
0.352778
  0
VERTEX
  8
0
 10
254.176
 20
0.178765
 30
0.0
 40
0.352778
 41
0.352778
  0
VERTEX
  8
0
 10
254.176
 20
133.529
 30
0.0
 40
0.352778
 41
0.352778
  0
SEQEND
 8
0
  0
POLYLINE
  8
0
 62
     0
 66
     1
 10
0
 20
0
 30
0.0
 70
     1
 40
25.4
 41
25.4
  0
VERTEX
  8
0
 10
10.1764
 20
123.529
 30
0.0
 40
0.352778
 41
0.352778
  0
VERTEX
  8
0
 10
244.176
 20
123.529
 30
0.0
 40
0.352778
 41
0.352778
  0
VERTEX
  8
0
 10
244.176
 20
10.1788
 30
0.0
 40
0.352778
 41
0.352778
  0
VERTEX
  8
0
 10
10.1764
 20
10.1788
 30
0.0
 40
0.352778
 41
0.352778
  0
VERTEX
  8
0
 10
10.1764
 20
123.529
 30
0.0
 40
0.352778
 41
0.352778
  0
SEQEND
 8
0
  0
ENDSEC
  0
EOF
