M48
;GenerationSoftware,Autodesk,EAGLE,9.7.0*%
;CreationDate,2023-02-10T23:28:54Z*%
FMAT,2
ICI,OFF
METRIC,TZ,000.000
T3C0.700
T2C0.840
T1C1.016
%
G90
M71
T1
X31750Y25400
X34290Y25400
X36830Y25400
X39370Y25400
X41910Y25400
X57277Y20955
X57277Y18415
X25400Y27940
X10089Y35560
X53975Y15875
X53975Y13335
X57277Y15875
X57277Y13335
X2469Y35560
X5009Y35560
X7549Y35560
X25400Y25400
X12629Y35560
X15169Y35560
X17709Y35560
X20249Y35560
X22789Y35560
X25329Y35560
X27869Y35560
X30409Y35560
X32949Y35560
X35489Y35560
X38029Y35560
X40569Y35560
X43109Y35560
X45649Y35560
X48189Y35560
X50729Y35560
X53269Y35560
X55809Y35560
X58349Y35560
X60889Y35560
X63429Y35560
X63500Y25273
X63500Y27813
X63500Y30353
X53975Y20955
X53975Y18415
T2
X54610Y8595
X54610Y6095
X54610Y3595
X42937Y19928
X42941Y17428
X42946Y14928
X43180Y8595
X43180Y6095
X43180Y3595
X59055Y42510
X56555Y42510
X54055Y42510
X7620Y15875
X7620Y13375
X7620Y7365
X7620Y4865
X27940Y15620
X27940Y13120
X17780Y15875
X17780Y13375
X17780Y7365
X17780Y4865
X6985Y43815
X9485Y43815
T3
X31925Y41275
X33925Y41275
X35925Y41275
X37925Y41275
M30