<svg xmlns="http://www.w3.org/2000/svg" width="36in" height="26.400000000000002in" viewBox="0 0 2592 1900.8000000000002"><g/><g/><g/><circle cx="1303.021989602931" cy="774.0011913187936" r="4.251975" color="rgb(0,0,0)" stroke="#000000" id="DC" stroke-width="0.25mm" fill="none"/><circle cx="31.50004700293107" cy="774.0011913187939" r="4.251974999999838" color="rgb(0,0,0)" stroke="#000000" id="DD" stroke-width="0.25mm" fill="none"/><circle cx="40.50006075293095" cy="453.2407012687938" r="4.2519750000001615" color="rgb(0,0,0)" stroke="#000000" id="DE" stroke-width="0.25mm" fill="none"/><circle cx="1294.0219758529308" cy="453.2407012687936" r="4.251975" color="rgb(0,0,0)" stroke="#000000" id="DF" stroke-width="0.25mm" fill="none"/><circle cx="1294.0219758529308" cy="408.6006330687936" r="4.251975" color="rgb(0,0,0)" stroke="#000000" id="E0" stroke-width="0.25mm" fill="none"/><circle cx="40.50006075293095" cy="408.60063306879385" r="4.2519750000001615" color="rgb(0,0,0)" stroke="#000000" id="E1" stroke-width="0.25mm" fill="none"/><circle cx="31.50005619655701" cy="810.0012464338344" r="4.251975" color="rgb(0,0,0)" stroke="#000000" id="ID_104" stroke-width="0.25mm" fill="none"/><circle cx="1303.021998796557" cy="810.0012464338344" r="4.251974999999838" color="rgb(0,0,0)" stroke="#000000" id="ID_105" stroke-width="0.25mm" fill="none"/><circle cx="1294.021985046557" cy="1130.7617364838343" r="4.2519750000001615" color="rgb(0,0,0)" stroke="#000000" id="ID_106" stroke-width="0.25mm" fill="none"/><circle cx="40.50006994655703" cy="1130.7617364838343" r="4.251975" color="rgb(0,0,0)" stroke="#000000" id="ID_107" stroke-width="0.25mm" fill="none"/><circle cx="40.50006994655703" cy="1175.4018046838344" r="4.251975" color="rgb(0,0,0)" stroke="#000000" id="ID_108" stroke-width="0.25mm" fill="none"/><circle cx="1294.021985046557" cy="1175.4018046838344" r="4.2519750000001615" color="rgb(0,0,0)" stroke="#000000" id="ID_109" stroke-width="0.25mm" fill="none"/><circle cx="379.039484796557" cy="826.6066261338344" r="4.251975" color="rgb(0,0,0)" stroke="#000000" id="ID_10A" stroke-width="0.25mm" fill="none"/><circle cx="441.40178479655697" cy="826.6066261338344" r="4.251975" color="rgb(0,0,0)" stroke="#000000" id="ID_10B" stroke-width="0.25mm" fill="none"/><circle cx="893.120270196557" cy="826.6066261338344" r="4.2519750000001615" color="rgb(0,0,0)" stroke="#000000" id="ID_10C" stroke-width="0.25mm" fill="none"/><circle cx="955.4825701965572" cy="826.6066261338344" r="4.251975" color="rgb(0,0,0)" stroke="#000000" id="ID_10D" stroke-width="0.25mm" fill="none"/><path d="M 9.000012627931028 792.0012188187937 L 9.000012627931028 756.0011638187938 L 9.000012627931028 756.0011638187938 L -0.0000011220688520552362 756.0011638187938 L -0.0000011220688520552362 756.0011638187938 L -0.0000011220688520552362 720.0011088187938 L -0.0000011220688520552362 720.0011088187938 L 9.000012627931028 720.0011088187938 L 9.000012627931028 720.0011088187938 L 9.0000126279308 684.0010538187938 L 9.0000126279308 684.0010538187938 L -0.0000011220690794289116 684.0010538187938 L -0.0000011220690794289116 684.0010538187938 L -0.0000011220690794289116 648.0009988187938 L -0.0000011220690794289116 648.0009988187938 L 9.0000126279308 648.0009988187938 L 9.0000126279308 648.0009988187938 L 9.0000126279308 612.0009438187938 L 9.0000126279308 612.0009438187938 L -0.0000011220690794289116 612.0009438187938 L -0.0000011220690794289116 612.0009438187938 L -0.0000011220690794289116 576.0008888187938 L -0.0000011220690794289116 576.0008888187938 L 9.0000126279308 576.0008888187938 L 9.0000126279308 576.0008888187938 L 9.0000126279308 540.0008338187938 L 9.0000126279308 540.0008338187938 L -0.0000011220690794289116 540.0008338187938 L -0.0000011220690794289116 540.0008338187938 L -0.0000011220690794289116 504.00077881879383 L -0.0000011220690794289116 504.00077881879383 L 9.0000126279308 504.00077881879383 L 9.0000126279308 504.00077881879383 L 9.0000126279308 468.00072381879386 L 9.0000126279308 468.00072381879386 L -0.0000011220690794289116 468.00072381879386 L -0.0000011220690794289116 468.00072381879386 L -0.0000011220690794289116 432.0006688187939 L -0.0000011220690794289116 432.0006688187939 L 9.0000126279308 432.0006688187939 L 9.0000126279308 432.0006688187939 L 9.0000126279308 396.0006138187938 L 9.0000126279308 396.0006138187938 L -0.0000011220690794289116 396.0006138187938 L -0.0000011220690794289116 396.0006138187938 L -0.0000011220690794289116 360.0005588187938 L -0.0000011220690794289116 360.0005588187938 L 9.0000126279308 360.0005588187938 L 9.0000126279308 360.0005588187938 L 9.0000126279308 324.00050381879385 L 9.0000126279308 324.00050381879385 L -0.0000011220690794289116 324.00050381879385 L -0.0000011220690794289116 324.00050381879385 L -0.0000011220690794289116 288.00044881879376 L -0.0000011220690794289116 288.00044881879376 L 9.0000126279308 288.00044881879376 L 9.0000126279308 288.00044881879376 L 9.0000126279308 252.00039381879378 L 9.0000126279308 252.00039381879378 L -0.0000011220690794289116 252.00039381879378 L -0.0000011220690794289116 252.00039381879378 L -0.0000011220690794289116 216.00033881879375 L -0.0000011220690794289116 216.00033881879375 L 9.0000126279308 216.00033881879375 L 9.0000126279308 216.00033881879375 L 9.0000126279308 180.00028381879378 L 9.0000126279308 180.00028381879378 L -0.0000011220690794289116 180.00028381879378 L -0.0000011220690794289116 180.00028381879378 L -0.0000011220690794289116 144.0002288187938 L -0.0000011220690794289116 144.0002288187938 L 9.0000126279308 144.0002288187938 L 9.0000126279308 144.0002288187938 L 9.0000126279308 108.00017381879377 L 9.0000126279308 108.00017381879377 L -0.0000011220690794289116 108.00017381879377 L -0.0000011220690794289116 108.00017381879377 L -0.0000011220690794289116 72.0001188187938 L -0.0000011220690794289116 72.0001188187938 L 9.0000126279308 72.0001188187938 L 9.0000126279308 72.0001188187938 L 9.0000126279308 36.00006381879376 L 9.0000126279308 36.00006381879376 L -0.0000011220690794289116 36.00006381879376 L -0.0000011220690794289116 36.00006381879376 L -0.0000011220690794289116 15.840033018793747 L -0.0000011220690794289116 15.840033018793747 L 129.66019696940862 15.840033018793747 L 129.66019696940862 15.840033018793747 L 129.66019696940862 0.000008818793787668259 L 129.66019696940862 0.000008818793787668259 L 283.26043163616987 0.000008818793759246551 L 283.26043163616987 0.000008818793759246551 L 283.26043163616987 15.840033018793747 L 283.26043163616987 15.840033018793747 L 436.8606663029309 15.84003301879369 L 436.8606663029309 15.84003301879369 L 436.8606663029309 0.00000881879373082484 L 436.8606663029309 0.00000881879373082484 L 590.4609009694085 0.00000881879373082484 L 590.4609009694085 0.00000881879373082484 L 590.4609009694085 15.84003301879369 L 590.4609009694085 15.84003301879369 L 744.0611356361696 15.84003301879369 L 744.0611356361696 15.84003301879369 L 744.0611356361696 0.00000881879370240313 L 744.0611356361696 0.00000881879370240313 L 897.6613703029309 0.000008818793673981421 L 897.6613703029309 0.000008818793673981421 L 897.6613703029309 15.840033018793633 L 897.6613703029309 15.840033018793633 L 1051.2616049694086 15.840033018793633 L 1051.2616049694086 15.840033018793633 L 1051.2616049694086 0.000008818793673981421 L 1051.2616049694086 0.000008818793673981421 L 1204.8618396361696 0.000008818793645559712 L 1204.8618396361696 0.000008818793645559712 L 1204.8618396361696 15.840033018793633 L 1204.8618396361696 15.840033018793633 L 1334.5220377279309 15.840033018793577 L 1334.5220377279309 15.840033018793577 L 1334.5220377279309 36.00006381879359 L 1334.5220377279309 36.00006381879359 L 1325.522023977931 36.00006381879359 L 1325.522023977931 36.00006381879359 L 1325.522023977931 72.00011881879362 L 1325.522023977931 72.00011881879362 L 1334.5220377279309 72.00011881879362 L 1334.5220377279309 72.00011881879362 L 1334.5220377279309 108.0001738187936 L 1334.5220377279309 108.0001738187936 L 1325.522023977931 108.0001738187936 L 1325.522023977931 108.0001738187936 L 1325.522023977931 144.00022881879363 L 1325.522023977931 144.00022881879363 L 1334.5220377279309 144.00022881879363 L 1334.5220377279309 144.00022881879363 L 1334.5220377279309 180.0002838187936 L 1334.5220377279309 180.0002838187936 L 1325.522023977931 180.0002838187936 L 1325.522023977931 180.0002838187936 L 1325.522023977931 216.00033881879358 L 1325.522023977931 216.00033881879358 L 1334.5220377279309 216.00033881879358 L 1334.5220377279309 216.00033881879358 L 1334.5220377279309 252.0003938187936 L 1334.5220377279309 252.0003938187936 L 1325.522023977931 252.0003938187936 L 1325.522023977931 252.0003938187936 L 1325.522023977931 288.00044881879353 L 1325.522023977931 288.00044881879353 L 1334.5220377279309 288.00044881879353 L 1334.5220377279309 288.00044881879353 L 1334.5220377279309 324.0005038187936 L 1334.5220377279309 324.0005038187936 L 1325.522023977931 324.0005038187936 L 1325.522023977931 324.0005038187936 L 1325.522023977931 360.0005588187936 L 1325.522023977931 360.0005588187936 L 1334.5220377279309 360.0005588187936 L 1334.5220377279309 360.0005588187936 L 1334.5220377279309 396.00061381879357 L 1334.5220377279309 396.00061381879357 L 1325.522023977931 396.00061381879357 L 1325.522023977931 396.00061381879357 L 1325.522023977931 432.00066881879366 L 1325.522023977931 432.00066881879366 L 1334.5220377279309 432.00066881879366 L 1334.5220377279309 432.00066881879366 L 1334.5220377279309 468.00072381879363 L 1334.5220377279309 468.00072381879363 L 1325.522023977931 468.00072381879363 L 1325.522023977931 468.00072381879363 L 1325.522023977931 504.0007788187936 L 1325.522023977931 504.0007788187936 L 1334.5220377279309 504.0007788187936 L 1334.5220377279309 504.0007788187936 L 1334.5220377279309 540.0008338187936 L 1334.5220377279309 540.0008338187936 L 1325.522023977931 540.0008338187936 L 1325.522023977931 540.0008338187936 L 1325.522023977931 576.0008888187936 L 1325.522023977931 576.0008888187936 L 1334.5220377279309 576.0008888187936 L 1334.5220377279309 576.0008888187936 L 1334.5220377279309 612.0009438187935 L 1334.5220377279309 612.0009438187935 L 1325.522023977931 612.0009438187935 L 1325.522023977931 612.0009438187935 L 1325.522023977931 648.0009988187936 L 1325.522023977931 648.0009988187936 L 1334.5220377279309 648.0009988187936 L 1334.5220377279309 648.0009988187936 L 1334.5220377279309 684.0010538187936 L 1334.5220377279309 684.0010538187936 L 1325.522023977931 684.0010538187936 L 1325.522023977931 684.0010538187936 L 1325.522023977931 720.0011088187936 L 1325.522023977931 720.0011088187936 L 1334.5220377279309 720.0011088187936 L 1334.5220377279309 720.0011088187936 L 1334.5220377279309 756.0011638187935 L 1334.5220377279309 756.0011638187935 L 1325.522023977931 756.0011638187935 L 1325.522023977931 756.0011638187935 L 1325.522023977931 792.0012188187935 L 1325.522023977931 792.0012188187935 L 9.000012627931028 792.0012188187937 z" fill="none" stroke="#000000"/><path d="M 819.9012515029309 60.233407601901206 L 740.7011305029309 60.23340760190126 L 740.7011305029309 60.23340760190126 L 740.7011305029309 79.76139047627396 L 740.7011305029309 79.76139047627396 L 819.9012515029309 79.7613904762739 L 819.9012515029309 79.7613904762739 L 819.9012515029309 60.233407601901206 z" fill="none" stroke="#000000"/><path d="M 514.6207851029309 79.76139047627396 L 593.8209061029308 79.76139047627396 L 593.8209061029308 79.76139047627396 L 593.8209061029308 60.23340760190126 L 593.8209061029308 60.23340760190126 L 514.6207851029309 60.23340760190126 L 514.6207851029309 60.23340760190126 L 514.6207851029309 79.76139047627396 z" fill="none" stroke="#000000"/><path d="M 426.2133861670495 231.84036301879377 L 426.2133861670495 303.84047301879366 L 426.2133861670495 303.84047301879366 L 436.639505471913 303.84047301879366 L 436.639505471913 303.84047301879366 L 436.639505471913 231.84036301879377 L 436.639505471913 231.84036301879377 L 426.2133861670495 231.84036301879377 z" fill="none" stroke="#000000"/><path d="M 897.8825311336655 231.8403630187937 L 897.8825311336655 303.84047301879366 L 897.8825311336655 303.84047301879366 L 908.308650438529 303.84047301879366 L 908.308650438529 303.84047301879366 L 908.308650438529 231.8403630187937 L 908.308650438529 231.8403630187937 L 897.8825311336655 231.8403630187937 z" fill="none" stroke="#000000"/><path d="M 383.80174573366526 231.84036301879377 L 383.80174573366526 303.84047301879366 L 383.80174573366526 303.84047301879366 L 394.22786503852876 303.84047301879366 L 394.22786503852876 303.84047301879366 L 394.22786503852876 231.84036301879377 L 394.22786503852876 231.84036301879377 L 383.80174573366526 231.84036301879377 z" fill="none" stroke="#000000"/><path d="M 426.2133861670495 87.8401430187937 L 426.2133861670495 159.8402530187937 L 426.2133861670495 159.8402530187937 L 436.639505471913 159.8402530187937 L 436.639505471913 159.8402530187937 L 436.639505471913 87.8401430187937 L 436.639505471913 87.8401430187937 L 426.2133861670495 87.8401430187937 z" fill="none" stroke="#000000"/><path d="M 940.2941715670494 87.84014301879364 L 940.2941715670494 159.84025301879365 L 940.2941715670494 159.84025301879365 L 950.7202908719129 159.84025301879365 L 950.7202908719129 159.84025301879365 L 950.7202908719129 87.84014301879364 L 950.7202908719129 87.84014301879364 L 940.2941715670494 87.84014301879364 z" fill="none" stroke="#000000"/><path d="M 383.80174573366526 159.8402530187937 L 394.22786503852876 159.8402530187937 L 394.22786503852876 159.8402530187937 L 394.22786503852876 87.8401430187937 L 394.22786503852876 87.8401430187937 L 383.80174573366526 87.8401430187937 L 383.80174573366526 87.8401430187937 L 383.80174573366526 159.8402530187937 z" fill="none" stroke="#000000"/><path d="M 940.2941715670495 303.84047301879366 L 950.720290871913 303.84047301879366 L 950.720290871913 303.84047301879366 L 950.720290871913 231.8403630187937 L 950.720290871913 231.8403630187937 L 940.2941715670495 231.8403630187937 L 940.2941715670495 231.8403630187937 L 940.2941715670495 303.84047301879366 z" fill="none" stroke="#000000"/><path d="M 897.8825311336653 159.84025301879365 L 908.3086504385288 159.84025301879365 L 908.3086504385288 159.84025301879365 L 908.3086504385288 87.84014301879364 L 908.3086504385288 87.84014301879364 L 897.8825311336653 87.84014301879364 L 897.8825311336653 87.84014301879364 L 897.8825311336653 159.84025301879365 z" fill="none" stroke="#000000"/><path d="M 9.000021821556999 792.0012189338345 L 9.000021821556999 828.0012739338345 L 9.000021821556999 828.0012739338345 L 0.000008071557033417776 828.0012739338345 L 0.000008071557033417776 828.0012739338345 L 0.000008071557033417776 864.0013289338344 L 0.000008071557033417776 864.0013289338344 L 9.000021821556999 864.0013289338344 L 9.000021821556999 864.0013289338344 L 9.000021821556999 900.0013839338344 L 9.000021821556999 900.0013839338344 L 0.000008071557033417776 900.0013839338344 L 0.000008071557033417776 900.0013839338344 L 0.000008071557033417776 936.0014389338344 L 0.000008071557033417776 936.0014389338344 L 9.000021821556999 936.0014389338344 L 9.000021821556999 936.0014389338344 L 9.000021821556999 972.0014939338345 L 9.000021821556999 972.0014939338345 L 0.000008071557033417776 972.0014939338345 L 0.000008071557033417776 972.0014939338345 L 0.000008071557033417776 1008.0015489338344 L 0.000008071557033417776 1008.0015489338344 L 9.000021821556999 1008.0015489338344 L 9.000021821556999 1008.0015489338344 L 9.000021821556999 1044.0016039338343 L 9.000021821556999 1044.0016039338343 L 0.000008071557033417776 1044.0016039338343 L 0.000008071557033417776 1044.0016039338343 L 0.000008071557033417776 1080.0016589338343 L 0.000008071557033417776 1080.0016589338343 L 9.000021821556999 1080.0016589338343 L 9.000021821556999 1080.0016589338343 L 9.000021821556999 1116.0017139338343 L 9.000021821556999 1116.0017139338343 L 0.000008071557033417776 1116.0017139338343 L 0.000008071557033417776 1116.0017139338343 L 0.000008071557033417776 1152.0017689338342 L 0.000008071557033417776 1152.0017689338342 L 9.000021821556999 1152.0017689338342 L 9.000021821556999 1152.0017689338342 L 9.000021821556999 1188.0018239338344 L 9.000021821556999 1188.0018239338344 L 0.000008071557033417776 1188.0018239338344 L 0.000008071557033417776 1188.0018239338344 L 0.000008071557033417776 1224.0018789338344 L 0.000008071557033417776 1224.0018789338344 L 9.000021821556999 1224.0018789338344 L 9.000021821556999 1224.0018789338344 L 9.000021821556999 1260.0019339338344 L 9.000021821556999 1260.0019339338344 L 0.000008071557033417776 1260.0019339338344 L 0.000008071557033417776 1260.0019339338344 L 0.000008071557033417776 1296.0019889338346 L 0.000008071557033417776 1296.0019889338346 L 9.000021821556999 1296.0019889338346 L 9.000021821556999 1296.0019889338346 L 9.000021821556999 1332.0020439338343 L 9.000021821556999 1332.0020439338343 L 0.000008071557033417776 1332.0020439338343 L 0.000008071557033417776 1332.0020439338343 L 0.000008071557033417776 1368.0020989338345 L 0.000008071557033417776 1368.0020989338345 L 9.000021821556999 1368.0020989338345 L 9.000021821556999 1368.0020989338345 L 9.000021821556999 1404.0021539338345 L 9.000021821556999 1404.0021539338345 L 0.000008071557033417776 1404.0021539338345 L 0.000008071557033417776 1404.0021539338345 L 0.000008071557033417776 1440.0022089338345 L 0.000008071557033417776 1440.0022089338345 L 9.000021821556999 1440.0022089338345 L 9.000021821556999 1440.0022089338345 L 9.000021821556999 1476.0022639338345 L 9.000021821556999 1476.0022639338345 L 0.000008071557033417776 1476.0022639338345 L 0.000008071557033417776 1476.0022639338345 L 0.000008071557033417776 1512.0023189338344 L 0.000008071557033417776 1512.0023189338344 L 9.000021821556999 1512.0023189338344 L 9.000021821556999 1512.0023189338344 L 9.000021821556999 1548.0023739338344 L 9.000021821556999 1548.0023739338344 L 0.000008071557033417776 1548.0023739338344 L 0.000008071557033417776 1548.0023739338344 L 0.000008071557033417776 1568.1624047338344 L 0.000008071557033417776 1568.1624047338344 L 129.6602061633182 1568.1624047338344 L 129.6602061633182 1568.1624047338344 L 129.6602061633182 1584.0024289338344 L 129.6602061633182 1584.0024289338344 L 283.26044083007935 1584.0024289338344 L 283.26044083007935 1584.0024289338344 L 283.26044083007935 1568.1624047338344 L 283.26044083007935 1568.1624047338344 L 393.66060949655696 1568.1624047338344 L 393.66060949655696 1568.1624047338344 L 393.66060949655696 1185.6618203588346 L 393.66060949655696 1185.6618203588346 L 365.220566046557 1185.6618203588346 L 365.220566046557 1185.6618203588346 L 365.220566046557 1158.6617791088343 L 365.220566046557 1158.6617791088343 L 393.66060949655696 1158.6617791088343 L 393.66060949655696 1158.6617791088343 L 393.66060949655696 955.4414686338343 L 393.66060949655696 955.4414686338343 L 404.64062627155704 955.4414686338343 L 404.64062627155704 955.4414686338343 L 404.64062627155704 829.4412761338344 L 404.64062627155704 829.4412761338344 L 415.800643321557 829.4412761338344 L 415.800643321557 829.4412761338344 L 415.800643321557 955.4414686338343 L 415.800643321557 955.4414686338343 L 426.78066009655697 955.4414686338343 L 426.78066009655697 955.4414686338343 L 426.78066009655697 1158.6617791088343 L 426.78066009655697 1158.6617791088343 L 455.22070354655705 1158.6617791088343 L 455.22070354655705 1158.6617791088343 L 455.22070354655705 1185.6618203588346 L 455.22070354655705 1185.6618203588346 L 426.78066009655697 1185.6618203588346 L 426.78066009655697 1185.6618203588346 L 426.78066009655697 1568.1624047338344 L 426.78066009655697 1568.1624047338344 L 436.86067549655695 1568.1624047338344 L 436.86067549655695 1568.1624047338344 L 436.86067549655695 1584.0024289338344 L 436.86067549655695 1584.0024289338344 L 519.354659796557 1584.0024289338344 L 519.354659796557 1584.0024289338344 L 519.354659796557 1568.1624047338344 L 519.354659796557 1568.1624047338344 L 509.99464549655704 1568.1624047338344 L 509.99464549655704 1568.1624047338344 L 509.99464549655704 1506.6448303487948 L 509.99464549655704 1506.6448303487948 L 519.354659796557 1506.6448303487948 L 519.354659796557 1506.6448303487948 L 519.354659796557 1488.9622837338343 L 519.354659796557 1488.9622837338343 L 661.0871597965569 1488.9622837338343 L 661.0871597965569 1488.9622837338343 L 661.0871597965569 1506.6448303487948 L 661.0871597965569 1506.6448303487948 L 670.447174096557 1506.6448303487948 L 670.447174096557 1506.6448303487948 L 670.447174096557 1568.1624047338344 L 670.447174096557 1568.1624047338344 L 744.0611448300793 1568.1624047338344 L 744.0611448300793 1568.1624047338344 L 744.0611448300793 1584.0024289338344 L 744.0611448300793 1584.0024289338344 L 897.661379496557 1584.0024289338344 L 897.661379496557 1584.0024289338344 L 897.661379496557 1568.1624047338344 L 897.661379496557 1568.1624047338344 L 907.741394896557 1568.1624047338344 L 907.741394896557 1568.1624047338344 L 907.741394896557 1185.6618203588346 L 907.741394896557 1185.6618203588346 L 879.3013514465571 1185.6618203588346 L 879.3013514465571 1185.6618203588346 L 879.3013514465571 1158.6617791088343 L 879.3013514465571 1158.6617791088343 L 907.741394896557 1158.6617791088343 L 907.741394896557 1158.6617791088343 L 907.741394896557 955.4414686338343 L 907.741394896557 955.4414686338343 L 918.721411671557 955.4414686338343 L 918.721411671557 955.4414686338343 L 918.721411671557 829.4412761338344 L 918.721411671557 829.4412761338344 L 929.8814287215569 829.4412761338344 L 929.8814287215569 829.4412761338344 L 929.8814287215569 955.4414686338343 L 929.8814287215569 955.4414686338343 L 940.861445496557 955.4414686338343 L 940.861445496557 955.4414686338343 L 940.861445496557 1158.6617791088343 L 940.861445496557 1158.6617791088343 L 969.3014889465571 1158.6617791088343 L 969.3014889465571 1158.6617791088343 L 969.3014889465571 1185.6618203588346 L 969.3014889465571 1185.6618203588346 L 940.861445496557 1185.6618203588346 L 940.861445496557 1185.6618203588346 L 940.861445496557 1568.1624047338344 L 940.861445496557 1568.1624047338344 L 1051.261614163318 1568.1624047338344 L 1051.261614163318 1568.1624047338344 L 1051.261614163318 1584.0024289338344 L 1051.261614163318 1584.0024289338344 L 1204.8618488300792 1584.0024289338344 L 1204.8618488300792 1584.0024289338344 L 1204.8618488300792 1568.1624047338344 L 1204.8618488300792 1568.1624047338344 L 1334.522046921557 1568.1624047338344 L 1334.522046921557 1568.1624047338344 L 1334.522046921557 1548.0023739338344 L 1334.522046921557 1548.0023739338344 L 1325.522033171557 1548.0023739338344 L 1325.522033171557 1548.0023739338344 L 1325.522033171557 1512.0023189338344 L 1325.522033171557 1512.0023189338344 L 1334.522046921557 1512.0023189338344 L 1334.522046921557 1512.0023189338344 L 1334.522046921557 1476.0022639338345 L 1334.522046921557 1476.0022639338345 L 1325.522033171557 1476.0022639338345 L 1325.522033171557 1476.0022639338345 L 1325.522033171557 1440.0022089338345 L 1325.522033171557 1440.0022089338345 L 1334.522046921557 1440.0022089338345 L 1334.522046921557 1440.0022089338345 L 1334.522046921557 1404.0021539338345 L 1334.522046921557 1404.0021539338345 L 1325.522033171557 1404.0021539338345 L 1325.522033171557 1404.0021539338345 L 1325.522033171557 1368.0020989338345 L 1325.522033171557 1368.0020989338345 L 1334.522046921557 1368.0020989338345 L 1334.522046921557 1368.0020989338345 L 1334.522046921557 1332.0020439338343 L 1334.522046921557 1332.0020439338343 L 1325.522033171557 1332.0020439338343 L 1325.522033171557 1332.0020439338343 L 1325.522033171557 1296.0019889338346 L 1325.522033171557 1296.0019889338346 L 1334.522046921557 1296.0019889338346 L 1334.522046921557 1296.0019889338346 L 1334.522046921557 1260.0019339338344 L 1334.522046921557 1260.0019339338344 L 1325.522033171557 1260.0019339338344 L 1325.522033171557 1260.0019339338344 L 1325.522033171557 1224.0018789338344 L 1325.522033171557 1224.0018789338344 L 1334.522046921557 1224.0018789338344 L 1334.522046921557 1224.0018789338344 L 1334.522046921557 1188.0018239338344 L 1334.522046921557 1188.0018239338344 L 1325.522033171557 1188.0018239338344 L 1325.522033171557 1188.0018239338344 L 1325.522033171557 1152.0017689338342 L 1325.522033171557 1152.0017689338342 L 1334.522046921557 1152.0017689338342 L 1334.522046921557 1152.0017689338342 L 1334.522046921557 1116.0017139338343 L 1334.522046921557 1116.0017139338343 L 1325.522033171557 1116.0017139338343 L 1325.522033171557 1116.0017139338343 L 1325.522033171557 1080.0016589338343 L 1325.522033171557 1080.0016589338343 L 1334.522046921557 1080.0016589338343 L 1334.522046921557 1080.0016589338343 L 1334.522046921557 1044.0016039338343 L 1334.522046921557 1044.0016039338343 L 1325.522033171557 1044.0016039338343 L 1325.522033171557 1044.0016039338343 L 1325.522033171557 1008.0015489338344 L 1325.522033171557 1008.0015489338344 L 1334.522046921557 1008.0015489338344 L 1334.522046921557 1008.0015489338344 L 1334.522046921557 972.0014939338345 L 1334.522046921557 972.0014939338345 L 1325.522033171557 972.0014939338345 L 1325.522033171557 972.0014939338345 L 1325.522033171557 936.0014389338344 L 1325.522033171557 936.0014389338344 L 1334.522046921557 936.0014389338344 L 1334.522046921557 936.0014389338344 L 1334.522046921557 900.0013839338344 L 1334.522046921557 900.0013839338344 L 1325.522033171557 900.0013839338344 L 1325.522033171557 900.0013839338344 L 1325.522033171557 864.0013289338344 L 1325.522033171557 864.0013289338344 L 1334.522046921557 864.0013289338344 L 1334.522046921557 864.0013289338344 L 1334.522046921557 828.0012739338345 L 1334.522046921557 828.0012739338345 L 1325.522033171557 828.0012739338345 L 1325.522033171557 828.0012739338345 L 1325.522033171557 792.0012189338345" fill="none" stroke="#000000"/><path d="M 783.901205696557 1504.4423073838343 L 704.701084696557 1504.4423073838343 L 704.701084696557 1504.4423073838343 L 704.701084696557 1523.8823370838345 L 704.701084696557 1523.8823370838345 L 783.901205696557 1523.8823370838345 L 783.901205696557 1523.8823370838345 L 783.901205696557 1504.4423073838343 z" fill="none" stroke="#000000"/></svg>