G04 EAGLE Gerber RS-274X export*
G75*
%MOMM*%
%FSLAX34Y34*%
%LPD*%
%INSoldermask Bottom*%
%IPPOS*%
%AMOC8*
5,1,8,0,0,1.08239X$1,22.5*%
G01*
G04 Define Apertures*
%ADD10C,1.727200*%
%ADD11C,2.082800*%
%ADD12C,1.551200*%
D10*
X317500Y246380D02*
X317500Y261620D01*
X342900Y261620D02*
X342900Y246380D01*
X368300Y246380D02*
X368300Y261620D01*
X393700Y261620D02*
X393700Y246380D01*
X419100Y246380D02*
X419100Y261620D01*
D11*
X539750Y158750D03*
X539750Y133350D03*
X572770Y158750D03*
X572770Y133350D03*
X24692Y355600D03*
X50092Y355600D03*
X75492Y355600D03*
X100892Y355600D03*
X126292Y355600D03*
X151692Y355600D03*
X177092Y355600D03*
X202492Y355600D03*
X227892Y355600D03*
X253292Y355600D03*
X278692Y355600D03*
X304092Y355600D03*
X329492Y355600D03*
X354892Y355600D03*
X380292Y355600D03*
X405692Y355600D03*
X431092Y355600D03*
X456492Y355600D03*
X481892Y355600D03*
X507292Y355600D03*
X532692Y355600D03*
X558092Y355600D03*
X583492Y355600D03*
X608892Y355600D03*
X634292Y355600D03*
X635000Y252730D03*
X635000Y278130D03*
X635000Y303530D03*
X539750Y209550D03*
X539750Y184150D03*
X572770Y209550D03*
X572770Y184150D03*
X254000Y279400D03*
X254000Y254000D03*
D12*
X546100Y85950D03*
X546100Y60950D03*
X546100Y35950D03*
X429369Y199282D03*
X429412Y174282D03*
X429456Y149282D03*
X431800Y85950D03*
X431800Y60950D03*
X431800Y35950D03*
X590550Y437800D03*
X565550Y437800D03*
X540550Y437800D03*
X76200Y158750D03*
X76200Y133750D03*
X76200Y73650D03*
X76200Y48650D03*
X279400Y156200D03*
X279400Y131200D03*
X177800Y158750D03*
X177800Y133750D03*
X177800Y73650D03*
X177800Y48650D03*
X69850Y438150D03*
X94850Y438150D03*
X381000Y438200D03*
X356000Y438200D03*
X331000Y438200D03*
X306000Y438200D03*
M02*
