M48
;GenerationSoftware,Autodesk,EAGLE,9.7.0*%
;CreationDate,2023-01-13T19:26:35Z*%
FMAT,2
ICI,OFF
METRIC,TZ,000.000
T2C0.700
T1C1.016
%
G90
M71
T1
X31750Y25400
X34290Y25400
X36830Y25400
X39370Y25400
X41910Y25400
X2540Y35560
X5080Y35560
X7620Y35560
X10160Y35560
X12700Y35560
X15240Y35560
X17780Y35560
X20320Y35560
X22860Y35560
X25400Y35560
X27940Y35560
X30480Y35560
X33020Y35560
X35560Y35560
X38100Y35560
X40640Y35560
X43180Y35560
X45720Y35560
X48260Y35560
X50800Y35560
X53340Y35560
X55880Y35560
X58420Y35560
X60960Y35560
X63500Y35560
X63500Y25400
X63500Y27940
X63500Y30480
X53340Y19050
X56515Y21590
X56515Y19050
X25400Y25400
X25400Y27940
X53340Y16510
X53340Y13970
X56515Y16510
X56515Y13970
X53340Y21590
T2
X33195Y42545
X35195Y42545
X19050Y4715
X19050Y6715
X46355Y13240
X46355Y15240
X46355Y17240
X46355Y3080
X46355Y5080
X46355Y7080
X57785Y3080
X39195Y42545
X57785Y7080
X58325Y42545
X60325Y42545
X62325Y42545
X7890Y40005
X9890Y40005
X8255Y14240
X37195Y42545
X8255Y16240
X8255Y4715
X8255Y6715
X29845Y14240
X29845Y16240
X19050Y14240
X19050Y16240
X57785Y5080
M30